<?xml version="1.0" encoding="UTF-8" standalone="no"?>
<!DOCTYPE svg PUBLIC "-//W3C//DTD SVG 1.1//EN" "http://www.w3.org/Graphics/SVG/1.1/DTD/svg11.dtd">
<!--Copyright 2021 Tom Rothe-->
<svg width="100%" height="100%" viewBox="0 0 599 313" version="1.1" xmlns="http://www.w3.org/2000/svg" xmlns:xlink="http://www.w3.org/1999/xlink" xml:space="preserve" xmlns:serif="http://www.serif.com/" style="fill-rule:evenodd;clip-rule:evenodd;stroke-linecap:square;stroke-linejoin:round;stroke-miterlimit:1.5;">
    <rect x="240.068" y="84.195" width="161.706" height="180.285" style="fill:#fff;"/>
    <rect x="480.136" y="146.07" width="118.41" height="118.41" style="fill:#6598aa;"/>
    <path d="M466.92,58.157c3.936,-3.358 9.858,-2.888 13.216,1.048c3.359,3.936 2.889,9.858 -1.047,13.217c-3.936,3.358 -9.859,2.889 -13.217,-1.048c-3.358,-3.936 -2.889,-9.858 1.048,-13.217Z" style="fill:#192a30;"/>
    <path d="M381.448,143.4c0,-0 67.088,-57.235 87.277,-74.46" style="fill:none;stroke:#192a30;stroke-width:6.25px;"/>
    <rect x="480.136" y="-0" width="118.41" height="118.41" style="fill:#6598aa;"/>
    <path d="M470.818,195.843c5.174,0.032 9.35,4.258 9.318,9.432c-0.031,5.174 -4.257,9.349 -9.431,9.318c-5.174,-0.031 -9.35,-4.258 -9.318,-9.432c0.031,-5.174 4.257,-9.349 9.431,-9.318Z" style="fill:#192a30;"/>
    <path d="M381.448,204.677c0,0 56.077,0.34 83.689,0.507" style="fill:none;stroke:#192a30;stroke-width:6.25px;"/>
    <path d="M216.631,162.618l23.437,11.719l-23.437,11.719l-0,-23.438Z" style="fill:#192a30;"/>
    <path d="M161.706,174.337l59.612,0" style="fill:none;stroke:#192a30;stroke-width:6.25px;"/>
    <rect x="0" y="84.195" width="161.706" height="180.285" style="fill:#6598aa;"/>
    <rect x="260.394" y="125.256" width="121.054" height="36.288" style="fill:#6598aa;"/>
    <rect x="260.394" y="186.533" width="121.054" height="36.288" style="fill:#6598aa;"/>
    <path d="M458.391,312.174l3.861,-0l-0,-10.13l0.177,0c0.779,2.161 2.727,3.471 5.171,3.471c4.639,0 7.331,-3.577 7.331,-9.633c-0,-6.056 -2.692,-9.633 -7.331,-9.633c-2.444,-0 -4.392,1.275 -5.171,3.47l-0.177,0l-0,-3.045l-3.861,-0l0,25.5Zm8.04,-9.988c-2.338,0 -4.179,-1.275 -4.179,-3.152l-0,-6.304c-0,-1.877 1.841,-3.152 4.179,-3.152c2.656,-0 4.427,1.877 4.427,4.71l0,3.188c0,2.833 -1.771,4.71 -4.427,4.71Z" style="fill:#192a30;fill-rule:nonzero;"/>
    <path d="M483.218,305.09l0,-11.758c0,-1.913 1.7,-2.94 4.746,-2.94l1.523,0l0,-3.718l-1.027,-0c-2.939,-0 -4.533,1.664 -5.064,3.541l-0.178,0l0,-3.541l-3.86,-0l0,18.416l3.86,0Z" style="fill:#192a30;fill-rule:nonzero;"/>
    <path d="M499.971,305.515c5.135,0 8.464,-3.754 8.464,-9.633c0,-5.879 -3.329,-9.633 -8.464,-9.633c-5.136,-0 -8.465,3.754 -8.465,9.633c-0,5.879 3.329,9.633 8.465,9.633Zm-0,-3.187c-2.621,-0 -4.392,-1.629 -4.392,-4.888l-0,-3.116c-0,-3.259 1.771,-4.888 4.392,-4.888c2.62,0 4.391,1.629 4.391,4.888l0,3.116c0,3.259 -1.771,4.888 -4.391,4.888Z" style="fill:#192a30;fill-rule:nonzero;"/>
    <path d="M524.302,305.09l3.86,0l0,-26.208l-3.86,-0l-0,10.837l-0.177,0c-0.779,-2.195 -2.727,-3.47 -5.171,-3.47c-4.64,-0 -7.331,3.577 -7.331,9.633c-0,6.056 2.691,9.633 7.331,9.633c2.444,0 4.392,-1.31 5.171,-3.471l0.177,0l-0,3.046Zm-4.179,-2.904c-2.657,0 -4.427,-1.877 -4.427,-4.71l-0,-3.188c-0,-2.833 1.77,-4.71 4.427,-4.71c2.337,-0 4.179,1.275 4.179,3.152l-0,6.304c-0,1.877 -1.842,3.152 -4.179,3.152Z" style="fill:#192a30;fill-rule:nonzero;"/>
    <path d="M544.843,305.09l3.861,0l-0,-18.416l-3.861,-0l0,12.325c0,2.16 -1.947,3.187 -3.931,3.187c-2.373,0 -3.541,-1.487 -3.541,-4.285l-0,-11.227l-3.861,-0l0,11.723c0,4.533 2.231,7.118 6.021,7.118c3.046,0 4.498,-1.664 5.171,-3.471l0.141,0l0,3.046Z" style="fill:#192a30;fill-rule:nonzero;"/>
    <path d="M561.348,305.515c3.541,0 6.056,-1.664 7.26,-4.675l-2.94,-1.558c-0.779,1.842 -2.089,3.046 -4.32,3.046c-2.834,-0 -4.286,-1.948 -4.286,-4.781l0,-3.294c0,-2.834 1.452,-4.781 4.286,-4.781c2.089,-0 3.4,1.097 3.931,2.797l3.187,-1.487c-1.098,-2.727 -3.435,-4.533 -7.118,-4.533c-5.313,-0 -8.359,3.754 -8.359,9.633c0,5.879 3.046,9.633 8.359,9.633Z" style="fill:#192a30;fill-rule:nonzero;"/>
    <path d="M580.756,305.09l-0,-3.152l-3.577,0l-0,-12.112l3.86,-0l0,-3.152l-3.86,-0l-0,-5.03l-3.471,0l0,3.223c0,1.275 -0.425,1.807 -1.7,1.807l-1.558,-0l-0,3.152l2.868,-0l0,11.262c0,2.515 1.417,4.002 4.073,4.002l3.365,0Z" style="fill:#192a30;fill-rule:nonzero;"/>
    <path d="M591.062,305.515c4.427,0 7.296,-2.373 7.296,-5.914c0,-2.975 -1.806,-4.746 -5.844,-5.348l-1.7,-0.213c-1.948,-0.318 -2.833,-0.956 -2.833,-2.373c-0,-1.381 0.992,-2.302 3.117,-2.302c1.983,0 3.541,0.957 4.498,2.09l2.372,-2.267c-1.664,-1.841 -3.541,-2.939 -6.87,-2.939c-4.038,-0 -6.836,2.089 -6.836,5.666c0,3.4 2.302,5.029 6.056,5.49l1.7,0.212c1.913,0.248 2.621,1.134 2.621,2.302c0,1.559 -1.133,2.48 -3.364,2.48c-2.196,-0 -3.861,-0.992 -5.207,-2.621l-2.479,2.266c1.736,2.161 4.002,3.471 7.473,3.471Z" style="fill:#192a30;fill-rule:nonzero;"/>
    <path d="M291.472,305.09l3.86,0l0,-15.264l3.861,-0l-0,-3.152l-3.861,-0l0,-4.64l3.861,0l-0,-3.152l-3.046,-0c-3.081,-0 -4.675,1.771 -4.675,4.746l-0,3.046l-2.798,-0l0,3.152l2.798,-0l-0,15.264Z" style="fill:#192a30;fill-rule:nonzero;"/>
    <path d="M318.212,305.09l-0,-3.152l-1.948,0l-0,-9.244c-0,-4.108 -2.657,-6.445 -7.402,-6.445c-3.578,-0 -5.738,1.523 -6.942,3.577l2.302,2.089c0.921,-1.452 2.231,-2.514 4.392,-2.514c2.585,-0 3.789,1.31 3.789,3.541l0,1.559l-3.329,-0c-5.135,-0 -7.862,1.877 -7.862,5.525c-0,3.329 2.16,5.489 5.95,5.489c2.691,0 4.675,-1.204 5.383,-3.506l0.177,0c0.248,1.806 1.31,3.081 3.329,3.081l2.161,0Zm-9.953,-2.514c-1.912,-0 -3.116,-0.85 -3.116,-2.479l-0,-0.638c-0,-1.594 1.31,-2.479 4.002,-2.479l3.258,-0l0,2.656c0,1.806 -1.771,2.94 -4.144,2.94Z" style="fill:#192a30;fill-rule:nonzero;"/>
    <path d="M329.12,305.515c3.542,0 6.056,-1.664 7.26,-4.675l-2.939,-1.558c-0.779,1.842 -2.09,3.046 -4.321,3.046c-2.833,-0 -4.286,-1.948 -4.286,-4.781l0,-3.294c0,-2.834 1.453,-4.781 4.286,-4.781c2.089,-0 3.4,1.097 3.931,2.797l3.188,-1.487c-1.098,-2.727 -3.436,-4.533 -7.119,-4.533c-5.313,-0 -8.358,3.754 -8.358,9.633c-0,5.879 3.045,9.633 8.358,9.633Z" style="fill:#192a30;fill-rule:nonzero;"/>
    <path d="M348.528,305.09l0,-3.152l-3.577,0l0,-12.112l3.861,-0l-0,-3.152l-3.861,-0l0,-5.03l-3.471,0l0,3.223c0,1.275 -0.425,1.807 -1.7,1.807l-1.558,-0l-0,3.152l2.869,-0l-0,11.262c-0,2.515 1.416,4.002 4.073,4.002l3.364,0Z" style="fill:#192a30;fill-rule:nonzero;"/>
    <path d="M360.074,305.515c5.135,0 8.465,-3.754 8.465,-9.633c-0,-5.879 -3.33,-9.633 -8.465,-9.633c-5.135,-0 -8.465,3.754 -8.465,9.633c0,5.879 3.33,9.633 8.465,9.633Zm0,-3.187c-2.621,-0 -4.392,-1.629 -4.392,-4.888l0,-3.116c0,-3.259 1.771,-4.888 4.392,-4.888c2.621,0 4.392,1.629 4.392,4.888l-0,3.116c-0,3.259 -1.771,4.888 -4.392,4.888Z" style="fill:#192a30;fill-rule:nonzero;"/>
    <path d="M376.684,305.09l0,-11.758c0,-1.913 1.7,-2.94 4.746,-2.94l1.523,0l0,-3.718l-1.027,-0c-2.939,-0 -4.533,1.664 -5.064,3.541l-0.178,0l0,-3.541l-3.86,-0l0,18.416l3.86,0Z" style="fill:#192a30;fill-rule:nonzero;"/>
    <path d="M394.322,297.511l-1.169,4.002l-0.177,0l-1.062,-4.002l-3.684,-10.837l-3.86,-0l6.694,19.231l-1.063,3.117l-3.117,-0l0,3.152l2.232,-0c2.868,-0 3.966,-0.957 4.852,-3.436l7.756,-22.064l-3.719,-0l-3.683,10.837Z" style="fill:#192a30;fill-rule:nonzero;"/>
</svg>
