<?xml version="1.0" encoding="UTF-8" standalone="no"?>
<!DOCTYPE svg PUBLIC "-//W3C//DTD SVG 1.1//EN" "http://www.w3.org/Graphics/SVG/1.1/DTD/svg11.dtd">
<!--Copyright 2021 Tom Rothe-->
<svg width="100%" height="100%" viewBox="0 0 581 237" version="1.1" xmlns="http://www.w3.org/2000/svg" xmlns:xlink="http://www.w3.org/1999/xlink" xml:space="preserve" xmlns:serif="http://www.serif.com/" style="fill-rule:evenodd;clip-rule:evenodd;stroke-linejoin:round;stroke-miterlimit:1.5;">
    <rect x="96.881" y="-0" width="55.748" height="95.692" style="fill:#fff;"/>
    <circle cx="124.755" cy="199.755" r="36.991" style="fill:#fff;"/>
    <path d="M0,119.641l48.418,-47.846l-0,95.692l-48.418,-47.846Z" style="fill:#fff;"/>
    <rect x="29.635" y="24.542" width="190.24" height="190.197" style="fill:#fff;"/>
    <path d="M315.631,100.891l37.5,18.75l-37.5,18.75l0,-37.5Z" style="fill:#2d4765;"/>
    <path d="M263.234,119.641l59.897,-0" style="fill:none;stroke:#2d4765;stroke-width:12.5px;"/>
    <rect x="390.291" y="24.542" width="190.24" height="190.197" style="fill:#fff;"/>
    <path d="M470.708,199.11l-0,-12.361c-0,-2.125 1.877,-3.152 3.789,-3.152c2.267,0 3.365,1.417 3.365,4.286l-0,11.227l3.86,-0l0,-12.361c0,-2.125 1.807,-3.152 3.755,-3.152c2.337,0 3.4,1.452 3.4,4.286l-0,11.227l3.86,-0l-0,-11.688c-0,-4.533 -2.16,-7.154 -5.808,-7.154c-2.975,-0 -4.888,1.7 -5.561,3.754l-0.106,0c-0.885,-2.55 -2.975,-3.754 -5.454,-3.754c-2.798,-0 -4.179,1.558 -4.923,3.471l-0.177,-0l-0,-3.046l-3.861,-0l0,18.417l3.861,-0Z" style="fill:#28424c;fill-rule:nonzero;"/>
    <path d="M505.31,199.535c5.135,-0 8.464,-3.755 8.464,-9.634c0,-5.879 -3.329,-9.633 -8.464,-9.633c-5.136,-0 -8.465,3.754 -8.465,9.633c0,5.879 3.329,9.634 8.465,9.634Zm-0,-3.188c-2.621,0 -4.392,-1.629 -4.392,-4.887l0,-3.117c0,-3.258 1.771,-4.888 4.392,-4.888c2.621,0 4.392,1.63 4.392,4.888l-0,3.117c-0,3.258 -1.771,4.887 -4.392,4.887Z" style="fill:#28424c;fill-rule:nonzero;"/>
    <path d="M529.641,199.11l3.861,-0l-0,-26.209l-3.861,0l0,10.838l-0.177,-0c-0.779,-2.196 -2.727,-3.471 -5.171,-3.471c-4.639,-0 -7.331,3.577 -7.331,9.633c-0,6.057 2.692,9.634 7.331,9.634c2.444,-0 4.392,-1.311 5.171,-3.471l0.177,-0l0,3.046Zm-4.179,-2.905c-2.656,0 -4.427,-1.877 -4.427,-4.71l-0,-3.187c-0,-2.834 1.771,-4.711 4.427,-4.711c2.337,0 4.179,1.275 4.179,3.152l0,6.304c0,1.877 -1.842,3.152 -4.179,3.152Z" style="fill:#28424c;fill-rule:nonzero;"/>
    <path d="M546.252,199.535c3.435,-0 6.127,-1.488 7.508,-3.719l-2.267,-2.231c-1.062,1.7 -2.585,2.762 -4.852,2.762c-3.117,0 -4.852,-2.019 -4.852,-4.852l0,-0.602l12.644,-0l-0,-1.452c-0,-5.1 -2.763,-9.173 -8.181,-9.173c-5.242,-0 -8.465,3.754 -8.465,9.633c-0,5.879 3.223,9.634 8.465,9.634Zm-0,-16.257c2.55,0 4.108,1.877 4.108,4.711l-0,0.354l-8.571,-0l0,-0.248c0,-2.833 1.806,-4.817 4.463,-4.817Z" style="fill:#28424c;fill-rule:nonzero;"/>
    <path d="M565.129,199.11l-0,-3.152l-2.55,-0l-0,-23.057l-3.861,0l0,22.384c0,2.373 1.311,3.825 3.931,3.825l2.48,-0Z" style="fill:#28424c;fill-rule:nonzero;"/>
</svg>
