<?xml version="1.0" encoding="UTF-8" standalone="no"?>
<!DOCTYPE svg PUBLIC "-//W3C//DTD SVG 1.1//EN" "http://www.w3.org/Graphics/SVG/1.1/DTD/svg11.dtd">
<!--Copyright 2021 Tom Rothe-->
<svg width="100%" height="100%" viewBox="0 0 558 257" version="1.1" xmlns="http://www.w3.org/2000/svg" xmlns:xlink="http://www.w3.org/1999/xlink" xml:space="preserve" xmlns:serif="http://www.serif.com/" style="fill-rule:evenodd;clip-rule:evenodd;stroke-linejoin:round;stroke-miterlimit:1.5;">
    <g transform="matrix(1,0,0,1,-92.2032,-1584.22)">
        <g transform="matrix(1.21154,0,0,1.18919,0,1208.33)">
            <g transform="matrix(0.937802,0,0,1.48892,76.1422,-118.707)">
                <path d="M183.357,350.865l123.73,-0" style="fill:none;stroke:#192a30;stroke-width:4.2px;"/>
            </g>
        </g>
        <g transform="matrix(1.21154,0,0,1.18919,0,1208.33)">
            <g transform="matrix(1.04289,0,0,1.06249,2.49907,26.9975)">
                <path d="M109.609,437.004c-21.574,-0.403 -39.031,-37.195 -39.031,-82.454c-0,-45.26 17.457,-82.052 39.031,-82.455l0,-0.004l125.886,0l-0,164.917l-125.886,-0l0,-0.004Z" style="fill:#fff;"/>
            </g>
        </g>
        <g transform="matrix(1.21154,0,0,1.18919,0,1208.33)">
            <g transform="matrix(1.04289,0,0,1.06249,2.49907,26.9975)">
                <path d="M346.756,354.55l28.427,-82.459l136.49,0l-0,164.917l-136.49,-0l-28.427,-82.458Z" style="fill:#6598aa;"/>
            </g>
        </g>
        <g transform="matrix(1.21154,0,0,1.18919,0,1208.33)">
            <g transform="matrix(1.04289,0,0,1.06249,-106.762,-56.9139)">
                <g transform="matrix(28.0305,0,0,28.0305,240.558,548.598)">
                    <path d="M0.52,-0l0,-0.089l-0.055,0l0,-0.261c0,-0.116 -0.075,-0.182 -0.209,-0.182c-0.101,0 -0.162,0.043 -0.196,0.101l0.065,0.059c0.026,-0.041 0.063,-0.071 0.124,-0.071c0.073,0 0.107,0.037 0.107,0.1l0,0.044l-0.094,0c-0.145,0 -0.222,0.053 -0.222,0.156c-0,0.094 0.061,0.155 0.168,0.155c0.076,0 0.132,-0.034 0.152,-0.099l0.005,0c0.007,0.051 0.037,0.087 0.094,0.087l0.061,0Zm-0.281,-0.071c-0.054,0 -0.088,-0.024 -0.088,-0.07l0,-0.018c0,-0.045 0.037,-0.07 0.113,-0.07l0.092,0l0,0.075c0,0.051 -0.05,0.083 -0.117,0.083Z" style="fill:#192a30;fill-rule:nonzero;"/>
                </g>
                <g transform="matrix(28.0305,0,0,28.0305,255.946,548.598)">
                    <path d="M0.405,-0l0.109,-0l0,-0.74l-0.109,0l0,0.306l-0.005,0c-0.022,-0.062 -0.077,-0.098 -0.146,-0.098c-0.131,0 -0.207,0.101 -0.207,0.272c0,0.171 0.076,0.272 0.207,0.272c0.069,-0 0.124,-0.037 0.146,-0.098l0.005,-0l0,0.086Zm-0.118,-0.082c-0.075,-0 -0.125,-0.053 -0.125,-0.133l-0,-0.09c-0,-0.08 0.05,-0.133 0.125,-0.133c0.066,0 0.118,0.036 0.118,0.089l0,0.178c0,0.053 -0.052,0.089 -0.118,0.089Z" style="fill:#192a30;fill-rule:nonzero;"/>
                </g>
                <g transform="matrix(28.0305,0,0,28.0305,272.541,548.598)">
                    <path d="M0.52,-0l0,-0.089l-0.055,0l0,-0.261c0,-0.116 -0.075,-0.182 -0.209,-0.182c-0.101,0 -0.162,0.043 -0.196,0.101l0.065,0.059c0.026,-0.041 0.063,-0.071 0.124,-0.071c0.073,0 0.107,0.037 0.107,0.1l0,0.044l-0.094,0c-0.145,0 -0.222,0.053 -0.222,0.156c-0,0.094 0.061,0.155 0.168,0.155c0.076,0 0.132,-0.034 0.152,-0.099l0.005,0c0.007,0.051 0.037,0.087 0.094,0.087l0.061,0Zm-0.281,-0.071c-0.054,0 -0.088,-0.024 -0.088,-0.07l0,-0.018c0,-0.045 0.037,-0.07 0.113,-0.07l0.092,0l0,0.075c0,0.051 -0.05,0.083 -0.117,0.083Z" style="fill:#192a30;fill-rule:nonzero;"/>
                </g>
                <g transform="matrix(28.0305,0,0,28.0305,287.929,548.598)">
                    <path d="M0.078,0.2l0.109,0l0,-0.286l0.005,0c0.022,0.061 0.077,0.098 0.146,0.098c0.131,0 0.207,-0.101 0.207,-0.272c0,-0.171 -0.076,-0.272 -0.207,-0.272c-0.069,0 -0.124,0.036 -0.146,0.098l-0.005,0l0,-0.086l-0.109,0l0,0.72Zm0.227,-0.282c-0.066,0 -0.118,-0.036 -0.118,-0.089l0,-0.178c0,-0.053 0.052,-0.089 0.118,-0.089c0.075,0 0.125,0.053 0.125,0.133l0,0.09c0,0.08 -0.05,0.133 -0.125,0.133Z" style="fill:#192a30;fill-rule:nonzero;"/>
                </g>
                <g transform="matrix(28.0305,0,0,28.0305,304.355,548.598)">
                    <path d="M0.317,-0l0,-0.089l-0.101,0l0,-0.342l0.109,0l0,-0.089l-0.109,0l-0,-0.142l-0.098,0l-0,0.091c-0,0.036 -0.012,0.051 -0.048,0.051l-0.044,0l-0,0.089l0.081,0l-0,0.318c-0,0.071 0.04,0.113 0.115,0.113l0.095,0Z" style="fill:#192a30;fill-rule:nonzero;"/>
                </g>
                <g transform="matrix(28.0305,0,0,28.0305,314.474,548.598)">
                    <path d="M0.282,0.012c0.097,0 0.173,-0.042 0.212,-0.105l-0.064,-0.063c-0.03,0.048 -0.073,0.078 -0.137,0.078c-0.088,0 -0.137,-0.057 -0.137,-0.137l0,-0.017l0.357,0l0,-0.041c0,-0.144 -0.078,-0.259 -0.231,-0.259c-0.148,0 -0.239,0.106 -0.239,0.272c0,0.166 0.091,0.272 0.239,0.272Zm0,-0.459c0.072,0 0.116,0.053 0.116,0.133l0,0.01l-0.242,0l0,-0.007c0,-0.08 0.051,-0.136 0.126,-0.136Z" style="fill:#192a30;fill-rule:nonzero;"/>
                </g>
                <g transform="matrix(28.0305,0,0,28.0305,330.059,548.598)">
                    <path d="M0.187,-0l0,-0.332c0,-0.054 0.048,-0.083 0.134,-0.083l0.043,0l0,-0.105l-0.029,0c-0.083,0 -0.128,0.047 -0.143,0.1l-0.005,0l0,-0.1l-0.109,0l0,0.52l0.109,-0Z" style="fill:#192a30;fill-rule:nonzero;"/>
                </g>
            </g>
        </g>
        <g transform="matrix(1.21154,0,0,1.18919,0,1208.33)">
            <g transform="matrix(1.04289,0,0,1.06249,192.992,-56.9139)">
                <g transform="matrix(28.0305,0,0,28.0305,225.133,548.598)">
                    <path d="M0.52,-0l0,-0.089l-0.055,0l0,-0.261c0,-0.116 -0.075,-0.182 -0.209,-0.182c-0.101,0 -0.162,0.043 -0.196,0.101l0.065,0.059c0.026,-0.041 0.063,-0.071 0.124,-0.071c0.073,0 0.107,0.037 0.107,0.1l0,0.044l-0.094,0c-0.145,0 -0.222,0.053 -0.222,0.156c-0,0.094 0.061,0.155 0.168,0.155c0.076,0 0.132,-0.034 0.152,-0.099l0.005,0c0.007,0.051 0.037,0.087 0.094,0.087l0.061,0Zm-0.281,-0.071c-0.054,0 -0.088,-0.024 -0.088,-0.07l0,-0.018c0,-0.045 0.037,-0.07 0.113,-0.07l0.092,0l0,0.075c0,0.051 -0.05,0.083 -0.117,0.083Z" style="fill:#192a30;fill-rule:nonzero;"/>
                </g>
                <g transform="matrix(28.0305,0,0,28.0305,240.522,548.598)">
                    <path d="M0.405,-0l0.109,-0l0,-0.74l-0.109,0l0,0.306l-0.005,0c-0.022,-0.062 -0.077,-0.098 -0.146,-0.098c-0.131,0 -0.207,0.101 -0.207,0.272c0,0.171 0.076,0.272 0.207,0.272c0.069,-0 0.124,-0.037 0.146,-0.098l0.005,-0l0,0.086Zm-0.118,-0.082c-0.075,-0 -0.125,-0.053 -0.125,-0.133l-0,-0.09c-0,-0.08 0.05,-0.133 0.125,-0.133c0.066,0 0.118,0.036 0.118,0.089l0,0.178c0,0.053 -0.052,0.089 -0.118,0.089Z" style="fill:#192a30;fill-rule:nonzero;"/>
                </g>
                <g transform="matrix(28.0305,0,0,28.0305,257.116,548.598)">
                    <path d="M0.52,-0l0,-0.089l-0.055,0l0,-0.261c0,-0.116 -0.075,-0.182 -0.209,-0.182c-0.101,0 -0.162,0.043 -0.196,0.101l0.065,0.059c0.026,-0.041 0.063,-0.071 0.124,-0.071c0.073,0 0.107,0.037 0.107,0.1l0,0.044l-0.094,0c-0.145,0 -0.222,0.053 -0.222,0.156c-0,0.094 0.061,0.155 0.168,0.155c0.076,0 0.132,-0.034 0.152,-0.099l0.005,0c0.007,0.051 0.037,0.087 0.094,0.087l0.061,0Zm-0.281,-0.071c-0.054,0 -0.088,-0.024 -0.088,-0.07l0,-0.018c0,-0.045 0.037,-0.07 0.113,-0.07l0.092,0l0,0.075c0,0.051 -0.05,0.083 -0.117,0.083Z" style="fill:#192a30;fill-rule:nonzero;"/>
                </g>
                <g transform="matrix(28.0305,0,0,28.0305,272.505,548.598)">
                    <path d="M0.078,0.2l0.109,0l0,-0.286l0.005,0c0.022,0.061 0.077,0.098 0.146,0.098c0.131,0 0.207,-0.101 0.207,-0.272c0,-0.171 -0.076,-0.272 -0.207,-0.272c-0.069,0 -0.124,0.036 -0.146,0.098l-0.005,0l0,-0.086l-0.109,0l0,0.72Zm0.227,-0.282c-0.066,0 -0.118,-0.036 -0.118,-0.089l0,-0.178c0,-0.053 0.052,-0.089 0.118,-0.089c0.075,0 0.125,0.053 0.125,0.133l0,0.09c0,0.08 -0.05,0.133 -0.125,0.133Z" style="fill:#192a30;fill-rule:nonzero;"/>
                </g>
                <g transform="matrix(28.0305,0,0,28.0305,288.931,548.598)">
                    <path d="M0.317,-0l0,-0.089l-0.101,0l0,-0.342l0.109,0l0,-0.089l-0.109,0l-0,-0.142l-0.098,0l-0,0.091c-0,0.036 -0.012,0.051 -0.048,0.051l-0.044,0l-0,0.089l0.081,0l-0,0.318c-0,0.071 0.04,0.113 0.115,0.113l0.095,0Z" style="fill:#192a30;fill-rule:nonzero;"/>
                </g>
                <g transform="matrix(28.0305,0,0,28.0305,299.05,548.598)">
                    <path d="M0.282,0.012c0.097,0 0.173,-0.042 0.212,-0.105l-0.064,-0.063c-0.03,0.048 -0.073,0.078 -0.137,0.078c-0.088,0 -0.137,-0.057 -0.137,-0.137l0,-0.017l0.357,0l0,-0.041c0,-0.144 -0.078,-0.259 -0.231,-0.259c-0.148,0 -0.239,0.106 -0.239,0.272c0,0.166 0.091,0.272 0.239,0.272Zm0,-0.459c0.072,0 0.116,0.053 0.116,0.133l0,0.01l-0.242,0l0,-0.007c0,-0.08 0.051,-0.136 0.126,-0.136Z" style="fill:#192a30;fill-rule:nonzero;"/>
                </g>
                <g transform="matrix(28.0305,0,0,28.0305,314.635,548.598)">
                    <path d="M0.282,0.012c0.097,0 0.173,-0.042 0.212,-0.105l-0.064,-0.063c-0.03,0.048 -0.073,0.078 -0.137,0.078c-0.088,0 -0.137,-0.057 -0.137,-0.137l0,-0.017l0.357,0l0,-0.041c0,-0.144 -0.078,-0.259 -0.231,-0.259c-0.148,0 -0.239,0.106 -0.239,0.272c0,0.166 0.091,0.272 0.239,0.272Zm0,-0.459c0.072,0 0.116,0.053 0.116,0.133l0,0.01l-0.242,0l0,-0.007c0,-0.08 0.051,-0.136 0.126,-0.136Z" style="fill:#192a30;fill-rule:nonzero;"/>
                </g>
            </g>
        </g>
    </g>
</svg>
