<?xml version="1.0" encoding="UTF-8" standalone="no"?>
<!DOCTYPE svg PUBLIC "-//W3C//DTD SVG 1.1//EN" "http://www.w3.org/Graphics/SVG/1.1/DTD/svg11.dtd">
<!--Copyright 2021 Tom Rothe-->
<svg width="100%" height="100%" viewBox="0 0 535 281" version="1.1" xmlns="http://www.w3.org/2000/svg" xmlns:xlink="http://www.w3.org/1999/xlink" xml:space="preserve" xmlns:serif="http://www.serif.com/" style="fill-rule:evenodd;clip-rule:evenodd;stroke-linejoin:round;stroke-miterlimit:1.5;">
    <path d="M53.964,172.166c29.783,-0 53.964,24.18 53.964,53.964c-0,29.783 -24.181,53.963 -53.964,53.963c-29.784,0 -53.964,-24.18 -53.964,-53.963c0,-29.784 24.18,-53.964 53.964,-53.964Zm-0,12.5c22.884,-0 41.464,18.579 41.464,41.464c-0,22.884 -18.58,41.463 -41.464,41.463c-22.885,0 -41.464,-18.579 -41.464,-41.463c0,-22.885 18.579,-41.464 41.464,-41.464Z" style="fill:#ad4ca9;"/>
    <path d="M107.928,226.13l146.303,-0" style="fill:none;stroke:#ad4ca9;stroke-width:12.5px;"/>
    <path d="M327.726,133.103l-19.531,39.063l-19.531,-39.063l39.062,0Z" style="fill:#fff;"/>
    <path d="M107.928,55.243c-0,-0 115.19,-0 170.848,-0c7.803,-0 15.285,3.099 20.803,8.616c5.517,5.517 8.616,13 8.616,20.802c0,17.159 0,38.791 0,56.255" style="fill:none;stroke:#fff;stroke-width:10.42px;stroke-dasharray:31.25,20.83,0,0;"/>
    <path d="M53.964,1.279c29.783,-0 53.964,24.18 53.964,53.964c-0,29.783 -24.181,53.964 -53.964,53.964c-29.784,-0 -53.964,-24.181 -53.964,-53.964c0,-29.784 24.18,-53.964 53.964,-53.964Zm-0,12.5c22.884,-0 41.464,18.579 41.464,41.464c-0,22.884 -18.58,41.464 -41.464,41.464c-22.885,-0 -41.464,-18.58 -41.464,-41.464c0,-22.885 18.579,-41.464 41.464,-41.464Z" style="fill:#ad4ca9;"/>
    <path d="M308.195,172.166c29.784,-0 53.964,24.18 53.964,53.964c-0,29.783 -24.18,53.963 -53.964,53.963c-29.783,0 -53.964,-24.18 -53.964,-53.963c0,-29.784 24.181,-53.964 53.964,-53.964Zm0,12.5c22.885,-0 41.464,18.579 41.464,41.464c-0,22.884 -18.579,41.463 -41.464,41.463c-22.885,0 -41.464,-18.579 -41.464,-41.463c0,-22.885 18.579,-41.464 41.464,-41.464Z" style="fill:#ad4ca9;"/>
    <rect x="341.888" y="31.127" width="192.544" height="66.796" style="fill:#fff;"/>
    <path d="M365.871,77.007l3.86,0l0,-15.264l3.861,-0l-0,-3.152l-3.861,-0l0,-4.64l3.861,0l-0,-3.152l-3.046,-0c-3.082,-0 -4.675,1.771 -4.675,4.746l-0,3.046l-2.798,-0l-0,3.152l2.798,-0l-0,15.264Z" style="fill:#46101e;fill-rule:nonzero;"/>
    <path d="M384.039,77.432c3.436,0 6.128,-1.487 7.509,-3.718l-2.267,-2.232c-1.062,1.7 -2.585,2.763 -4.852,2.763c-3.117,-0 -4.852,-2.019 -4.852,-4.852l-0,-0.602l12.644,-0l-0,-1.452c-0,-5.1 -2.763,-9.173 -8.182,-9.173c-5.241,-0 -8.464,3.754 -8.464,9.633c-0,5.879 3.223,9.633 8.464,9.633Zm0,-16.256c2.55,0 4.109,1.877 4.109,4.71l-0,0.355l-8.571,-0l-0,-0.248c-0,-2.834 1.806,-4.817 4.462,-4.817Z" style="fill:#46101e;fill-rule:nonzero;"/>
    <path d="M403.731,77.432c3.436,0 6.127,-1.487 7.508,-3.718l-2.266,-2.232c-1.063,1.7 -2.586,2.763 -4.852,2.763c-3.117,-0 -4.852,-2.019 -4.852,-4.852l-0,-0.602l12.643,-0l0,-1.452c0,-5.1 -2.762,-9.173 -8.181,-9.173c-5.242,-0 -8.464,3.754 -8.464,9.633c-0,5.879 3.222,9.633 8.464,9.633Zm0,-16.256c2.55,0 4.108,1.877 4.108,4.71l0,0.355l-8.57,-0l-0,-0.248c-0,-2.834 1.806,-4.817 4.462,-4.817Z" style="fill:#46101e;fill-rule:nonzero;"/>
    <path d="M427.779,77.007l3.86,0l0,-26.208l-3.86,-0l0,10.837l-0.177,0c-0.779,-2.195 -2.727,-3.47 -5.171,-3.47c-4.639,-0 -7.331,3.577 -7.331,9.633c-0,6.056 2.692,9.633 7.331,9.633c2.444,0 4.392,-1.31 5.171,-3.471l0.177,0l0,3.046Zm-4.179,-2.904c-2.656,0 -4.427,-1.877 -4.427,-4.71l-0,-3.188c-0,-2.833 1.771,-4.71 4.427,-4.71c2.337,-0 4.179,1.275 4.179,3.152l0,6.304c0,1.877 -1.842,3.152 -4.179,3.152Z" style="fill:#46101e;fill-rule:nonzero;"/>
    <path d="M437.164,77.007l3.861,0l-0,-3.046l0.177,0c0.779,2.161 2.727,3.471 5.171,3.471c4.639,0 7.331,-3.577 7.331,-9.633c0,-6.056 -2.692,-9.633 -7.331,-9.633c-2.444,-0 -4.392,1.275 -5.171,3.47l-0.177,0l-0,-10.837l-3.861,-0l0,26.208Zm8.04,-2.904c-2.337,0 -4.179,-1.275 -4.179,-3.152l-0,-6.304c-0,-1.877 1.842,-3.152 4.179,-3.152c2.656,-0 4.427,1.877 4.427,4.71l0,3.188c0,2.833 -1.771,4.71 -4.427,4.71Z" style="fill:#46101e;fill-rule:nonzero;"/>
    <path d="M473.785,77.007l0,-3.152l-1.948,0l0,-9.244c0,-4.108 -2.656,-6.445 -7.402,-6.445c-3.577,-0 -5.737,1.523 -6.941,3.577l2.302,2.089c0.921,-1.452 2.231,-2.514 4.391,-2.514c2.586,-0 3.79,1.31 3.79,3.541l-0,1.559l-3.329,-0c-5.136,-0 -7.863,1.877 -7.863,5.525c0,3.329 2.161,5.489 5.95,5.489c2.692,0 4.675,-1.204 5.384,-3.506l0.177,0c0.248,1.806 1.31,3.081 3.329,3.081l2.16,0Zm-9.952,-2.514c-1.912,-0 -3.116,-0.85 -3.116,-2.479l-0,-0.638c-0,-1.594 1.31,-2.479 4.002,-2.479l3.258,-0l-0,2.656c-0,1.806 -1.771,2.94 -4.144,2.94Z" style="fill:#46101e;fill-rule:nonzero;"/>
    <path d="M484.694,77.432c3.541,0 6.056,-1.664 7.26,-4.675l-2.94,-1.558c-0.779,1.842 -2.089,3.046 -4.32,3.046c-2.834,-0 -4.286,-1.948 -4.286,-4.781l0,-3.294c0,-2.834 1.452,-4.781 4.286,-4.781c2.089,-0 3.4,1.097 3.931,2.797l3.187,-1.487c-1.098,-2.727 -3.435,-4.533 -7.118,-4.533c-5.313,-0 -8.359,3.754 -8.359,9.633c0,5.879 3.046,9.633 8.359,9.633Z" style="fill:#46101e;fill-rule:nonzero;"/>
    <path d="M495.637,77.007l3.861,0l-0,-6.021l2.55,-2.762l5.277,8.783l4.604,0l-7.225,-11.298l6.446,-7.118l-4.498,-0l-4.427,4.993l-2.55,3.294l-0.177,0l-0,-16.079l-3.861,-0l0,26.208Z" style="fill:#46101e;fill-rule:nonzero;"/>
</svg>
