<?xml version="1.0" encoding="UTF-8" standalone="no"?>
<!DOCTYPE svg PUBLIC "-//W3C//DTD SVG 1.1//EN" "http://www.w3.org/Graphics/SVG/1.1/DTD/svg11.dtd">
<!--Copyright 2021 Tom Rothe-->
<svg width="100%" height="100%" viewBox="0 0 358 462" version="1.1" xmlns="http://www.w3.org/2000/svg" xmlns:xlink="http://www.w3.org/1999/xlink" xml:space="preserve" xmlns:serif="http://www.serif.com/" style="fill-rule:evenodd;clip-rule:evenodd;stroke-linejoin:round;stroke-miterlimit:2;">
    <rect x="0" y="0" width="357.938" height="461.868" style="fill:#ad4ca9;"/>
    <g>
        <rect x="26.173" y="24.427" width="178.091" height="25.7" style="fill:#652562;"/>
        <rect x="26.173" y="63.024" width="108.234" height="25.7" style="fill:#652562;"/>
        <rect x="26.173" y="101.62" width="108.234" height="25.7" style="fill:#652562;"/>
        <rect x="26.173" y="140.217" width="133.642" height="25.7" style="fill:#652562;"/>
        <rect x="26.173" y="178.813" width="143.307" height="25.7" style="fill:#652562;"/>
    </g>
    <g>
        <rect x="204.264" y="101.62" width="124.833" height="25.7" style="fill:#fff;"/>
        <rect x="204.264" y="140.217" width="109.223" height="25.7" style="fill:#fff;"/>
        <rect x="204.264" y="178.813" width="116.787" height="25.7" style="fill:#fff;"/>
    </g>
    <g>
        <rect x="26.173" y="250.107" width="180.495" height="25.7" style="fill:#652562;"/>
        <rect x="26.173" y="288.703" width="160.725" height="25.7" style="fill:#652562;"/>
        <rect x="26.173" y="327.3" width="160.725" height="25.7" style="fill:#652562;"/>
        <rect x="26.173" y="365.896" width="134.755" height="25.7" style="fill:#652562;"/>
        <rect x="26.173" y="404.493" width="152.796" height="25.7" style="fill:#652562;"/>
    </g>
    <path d="M274.694,451.868c3.542,0 6.057,-1.664 7.261,-4.675l-2.94,-1.558c-0.779,1.842 -2.089,3.046 -4.321,3.046c-2.833,-0 -4.285,-1.948 -4.285,-4.782l0,-3.293c0,-2.834 1.452,-4.782 4.285,-4.782c2.09,0 3.4,1.098 3.932,2.798l3.187,-1.487c-1.098,-2.727 -3.435,-4.533 -7.119,-4.533c-5.312,-0 -8.358,3.754 -8.358,9.633c0,5.879 3.046,9.633 8.358,9.633Z" style="fill:#46101e;fill-rule:nonzero;"/>
    <path d="M292.651,451.868c5.135,0 8.464,-3.754 8.464,-9.633c0,-5.879 -3.329,-9.633 -8.464,-9.633c-5.136,-0 -8.465,3.754 -8.465,9.633c0,5.879 3.329,9.633 8.465,9.633Zm-0,-3.187c-2.621,-0 -4.392,-1.629 -4.392,-4.888l0,-3.116c0,-3.259 1.771,-4.888 4.392,-4.888c2.621,0 4.391,1.629 4.391,4.888l0,3.116c0,3.259 -1.77,4.888 -4.391,4.888Z" style="fill:#46101e;fill-rule:nonzero;"/>
    <path d="M316.982,451.443l3.86,0l0,-26.208l-3.86,-0l-0,10.837l-0.177,0c-0.779,-2.195 -2.727,-3.47 -5.171,-3.47c-4.64,-0 -7.331,3.577 -7.331,9.633c-0,6.056 2.691,9.633 7.331,9.633c2.444,0 4.392,-1.31 5.171,-3.471l0.177,0l-0,3.046Zm-4.179,-2.904c-2.656,0 -4.427,-1.877 -4.427,-4.71l-0,-3.188c-0,-2.833 1.771,-4.71 4.427,-4.71c2.337,-0 4.179,1.275 4.179,3.152l-0,6.304c-0,1.877 -1.842,3.152 -4.179,3.152Z" style="fill:#46101e;fill-rule:nonzero;"/>
    <path d="M333.592,451.868c3.436,0 6.127,-1.487 7.509,-3.719l-2.267,-2.231c-1.062,1.7 -2.585,2.763 -4.852,2.763c-3.117,-0 -4.852,-2.019 -4.852,-4.852l-0,-0.602l12.644,-0l-0,-1.453c-0,-5.1 -2.763,-9.172 -8.182,-9.172c-5.241,-0 -8.464,3.754 -8.464,9.633c-0,5.879 3.223,9.633 8.464,9.633Zm0,-16.256c2.55,-0 4.109,1.877 4.109,4.71l-0,0.355l-8.571,-0l-0,-0.248c-0,-2.834 1.806,-4.817 4.462,-4.817Z" style="fill:#46101e;fill-rule:nonzero;"/>
</svg>
