<?xml version="1.0" encoding="UTF-8" standalone="no"?>
<!DOCTYPE svg PUBLIC "-//W3C//DTD SVG 1.1//EN" "http://www.w3.org/Graphics/SVG/1.1/DTD/svg11.dtd">
<svg width="100%" height="100%" viewBox="0 0 508 467" version="1.1" xmlns="http://www.w3.org/2000/svg" xmlns:xlink="http://www.w3.org/1999/xlink" xml:space="preserve" xmlns:serif="http://www.serif.com/" style="fill-rule:evenodd;clip-rule:evenodd;stroke-linejoin:round;stroke-miterlimit:2;">
    <rect x="0" y="0" width="228.515" height="417.71" style="fill:#7d9bbf;"/>
    <rect x="278.95" y="0" width="228.515" height="417.71" style="fill:#7d9bbf;"/>
    <rect x="25.218" y="324.081" width="178.079" height="43.194" style="fill:#4870a1;"/>
    <rect x="25.218" y="255.669" width="178.079" height="43.194" style="fill:#4870a1;"/>
    <rect x="25.218" y="187.258" width="178.079" height="43.194" style="fill:#4870a1;"/>
    <rect x="25.218" y="118.847" width="178.079" height="43.194" style="fill:#4870a1;"/>
    <rect x="304.167" y="118.847" width="178.079" height="43.194" style="fill:#fff;"/>
    <rect x="25.218" y="50.435" width="178.079" height="43.194" style="fill:#4870a1;"/>
    <path d="M397.248,466.143l3.86,-0l0,-10.129l0.177,-0c0.779,2.16 2.727,3.471 5.171,3.471c4.64,-0 7.331,-3.577 7.331,-9.634c0,-6.056 -2.691,-9.633 -7.331,-9.633c-2.444,-0 -4.392,1.275 -5.171,3.471l-0.177,-0l0,-3.046l-3.86,-0l-0,25.5Zm8.039,-9.988c-2.337,0 -4.179,-1.275 -4.179,-3.152l0,-6.304c0,-1.877 1.842,-3.152 4.179,-3.152c2.656,0 4.427,1.877 4.427,4.711l0,3.187c0,2.833 -1.771,4.71 -4.427,4.71Z" style="fill:#28424c;fill-rule:nonzero;"/>
    <path d="M422.075,459.06l-0,-11.759c-0,-1.912 1.7,-2.939 4.746,-2.939l1.522,-0l0,-3.719l-1.027,-0c-2.939,-0 -4.533,1.665 -5.064,3.542l-0.177,-0l-0,-3.542l-3.861,-0l0,18.417l3.861,-0Z" style="fill:#28424c;fill-rule:nonzero;"/>
    <path d="M438.827,459.485c5.135,-0 8.464,-3.755 8.464,-9.634c0,-5.879 -3.329,-9.633 -8.464,-9.633c-5.136,-0 -8.465,3.754 -8.465,9.633c0,5.879 3.329,9.634 8.465,9.634Zm-0,-3.188c-2.621,0 -4.392,-1.629 -4.392,-4.887l0,-3.117c0,-3.258 1.771,-4.888 4.392,-4.888c2.621,0 4.391,1.63 4.391,4.888l0,3.117c0,3.258 -1.77,4.887 -4.391,4.887Z" style="fill:#28424c;fill-rule:nonzero;"/>
    <path d="M451.577,462.991l-2.869,-0l0,3.152l2.231,-0c3.117,-0 4.498,-1.771 4.498,-4.604l0,-20.896l-3.86,-0l-0,22.348Zm1.948,-25.642c1.593,0 2.266,-0.85 2.266,-2.019l0,-0.602c0,-1.168 -0.673,-2.018 -2.266,-2.018c-1.594,-0 -2.302,0.85 -2.302,2.018l-0,0.602c-0,1.169 0.708,2.019 2.302,2.019Z" style="fill:#28424c;fill-rule:nonzero;"/>
    <path d="M468.187,459.485c3.436,-0 6.127,-1.488 7.509,-3.719l-2.267,-2.231c-1.063,1.7 -2.586,2.762 -4.852,2.762c-3.117,0 -4.852,-2.019 -4.852,-4.852l-0,-0.602l12.643,-0l0,-1.452c0,-5.1 -2.762,-9.173 -8.181,-9.173c-5.241,-0 -8.464,3.754 -8.464,9.633c-0,5.879 3.223,9.634 8.464,9.634Zm0,-16.257c2.55,0 4.109,1.877 4.109,4.711l-0,0.354l-8.571,-0l-0,-0.248c-0,-2.833 1.806,-4.817 4.462,-4.817Z" style="fill:#28424c;fill-rule:nonzero;"/>
    <path d="M487.773,459.485c3.541,-0 6.056,-1.665 7.26,-4.675l-2.94,-1.559c-0.779,1.842 -2.089,3.046 -4.32,3.046c-2.834,0 -4.286,-1.948 -4.286,-4.781l0,-3.294c0,-2.833 1.452,-4.781 4.286,-4.781c2.089,-0 3.4,1.098 3.931,2.798l3.187,-1.488c-1.098,-2.727 -3.435,-4.533 -7.118,-4.533c-5.313,-0 -8.359,3.754 -8.359,9.633c0,5.879 3.046,9.634 8.359,9.634Z" style="fill:#28424c;fill-rule:nonzero;"/>
    <path d="M507.181,459.06l-0,-3.152l-3.577,-0l-0,-12.113l3.86,0l0,-3.152l-3.86,-0l-0,-5.029l-3.471,-0l0,3.223c0,1.275 -0.425,1.806 -1.7,1.806l-1.558,-0l-0,3.152l2.868,0l0,11.263c0,2.514 1.417,4.002 4.073,4.002l3.365,-0Z" style="fill:#28424c;fill-rule:nonzero;"/>
    <path d="M111.427,458.918l3.86,-0l0,-26.208l-3.86,-0l0,10.837l-0.177,0c-0.779,-2.196 -2.727,-3.471 -5.171,-3.471c-4.639,0 -7.331,3.577 -7.331,9.634c-0,6.056 2.692,9.633 7.331,9.633c2.444,-0 4.392,-1.31 5.171,-3.471l0.177,0l0,3.046Zm-4.179,-2.904c-2.656,-0 -4.427,-1.877 -4.427,-4.711l-0,-3.187c-0,-2.833 1.771,-4.711 4.427,-4.711c2.337,0 4.179,1.275 4.179,3.153l0,6.304c0,1.877 -1.842,3.152 -4.179,3.152Z" style="fill:#28424c;fill-rule:nonzero;"/>
    <path d="M128.037,459.343c3.436,-0 6.128,-1.488 7.509,-3.719l-2.267,-2.231c-1.062,1.7 -2.585,2.762 -4.852,2.762c-3.117,0 -4.852,-2.018 -4.852,-4.852l-0,-0.602l12.644,0l-0,-1.452c-0,-5.1 -2.763,-9.173 -8.182,-9.173c-5.241,0 -8.464,3.754 -8.464,9.634c-0,5.879 3.223,9.633 8.464,9.633Zm0,-16.256c2.55,-0 4.109,1.877 4.109,4.71l-0,0.354l-8.571,0l-0,-0.248c-0,-2.833 1.806,-4.816 4.462,-4.816Z" style="fill:#28424c;fill-rule:nonzero;"/>
    <path d="M141.46,458.918l3.861,-0l-0,-15.265l3.86,0l0,-3.152l-3.86,0l-0,-4.639l3.86,-0l0,-3.152l-3.046,-0c-3.081,-0 -4.675,1.77 -4.675,4.745l0,3.046l-2.798,0l0,3.152l2.798,0l0,15.265Z" style="fill:#28424c;fill-rule:nonzero;"/>
    <path d="M168.2,458.918l-0,-3.152l-1.948,-0l0,-9.244c0,-4.108 -2.656,-6.446 -7.402,-6.446c-3.577,0 -5.738,1.523 -6.942,3.577l2.302,2.09c0.921,-1.452 2.232,-2.515 4.392,-2.515c2.585,0 3.79,1.311 3.79,3.542l-0,1.558l-3.33,0c-5.135,0 -7.862,1.877 -7.862,5.525c-0,3.33 2.16,5.49 5.95,5.49c2.692,-0 4.675,-1.204 5.383,-3.506l0.177,-0c0.248,1.806 1.311,3.081 3.33,3.081l2.16,-0Zm-9.952,-2.515c-1.913,0 -3.117,-0.85 -3.117,-2.479l0,-0.637c0,-1.594 1.311,-2.479 4.002,-2.479l3.259,-0l-0,2.656c-0,1.806 -1.771,2.939 -4.144,2.939Z" style="fill:#28424c;fill-rule:nonzero;"/>
    <path d="M183.146,458.918l3.86,-0l0,-18.417l-3.86,0l-0,12.325c-0,2.161 -1.948,3.188 -3.931,3.188c-2.373,-0 -3.542,-1.488 -3.542,-4.286l-0,-11.227l-3.861,0l0,11.723c0,4.534 2.232,7.119 6.021,7.119c3.046,-0 4.498,-1.665 5.171,-3.471l0.142,0l-0,3.046Z" style="fill:#28424c;fill-rule:nonzero;"/>
    <path d="M198.942,458.918l-0,-3.152l-2.55,-0l-0,-23.056l-3.861,-0l0,22.383c0,2.373 1.311,3.825 3.931,3.825l2.48,-0Z" style="fill:#28424c;fill-rule:nonzero;"/>
    <path d="M210.912,458.918l0,-3.152l-3.577,-0l0,-12.113l3.861,0l-0,-3.152l-3.861,0l0,-5.029l-3.47,0l-0,3.223c-0,1.275 -0.425,1.806 -1.7,1.806l-1.559,0l0,3.152l2.869,0l-0,11.263c-0,2.514 1.417,4.002 4.073,4.002l3.364,-0Z" style="fill:#28424c;fill-rule:nonzero;"/>
    <path d="M221.219,459.343c4.427,-0 7.296,-2.373 7.296,-5.915c-0,-2.975 -1.807,-4.745 -5.844,-5.348l-1.7,-0.212c-1.948,-0.319 -2.834,-0.956 -2.834,-2.373c0,-1.381 0.992,-2.302 3.117,-2.302c1.983,-0 3.542,0.956 4.498,2.09l2.373,-2.267c-1.665,-1.842 -3.542,-2.94 -6.871,-2.94c-4.037,0 -6.835,2.09 -6.835,5.667c-0,3.4 2.302,5.029 6.056,5.49l1.7,0.212c1.912,0.248 2.621,1.133 2.621,2.302c-0,1.558 -1.134,2.479 -3.365,2.479c-2.196,0 -3.86,-0.991 -5.206,-2.621l-2.479,2.267c1.735,2.161 4.002,3.471 7.473,3.471Z" style="fill:#28424c;fill-rule:nonzero;"/>
</svg>
