<?xml version="1.0" encoding="UTF-8" standalone="no"?>
<!DOCTYPE svg PUBLIC "-//W3C//DTD SVG 1.1//EN" "http://www.w3.org/Graphics/SVG/1.1/DTD/svg11.dtd">
<svg width="100%" height="100%" viewBox="0 0 609 382" version="1.1" xmlns="http://www.w3.org/2000/svg" xmlns:xlink="http://www.w3.org/1999/xlink" xml:space="preserve" xmlns:serif="http://www.serif.com/" style="fill-rule:evenodd;clip-rule:evenodd;stroke-linejoin:round;stroke-miterlimit:1.5;">
    <g transform="matrix(1,0,0,1,-67.8235,-3807.33)">
        <g transform="matrix(1.21154,0,0,1.18919,0,3475.55)">
            <g transform="matrix(1.38866,0,0,1.73331,-42.0271,-227.292)">
                <rect x="70.578" y="292.091" width="164.917" height="164.917" style="fill:#fff;"/>
            </g>
        </g>
        <g transform="matrix(1.21154,0,0,1.18919,0,3475.55)">
            <g transform="matrix(1.05838,0,0,1.07828,307.859,49.9207)">
                <rect x="70.578" y="292.091" width="164.917" height="164.917" style="fill:#6598aa;"/>
            </g>
        </g>
        <g transform="matrix(1.21154,0,0,1.18919,0,3475.55)">
            <g transform="matrix(1.05838,0,0,1.07828,8.51651,49.9207)">
                <rect x="70.578" y="292.091" width="164.917" height="164.917" style="fill:#6598aa;"/>
                <path d="M70.578,443.994l-0,13.014l1.608,-0l0,-3.266l3.266,3.266l0,-13.014l-4.874,-0Zm25.979,13.014l0,-4.874l-14.622,-0l-0,4.874l14.622,-0Zm24.371,-0l-0,-4.874l-14.623,-0l0,4.874l14.623,-0Zm24.37,-0l0,-4.874l-14.622,-0l-0,4.874l14.622,-0Zm24.371,-0l0,-4.874l-14.622,-0l-0,4.874l14.622,-0Zm24.371,-0l0,-4.874l-14.622,-0l-0,4.874l14.622,-0Zm24.371,-0l-0,-4.874l-14.623,-0l0,4.874l14.623,-0Zm17.084,-0l-0,-7.287l-4.875,-0l0,2.413c0,-0 -2.461,-0 -2.461,-0l0,4.874l7.336,-0Zm-0,-31.658l-4.875,-0l0,14.622l4.875,0l-0,-14.622Zm-164.917,-5.727l-0,14.623l4.874,-0l0,-14.623l-4.874,0Zm164.917,-18.644l-4.875,-0l0,14.622l4.875,0l-0,-14.622Zm-164.917,-5.727l-0,14.623l4.874,-0l0,-14.623l-4.874,0Zm164.917,-18.644l-4.875,0l0,14.623l4.875,-0l-0,-14.623Zm-164.917,-5.726l-0,14.622l4.874,0l0,-14.622l-4.874,-0Zm164.917,-18.644l-4.875,-0l0,14.622l4.875,-0l-0,-14.622Zm-164.917,-5.727l-0,14.622l4.874,0l0,-14.622l-4.874,0Zm164.917,-18.644l-4.875,-0l0,14.622l4.875,0l-0,-14.622Zm-164.917,-5.727l-0,14.623l4.874,-0l0,-14.623l-4.874,0Zm164.917,-18.644l-4.875,-0l0,14.622l4.875,0l-0,-14.622Zm-164.917,-5.726l-0,14.622l4.874,-0l0,-14.622l-4.874,-0Zm164.917,-5.679c-0,0 -14.623,0 -14.623,0l0,4.874l14.623,0l-0,-4.874Zm-121.854,0l-14.623,0l0,4.874l14.623,0l-0,-4.874Zm-24.371,0l-14.622,0l-0,4.874l14.622,0l0,-4.874Zm121.854,0l-14.623,0l0,4.874l14.623,0l-0,-4.874Zm-24.371,0l-14.622,0l-0,4.874l14.622,0l0,-4.874Zm-24.371,0l-14.622,0l-0,4.874c4.872,0 9.769,0 14.622,0l0,-4.874Zm-24.37,0l-14.623,0l0,4.874l14.623,0l-0,-4.874Z" style="fill:#192a30;"/>
            </g>
        </g>
        <g transform="matrix(1.21154,0,0,1.18919,0,3475.55)">
            <g transform="matrix(1.05838,0,0,0.25635,8.51651,232.48)">
                <rect x="70.578" y="292.091" width="164.917" height="164.917" style="fill:#6598aa;"/>
            </g>
        </g>
        <g transform="matrix(1.21154,0,0,1.18919,0,3475.55)">
            <g transform="matrix(1.15651,0,0,1.17824,-107.895,-46.6709)">
                <g transform="matrix(25.2768,0,0,25.2768,228.439,548.598)">
                    <path d="M0.405,-0l0.109,-0l0,-0.74l-0.109,0l0,0.306l-0.005,0c-0.022,-0.062 -0.077,-0.098 -0.146,-0.098c-0.131,0 -0.207,0.101 -0.207,0.272c0,0.171 0.076,0.272 0.207,0.272c0.069,-0 0.124,-0.037 0.146,-0.098l0.005,-0l0,0.086Zm-0.118,-0.082c-0.075,-0 -0.125,-0.053 -0.125,-0.133l-0,-0.09c-0,-0.08 0.05,-0.133 0.125,-0.133c0.066,0 0.118,0.036 0.118,0.089l0,0.178c0,0.053 -0.052,0.089 -0.118,0.089Z" style="fill:#192a30;fill-rule:nonzero;"/>
                </g>
                <g transform="matrix(25.2768,0,0,25.2768,243.403,548.598)">
                    <path d="M0.282,0.012c0.097,0 0.173,-0.042 0.212,-0.105l-0.064,-0.063c-0.03,0.048 -0.073,0.078 -0.137,0.078c-0.088,0 -0.137,-0.057 -0.137,-0.137l0,-0.017l0.357,0l0,-0.041c0,-0.144 -0.078,-0.259 -0.231,-0.259c-0.148,0 -0.239,0.106 -0.239,0.272c0,0.166 0.091,0.272 0.239,0.272Zm0,-0.459c0.072,0 0.116,0.053 0.116,0.133l0,0.01l-0.242,0l0,-0.007c0,-0.08 0.051,-0.136 0.126,-0.136Z" style="fill:#192a30;fill-rule:nonzero;"/>
                </g>
                <g transform="matrix(25.2768,0,0,25.2768,257.457,548.598)">
                    <path d="M0.279,0.012c0.1,0 0.171,-0.047 0.205,-0.132l-0.083,-0.044c-0.022,0.052 -0.059,0.086 -0.122,0.086c-0.08,0 -0.121,-0.055 -0.121,-0.135l-0,-0.093c-0,-0.08 0.041,-0.135 0.121,-0.135c0.059,0 0.096,0.031 0.111,0.079l0.09,-0.042c-0.031,-0.077 -0.097,-0.128 -0.201,-0.128c-0.15,0 -0.236,0.106 -0.236,0.272c0,0.166 0.086,0.272 0.236,0.272Z" style="fill:#192a30;fill-rule:nonzero;"/>
                </g>
                <g transform="matrix(25.2768,0,0,25.2768,270.197,548.598)">
                    <path d="M0.282,0.012c0.145,0 0.239,-0.106 0.239,-0.272c0,-0.166 -0.094,-0.272 -0.239,-0.272c-0.145,0 -0.239,0.106 -0.239,0.272c-0,0.166 0.094,0.272 0.239,0.272Zm0,-0.09c-0.074,-0 -0.124,-0.046 -0.124,-0.138l-0,-0.088c-0,-0.092 0.05,-0.138 0.124,-0.138c0.074,0 0.124,0.046 0.124,0.138l0,0.088c0,0.092 -0.05,0.138 -0.124,0.138Z" style="fill:#192a30;fill-rule:nonzero;"/>
                </g>
                <g transform="matrix(25.2768,0,0,25.2768,284.453,548.598)">
                    <path d="M0.187,-0l0,-0.332c0,-0.054 0.048,-0.083 0.134,-0.083l0.043,0l0,-0.105l-0.029,0c-0.083,0 -0.128,0.047 -0.143,0.1l-0.005,0l0,-0.1l-0.109,0l0,0.52l0.109,-0Z" style="fill:#192a30;fill-rule:nonzero;"/>
                </g>
                <g transform="matrix(25.2768,0,0,25.2768,293.932,548.598)">
                    <path d="M0.52,-0l0,-0.089l-0.055,0l0,-0.261c0,-0.116 -0.075,-0.182 -0.209,-0.182c-0.101,0 -0.162,0.043 -0.196,0.101l0.065,0.059c0.026,-0.041 0.063,-0.071 0.124,-0.071c0.073,0 0.107,0.037 0.107,0.1l0,0.044l-0.094,0c-0.145,0 -0.222,0.053 -0.222,0.156c-0,0.094 0.061,0.155 0.168,0.155c0.076,0 0.132,-0.034 0.152,-0.099l0.005,0c0.007,0.051 0.037,0.087 0.094,0.087l0.061,0Zm-0.281,-0.071c-0.054,0 -0.088,-0.024 -0.088,-0.07l0,-0.018c0,-0.045 0.037,-0.07 0.113,-0.07l0.092,0l0,0.075c0,0.051 -0.05,0.083 -0.117,0.083Z" style="fill:#192a30;fill-rule:nonzero;"/>
                </g>
                <g transform="matrix(25.2768,0,0,25.2768,307.733,548.598)">
                    <path d="M0.317,-0l0,-0.089l-0.101,0l0,-0.342l0.109,0l0,-0.089l-0.109,0l-0,-0.142l-0.098,0l-0,0.091c-0,0.036 -0.012,0.051 -0.048,0.051l-0.044,0l-0,0.089l0.081,0l-0,0.318c-0,0.071 0.04,0.113 0.115,0.113l0.095,0Z" style="fill:#192a30;fill-rule:nonzero;"/>
                </g>
                <g transform="matrix(25.2768,0,0,25.2768,316.858,548.598)">
                    <path d="M0.282,0.012c0.145,0 0.239,-0.106 0.239,-0.272c0,-0.166 -0.094,-0.272 -0.239,-0.272c-0.145,0 -0.239,0.106 -0.239,0.272c-0,0.166 0.094,0.272 0.239,0.272Zm0,-0.09c-0.074,-0 -0.124,-0.046 -0.124,-0.138l-0,-0.088c-0,-0.092 0.05,-0.138 0.124,-0.138c0.074,0 0.124,0.046 0.124,0.138l0,0.088c0,0.092 -0.05,0.138 -0.124,0.138Z" style="fill:#192a30;fill-rule:nonzero;"/>
                </g>
                <g transform="matrix(25.2768,0,0,25.2768,331.114,548.598)">
                    <path d="M0.187,-0l0,-0.332c0,-0.054 0.048,-0.083 0.134,-0.083l0.043,0l0,-0.105l-0.029,0c-0.083,0 -0.128,0.047 -0.143,0.1l-0.005,0l0,-0.1l-0.109,0l0,0.52l0.109,-0Z" style="fill:#192a30;fill-rule:nonzero;"/>
                </g>
            </g>
        </g>
        <g transform="matrix(1.21154,0,0,1.18919,0,3475.55)">
            <g transform="matrix(1.15651,0,0,1.17824,219.38,-68.683)">
                <g transform="matrix(25.2768,0,0,25.2768,206.97,548.598)">
                    <path d="M0.282,0.012c0.145,0 0.239,-0.106 0.239,-0.272c0,-0.166 -0.094,-0.272 -0.239,-0.272c-0.145,0 -0.239,0.106 -0.239,0.272c-0,0.166 0.094,0.272 0.239,0.272Zm0,-0.09c-0.074,-0 -0.124,-0.046 -0.124,-0.138l-0,-0.088c-0,-0.092 0.05,-0.138 0.124,-0.138c0.074,0 0.124,0.046 0.124,0.138l0,0.088c0,0.092 -0.05,0.138 -0.124,0.138Z" style="fill:#192a30;fill-rule:nonzero;"/>
                </g>
                <g transform="matrix(25.2768,0,0,25.2768,221.226,548.598)">
                    <path d="M0.187,-0l0,-0.332c0,-0.054 0.048,-0.083 0.134,-0.083l0.043,0l0,-0.105l-0.029,0c-0.083,0 -0.128,0.047 -0.143,0.1l-0.005,0l0,-0.1l-0.109,0l0,0.52l0.109,-0Z" style="fill:#192a30;fill-rule:nonzero;"/>
                </g>
                <g transform="matrix(25.2768,0,0,25.2768,230.907,548.598)">
                    <path d="M0.133,-0.613c0.045,0 0.064,-0.024 0.064,-0.057l0,-0.017c0,-0.033 -0.019,-0.057 -0.064,-0.057c-0.045,0 -0.065,0.024 -0.065,0.057l0,0.017c0,0.033 0.02,0.057 0.065,0.057Zm-0.055,0.613l0.109,-0l0,-0.52l-0.109,0l0,0.52Z" style="fill:#192a30;fill-rule:nonzero;"/>
                </g>
                <g transform="matrix(25.2768,0,0,25.2768,237.605,548.598)">
                    <path d="M0.534,0.049c0,-0.09 -0.054,-0.144 -0.182,-0.144l-0.128,0c-0.046,0 -0.073,-0.011 -0.073,-0.039c-0,-0.026 0.024,-0.043 0.05,-0.052c0.019,0.005 0.043,0.008 0.068,0.008c0.132,0 0.208,-0.071 0.208,-0.176c0,-0.06 -0.026,-0.11 -0.073,-0.141l0,-0.021l0.106,0l0,-0.088l-0.08,0c-0.046,0 -0.068,0.028 -0.068,0.074l0,0.014c-0.027,-0.011 -0.059,-0.016 -0.094,-0.016c-0.132,0 -0.207,0.072 -0.207,0.178c0,0.07 0.034,0.125 0.095,0.154l0,0.004c-0.05,0.012 -0.092,0.038 -0.092,0.092c0,0.039 0.021,0.068 0.059,0.08l0,0.011c-0.055,0.012 -0.089,0.043 -0.089,0.1c0,0.079 0.066,0.125 0.236,0.125c0.187,0 0.264,-0.055 0.264,-0.163Zm-0.102,0.012c-0,0.048 -0.042,0.072 -0.127,0.072l-0.068,0c-0.081,0 -0.112,-0.029 -0.112,-0.071c-0,-0.025 0.012,-0.046 0.036,-0.06l0.176,0c0.071,0 0.095,0.023 0.095,0.059Zm-0.163,-0.318c-0.064,0 -0.101,-0.029 -0.101,-0.088l0,-0.02c0,-0.059 0.037,-0.088 0.101,-0.088c0.064,0 0.101,0.029 0.101,0.088l0,0.02c0,0.059 -0.037,0.088 -0.101,0.088Z" style="fill:#192a30;fill-rule:nonzero;"/>
                </g>
                <g transform="matrix(25.2768,0,0,25.2768,251.179,548.598)">
                    <path d="M0.133,-0.613c0.045,0 0.064,-0.024 0.064,-0.057l0,-0.017c0,-0.033 -0.019,-0.057 -0.064,-0.057c-0.045,0 -0.065,0.024 -0.065,0.057l0,0.017c0,0.033 0.02,0.057 0.065,0.057Zm-0.055,0.613l0.109,-0l0,-0.52l-0.109,0l0,0.52Z" style="fill:#192a30;fill-rule:nonzero;"/>
                </g>
                <g transform="matrix(25.2768,0,0,25.2768,257.877,548.598)">
                    <path d="M0.187,-0l0,-0.348c0,-0.061 0.056,-0.09 0.113,-0.09c0.067,0 0.098,0.041 0.098,0.122l0,0.316l0.109,0l0,-0.33c0,-0.128 -0.063,-0.202 -0.169,-0.202c-0.08,0 -0.124,0.042 -0.146,0.098l-0.005,0l0,-0.086l-0.109,0l0,0.52l0.109,-0Z" style="fill:#192a30;fill-rule:nonzero;"/>
                </g>
                <g transform="matrix(25.2768,0,0,25.2768,272.538,548.598)">
                    <path d="M0.52,-0l0,-0.089l-0.055,0l0,-0.261c0,-0.116 -0.075,-0.182 -0.209,-0.182c-0.101,0 -0.162,0.043 -0.196,0.101l0.065,0.059c0.026,-0.041 0.063,-0.071 0.124,-0.071c0.073,0 0.107,0.037 0.107,0.1l0,0.044l-0.094,0c-0.145,0 -0.222,0.053 -0.222,0.156c-0,0.094 0.061,0.155 0.168,0.155c0.076,0 0.132,-0.034 0.152,-0.099l0.005,0c0.007,0.051 0.037,0.087 0.094,0.087l0.061,0Zm-0.281,-0.071c-0.054,0 -0.088,-0.024 -0.088,-0.07l0,-0.018c0,-0.045 0.037,-0.07 0.113,-0.07l0.092,0l0,0.075c0,0.051 -0.05,0.083 -0.117,0.083Z" style="fill:#192a30;fill-rule:nonzero;"/>
                </g>
                <g transform="matrix(25.2768,0,0,25.2768,286.415,548.598)">
                    <path d="M0.259,-0l0,-0.089l-0.072,0l0,-0.651l-0.109,0l0,0.632c0,0.067 0.037,0.108 0.111,0.108l0.07,-0Z" style="fill:#192a30;fill-rule:nonzero;"/>
                </g>
            </g>
        </g>
        <g transform="matrix(1.21154,0,0,1.18919,0,3475.55)">
            <g transform="matrix(0.696219,0,0,1.17824,-1308.35,136.887)">
                <g transform="matrix(1.18554,-0,-0,0.713698,1959.62,120.609)">
                    <path d="M372.222,219.583l23.438,-11.718l-23.438,-11.719l0,23.437Z" style="fill:#192a30;"/>
                    <path d="M376.91,207.865l-132.447,-0" style="fill:none;stroke:#192a30;stroke-width:6.25px;stroke-dasharray:18.75,12.5,0,0;"/>
                </g>
            </g>
        </g>
    </g>
</svg>
