<?xml version="1.0" encoding="UTF-8" standalone="no"?>
<!DOCTYPE svg PUBLIC "-//W3C//DTD SVG 1.1//EN" "http://www.w3.org/Graphics/SVG/1.1/DTD/svg11.dtd">
<!--Copyright 2021 Tom Rothe-->
<svg width="100%" height="100%" viewBox="0 0 544 454" version="1.1" xmlns="http://www.w3.org/2000/svg" xmlns:xlink="http://www.w3.org/1999/xlink" xml:space="preserve" xmlns:serif="http://www.serif.com/" style="fill-rule:evenodd;clip-rule:evenodd;stroke-linejoin:round;stroke-miterlimit:1.5;">
    <rect x="0" y="-0" width="298.533" height="412.229" style="fill:#7d9bbf;"/>
    <rect x="53.976" y="312.027" width="190.581" height="46.226" style="fill:#fff;"/>
    <rect x="53.976" y="53.976" width="190.581" height="190.581" style="fill:#fff;"/>
    <rect x="352.975" y="221.648" width="190.581" height="190.581" style="fill:#7d9bbf;"/>
    <path d="M160.985,288.589l-11.719,23.438l-11.718,-23.438l23.437,0Z" style="fill:#2d4765;"/>
    <path d="M149.266,244.557l0,48.72" style="fill:none;stroke:#2d4765;stroke-width:6.25px;"/>
    <path d="M267.769,323.421l-17.578,11.719l17.578,11.719l-0,-23.438Z" style="fill:none;stroke:#2d4765;stroke-width:6.25px;stroke-linejoin:miter;stroke-miterlimit:10;"/>
    <path d="M267.769,335.14l84.74,-0" style="fill:none;stroke:#2d4765;stroke-width:6.25px;"/>
    <path d="M377.062,453.437l0,-3.152l-2.55,0l0,-23.056l-3.86,-0l0,22.383c0,2.373 1.31,3.825 3.931,3.825l2.479,0Z" style="fill:#28424c;fill-rule:nonzero;"/>
    <path d="M387.971,453.862c5.135,0 8.464,-3.754 8.464,-9.633c0,-5.879 -3.329,-9.633 -8.464,-9.633c-5.136,-0 -8.465,3.754 -8.465,9.633c0,5.879 3.329,9.633 8.465,9.633Zm-0,-3.187c-2.621,-0 -4.392,-1.629 -4.392,-4.888l0,-3.116c0,-3.259 1.771,-4.888 4.392,-4.888c2.621,0 4.391,1.629 4.391,4.888l0,3.116c0,3.259 -1.77,4.888 -4.391,4.888Z" style="fill:#28424c;fill-rule:nonzero;"/>
    <path d="M403.66,453.437l4.25,0l2.444,-8.394l1.452,-5.17l0.071,-0l1.488,5.17l2.408,8.394l4.356,0l4.958,-18.416l-3.577,-0l-1.912,7.72l-1.629,6.977l-0.107,0l-1.947,-6.977l-2.267,-7.72l-3.471,-0l-2.231,7.72l-1.913,6.977l-0.106,0l-1.665,-6.977l-1.877,-7.72l-3.754,-0l5.029,18.416Z" style="fill:#28424c;fill-rule:nonzero;"/>
    <path d="M435.748,453.862c3.435,0 6.127,-1.487 7.508,-3.719l-2.266,-2.231c-1.063,1.7 -2.586,2.763 -4.853,2.763c-3.116,-0 -4.852,-2.019 -4.852,-4.852l0,-0.602l12.644,-0l0,-1.453c0,-5.1 -2.762,-9.172 -8.181,-9.172c-5.242,-0 -8.465,3.754 -8.465,9.633c0,5.879 3.223,9.633 8.465,9.633Zm-0,-16.256c2.55,-0 4.108,1.877 4.108,4.71l0,0.355l-8.571,-0l0,-0.248c0,-2.834 1.807,-4.817 4.463,-4.817Z" style="fill:#28424c;fill-rule:nonzero;"/>
    <path d="M452.075,453.437l-0,-11.758c-0,-1.913 1.7,-2.94 4.746,-2.94l1.523,0l-0,-3.718l-1.027,-0c-2.94,-0 -4.534,1.664 -5.065,3.541l-0.177,0l-0,-3.541l-3.86,-0l-0,18.416l3.86,0Z" style="fill:#28424c;fill-rule:nonzero;"/>
    <path d="M476.548,453.437l-0,-3.152l-2.55,0l-0,-23.056l-3.861,-0l0,22.383c0,2.373 1.311,3.825 3.932,3.825l2.479,0Z" style="fill:#28424c;fill-rule:nonzero;"/>
    <path d="M487.456,453.862c3.436,0 6.127,-1.487 7.509,-3.719l-2.267,-2.231c-1.063,1.7 -2.586,2.763 -4.852,2.763c-3.117,-0 -4.852,-2.019 -4.852,-4.852l-0,-0.602l12.643,-0l0,-1.453c0,-5.1 -2.762,-9.172 -8.181,-9.172c-5.241,-0 -8.464,3.754 -8.464,9.633c-0,5.879 3.223,9.633 8.464,9.633Zm0,-16.256c2.55,-0 4.109,1.877 4.109,4.71l-0,0.355l-8.571,-0l-0,-0.248c-0,-2.834 1.806,-4.817 4.462,-4.817Z" style="fill:#28424c;fill-rule:nonzero;"/>
    <path d="M508.14,453.437l6.339,-18.416l-3.683,-0l-2.869,8.393l-1.877,6.446l-0.213,0l-1.877,-6.446l-2.798,-8.393l-3.825,-0l6.269,18.416l4.534,0Z" style="fill:#28424c;fill-rule:nonzero;"/>
    <path d="M524.679,453.862c3.436,0 6.127,-1.487 7.508,-3.719l-2.266,-2.231c-1.063,1.7 -2.586,2.763 -4.852,2.763c-3.117,-0 -4.852,-2.019 -4.852,-4.852l-0,-0.602l12.643,-0l0,-1.453c0,-5.1 -2.762,-9.172 -8.181,-9.172c-5.242,-0 -8.464,3.754 -8.464,9.633c-0,5.879 3.222,9.633 8.464,9.633Zm0,-16.256c2.55,-0 4.108,1.877 4.108,4.71l0,0.355l-8.57,-0l-0,-0.248c-0,-2.834 1.806,-4.817 4.462,-4.817Z" style="fill:#28424c;fill-rule:nonzero;"/>
    <path d="M543.556,453.437l0,-3.152l-2.55,0l0,-23.056l-3.86,-0l-0,22.383c-0,2.373 1.31,3.825 3.931,3.825l2.479,0Z" style="fill:#28424c;fill-rule:nonzero;"/>
    <path d="M126.089,453.437l3.861,0l-0,-15.264l3.86,-0l-0,-3.152l-3.86,-0l-0,-4.64l3.86,-0l-0,-3.152l-3.046,-0c-3.081,-0 -4.675,1.771 -4.675,4.746l0,3.046l-2.798,-0l0,3.152l2.798,-0l0,15.264Z" style="fill:#28424c;fill-rule:nonzero;"/>
    <path d="M141.035,453.437l-0,-11.758c-0,-1.913 1.7,-2.94 4.746,-2.94l1.523,0l-0,-3.718l-1.027,-0c-2.94,-0 -4.534,1.664 -5.065,3.541l-0.177,0l-0,-3.541l-3.86,-0l-0,18.416l3.86,0Z" style="fill:#28424c;fill-rule:nonzero;"/>
    <path d="M166.11,453.437l-0,-3.152l-1.948,0l0,-9.244c0,-4.108 -2.656,-6.445 -7.402,-6.445c-3.577,-0 -5.738,1.522 -6.942,3.577l2.302,2.089c0.921,-1.452 2.232,-2.514 4.392,-2.514c2.585,-0 3.79,1.31 3.79,3.541l-0,1.559l-3.33,-0c-5.135,-0 -7.862,1.877 -7.862,5.525c-0,3.329 2.16,5.489 5.95,5.489c2.692,0 4.675,-1.204 5.383,-3.506l0.177,-0c0.248,1.806 1.311,3.081 3.33,3.081l2.16,0Zm-9.952,-2.514c-1.913,-0 -3.117,-0.85 -3.117,-2.48l0,-0.637c0,-1.594 1.311,-2.479 4.002,-2.479l3.259,-0l-0,2.656c-0,1.806 -1.771,2.94 -4.144,2.94Z" style="fill:#28424c;fill-rule:nonzero;"/>
    <path d="M173.76,453.437l-0,-12.36c-0,-2.125 1.877,-3.152 3.79,-3.152c2.266,-0 3.364,1.416 3.364,4.285l0,11.227l3.861,0l-0,-12.36c-0,-2.125 1.806,-3.152 3.754,-3.152c2.337,-0 3.4,1.452 3.4,4.285l-0,11.227l3.86,0l0,-11.687c0,-4.534 -2.16,-7.154 -5.808,-7.154c-2.975,-0 -4.888,1.7 -5.561,3.754l-0.106,-0c-0.885,-2.55 -2.975,-3.754 -5.454,-3.754c-2.798,-0 -4.179,1.558 -4.923,3.47l-0.177,0l-0,-3.045l-3.86,-0l-0,18.416l3.86,0Z" style="fill:#28424c;fill-rule:nonzero;"/>
    <path d="M208.362,453.862c3.435,0 6.127,-1.487 7.508,-3.719l-2.266,-2.231c-1.063,1.7 -2.586,2.763 -4.852,2.763c-3.117,-0 -4.852,-2.019 -4.852,-4.852l-0,-0.602l12.643,-0l0,-1.453c0,-5.1 -2.762,-9.172 -8.181,-9.172c-5.242,-0 -8.465,3.754 -8.465,9.633c0,5.879 3.223,9.633 8.465,9.633Zm0,-16.256c2.55,-0 4.108,1.877 4.108,4.71l0,0.355l-8.57,-0l-0,-0.248c-0,-2.834 1.806,-4.817 4.462,-4.817Z" style="fill:#28424c;fill-rule:nonzero;"/>
    <path d="M223.839,453.437l4.25,0l2.444,-8.394l1.452,-5.17l0.071,-0l1.487,5.17l2.409,8.394l4.356,0l4.958,-18.416l-3.577,-0l-1.912,7.72l-1.63,6.977l-0.106,0l-1.948,-6.977l-2.266,-7.72l-3.471,-0l-2.231,7.72l-1.913,6.977l-0.106,0l-1.665,-6.977l-1.877,-7.72l-3.754,-0l5.029,18.416Z" style="fill:#28424c;fill-rule:nonzero;"/>
    <path d="M255.927,453.862c5.135,0 8.464,-3.754 8.464,-9.633c0,-5.879 -3.329,-9.633 -8.464,-9.633c-5.136,-0 -8.465,3.754 -8.465,9.633c0,5.879 3.329,9.633 8.465,9.633Zm-0,-3.187c-2.621,-0 -4.392,-1.629 -4.392,-4.888l-0,-3.116c-0,-3.259 1.771,-4.888 4.392,-4.888c2.62,0 4.391,1.629 4.391,4.888l0,3.116c0,3.259 -1.771,4.888 -4.391,4.888Z" style="fill:#28424c;fill-rule:nonzero;"/>
    <path d="M272.537,453.437l0,-11.758c0,-1.913 1.7,-2.94 4.746,-2.94l1.523,0l-0,-3.718l-1.027,-0c-2.94,-0 -4.534,1.664 -5.065,3.541l-0.177,0l0,-3.541l-3.86,-0l-0,18.416l3.86,0Z" style="fill:#28424c;fill-rule:nonzero;"/>
    <path d="M282.241,453.437l3.861,0l-0,-6.021l2.55,-2.762l5.277,8.783l4.604,0l-7.225,-11.298l6.446,-7.118l-4.498,-0l-4.427,4.993l-2.55,3.294l-0.177,0l-0,-16.079l-3.861,-0l0,26.208Z" style="fill:#28424c;fill-rule:nonzero;"/>
</svg>
