<?xml version="1.0" encoding="UTF-8" standalone="no"?>
<!DOCTYPE svg PUBLIC "-//W3C//DTD SVG 1.1//EN" "http://www.w3.org/Graphics/SVG/1.1/DTD/svg11.dtd">
<svg width="100%" height="100%" viewBox="0 0 549 501" version="1.1" xmlns="http://www.w3.org/2000/svg" xmlns:xlink="http://www.w3.org/1999/xlink" xml:space="preserve" xmlns:serif="http://www.serif.com/" style="fill-rule:evenodd;clip-rule:evenodd;stroke-linejoin:round;stroke-miterlimit:1.5;">
    <rect x="0" y="55.307" width="159.33" height="159.33" style="fill:#fff;"/>
    <rect x="0" y="290.011" width="159.33" height="159.33" style="fill:#7d9bbf;"/>
    <rect x="248.832" y="341.666" width="159.33" height="159.33" style="fill:#7d9bbf;"/>
    <rect x="389.612" y="0" width="159.33" height="159.33" style="fill:#7d9bbf;"/>
    <path d="M28.647,191.873c5.136,0 8.465,-3.754 8.465,-9.633c-0,-5.879 -3.329,-9.633 -8.465,-9.633c-5.135,-0 -8.464,3.754 -8.464,9.633c-0,5.879 3.329,9.633 8.464,9.633Zm0,-3.187c-2.62,-0 -4.391,-1.629 -4.391,-4.888l-0,-3.116c-0,-3.259 1.771,-4.888 4.391,-4.888c2.621,0 4.392,1.629 4.392,4.888l0,3.116c0,3.259 -1.771,4.888 -4.392,4.888Z" style="fill:#28424c;fill-rule:nonzero;"/>
    <path d="M45.258,191.448l-0,-11.758c-0,-1.912 1.7,-2.94 4.746,-2.94l1.523,0l-0,-3.718l-1.028,-0c-2.939,-0 -4.533,1.664 -5.064,3.541l-0.177,0l-0,-3.541l-3.861,-0l0,18.416l3.861,0Z" style="fill:#28424c;fill-rule:nonzero;"/>
    <path d="M56.91,169.738c1.594,-0 2.267,-0.85 2.267,-2.019l-0,-0.602c-0,-1.169 -0.673,-2.019 -2.267,-2.019c-1.594,0 -2.302,0.85 -2.302,2.019l-0,0.602c-0,1.169 0.708,2.019 2.302,2.019Zm-1.948,21.71l3.86,0l0,-18.416l-3.86,-0l-0,18.416Z" style="fill:#28424c;fill-rule:nonzero;"/>
    <path d="M80.497,193.184c0,-3.188 -1.912,-5.1 -6.445,-5.1l-4.534,-0c-1.629,-0 -2.585,-0.39 -2.585,-1.381c-0,-0.921 0.85,-1.523 1.771,-1.842c0.673,0.177 1.523,0.283 2.408,0.283c4.675,0 7.367,-2.514 7.367,-6.233c-0,-2.125 -0.921,-3.896 -2.586,-4.994l0,-0.744l3.754,0l0,-3.116l-2.833,-0c-1.629,-0 -2.408,0.991 -2.408,2.621l-0,0.495c-0.957,-0.389 -2.09,-0.566 -3.329,-0.566c-4.675,-0 -7.332,2.55 -7.332,6.304c0,2.479 1.204,4.427 3.365,5.454l-0,0.142c-1.771,0.425 -3.258,1.346 -3.258,3.258c-0,1.381 0.743,2.408 2.089,2.833l0,0.39c-1.948,0.425 -3.152,1.523 -3.152,3.542c0,2.798 2.338,4.427 8.358,4.427c6.623,-0 9.35,-1.948 9.35,-5.773Zm-3.612,0.425c-0,1.7 -1.488,2.55 -4.498,2.55l-2.408,-0c-2.869,-0 -3.967,-1.027 -3.967,-2.515c-0,-0.885 0.425,-1.629 1.275,-2.125l6.233,0c2.515,0 3.365,0.815 3.365,2.09Zm-5.773,-11.263c-2.267,0 -3.577,-1.027 -3.577,-3.116l-0,-0.709c-0,-2.089 1.31,-3.116 3.577,-3.116c2.267,-0 3.577,1.027 3.577,3.116l0,0.709c0,2.089 -1.31,3.116 -3.577,3.116Z" style="fill:#28424c;fill-rule:nonzero;"/>
    <path d="M85.314,169.738c1.594,-0 2.267,-0.85 2.267,-2.019l-0,-0.602c-0,-1.169 -0.673,-2.019 -2.267,-2.019c-1.594,0 -2.302,0.85 -2.302,2.019l-0,0.602c-0,1.169 0.708,2.019 2.302,2.019Zm-1.948,21.71l3.861,0l-0,-18.416l-3.861,-0l0,18.416Z" style="fill:#28424c;fill-rule:nonzero;"/>
    <path d="M96.612,191.448l-0,-12.325c-0,-2.16 1.983,-3.187 4.002,-3.187c2.373,-0 3.471,1.452 3.471,4.321l-0,11.191l3.86,0l0,-11.687c0,-4.533 -2.231,-7.154 -5.985,-7.154c-2.833,-0 -4.392,1.487 -5.171,3.471l-0.177,-0l-0,-3.046l-3.86,-0l-0,18.416l3.86,0Z" style="fill:#28424c;fill-rule:nonzero;"/>
    <path d="M128.947,191.448l0,-3.152l-1.948,0l0,-9.243c0,-4.109 -2.656,-6.446 -7.402,-6.446c-3.577,-0 -5.737,1.523 -6.941,3.577l2.302,2.089c0.921,-1.452 2.231,-2.514 4.391,-2.514c2.586,-0 3.79,1.31 3.79,3.541l0,1.559l-3.329,-0c-5.136,-0 -7.863,1.877 -7.863,5.525c0,3.329 2.161,5.489 5.95,5.489c2.692,0 4.675,-1.204 5.384,-3.506l0.177,0c0.248,1.806 1.31,3.081 3.329,3.081l2.16,0Zm-9.952,-2.514c-1.912,-0 -3.116,-0.85 -3.116,-2.479l-0,-0.638c-0,-1.594 1.31,-2.479 4.002,-2.479l3.258,-0l0,2.656c0,1.806 -1.771,2.94 -4.144,2.94Z" style="fill:#28424c;fill-rule:nonzero;"/>
    <path d="M139.147,191.448l0,-3.152l-2.55,0l0,-23.056l-3.86,0l-0,22.383c-0,2.373 1.31,3.825 3.931,3.825l2.479,0Z" style="fill:#28424c;fill-rule:nonzero;"/>
    <path d="M183.88,188.308l-23.437,-11.718l23.437,-11.719l0,23.437Z" style="fill:#2d4765;"/>
    <path d="M328.497,341.666l0,-145.961c0,-5.07 -2.014,-9.932 -5.598,-13.517c-3.585,-3.585 -8.447,-5.598 -13.517,-5.598c-32.463,-0 -97.976,-0 -130.189,-0" style="fill:none;stroke:#2d4765;stroke-width:6.25px;stroke-dasharray:18.75,12.5,0,0;"/>
    <path d="M183.88,91.384l-23.437,-11.719l23.437,-11.719l0,23.438Z" style="fill:#2d4765;"/>
    <path d="M389.612,79.665l-210.419,0" style="fill:none;stroke:#2d4765;stroke-width:6.25px;stroke-dasharray:18.75,12.5,0,0;"/>
    <path d="M67.946,238.075l11.719,-23.438l11.719,23.438l-23.438,-0Z" style="fill:#2d4765;"/>
    <path d="M79.665,290.011l0,-56.624" style="fill:none;stroke:#2d4765;stroke-width:6.25px;stroke-dasharray:18.75,12.5,0,0;"/>
</svg>
