<?xml version="1.0" encoding="UTF-8" standalone="no"?>
<!DOCTYPE svg PUBLIC "-//W3C//DTD SVG 1.1//EN" "http://www.w3.org/Graphics/SVG/1.1/DTD/svg11.dtd">
<svg width="100%" height="100%" viewBox="0 0 440 462" version="1.1" xmlns="http://www.w3.org/2000/svg" xmlns:xlink="http://www.w3.org/1999/xlink" xml:space="preserve" xmlns:serif="http://www.serif.com/" style="fill-rule:evenodd;clip-rule:evenodd;stroke-linejoin:round;stroke-miterlimit:1.5;">
    <rect x="228.071" y="160.783" width="211.826" height="301.096" style="fill:#7d9bbf;"/>
    <path d="M330.561,446.186l3.861,-0l-0,-26.209l-3.861,0l0,10.838l-0.177,-0c-0.779,-2.196 -2.727,-3.471 -5.171,-3.471c-4.639,-0 -7.331,3.577 -7.331,9.633c0,6.057 2.692,9.634 7.331,9.634c2.444,-0 4.392,-1.311 5.171,-3.471l0.177,-0l0,3.046Zm-4.179,-2.905c-2.656,0 -4.427,-1.877 -4.427,-4.71l0,-3.187c0,-2.834 1.771,-4.711 4.427,-4.711c2.338,0 4.179,1.275 4.179,3.152l0,6.304c0,1.877 -1.841,3.152 -4.179,3.152Z" style="fill:#28424c;fill-rule:nonzero;"/>
    <path d="M347.172,446.611c3.435,-0 6.127,-1.488 7.508,-3.719l-2.267,-2.231c-1.062,1.7 -2.585,2.762 -4.852,2.762c-3.116,0 -4.852,-2.019 -4.852,-4.852l0,-0.602l12.644,-0l-0,-1.452c-0,-5.1 -2.763,-9.173 -8.181,-9.173c-5.242,-0 -8.465,3.754 -8.465,9.633c0,5.879 3.223,9.634 8.465,9.634Zm-0,-16.257c2.55,0 4.108,1.877 4.108,4.711l0,0.354l-8.571,-0l0,-0.248c0,-2.833 1.806,-4.817 4.463,-4.817Z" style="fill:#28424c;fill-rule:nonzero;"/>
    <path d="M368.103,446.186l-0,-3.152l-3.577,-0l-0,-12.113l3.86,0l0,-3.152l-3.86,-0l-0,-5.029l-3.471,-0l0,3.223c0,1.275 -0.425,1.806 -1.7,1.806l-1.558,-0l-0,3.152l2.868,0l0,11.263c0,2.514 1.417,4.002 4.073,4.002l3.365,-0Z" style="fill:#28424c;fill-rule:nonzero;"/>
    <path d="M388.22,446.186l-0,-3.152l-1.948,-0l-0,-9.244c-0,-4.109 -2.657,-6.446 -7.402,-6.446c-3.577,-0 -5.738,1.523 -6.942,3.577l2.302,2.09c0.921,-1.452 2.231,-2.515 4.392,-2.515c2.585,0 3.789,1.31 3.789,3.542l0,1.558l-3.329,0c-5.135,0 -7.862,1.877 -7.862,5.525c-0,3.329 2.16,5.49 5.95,5.49c2.691,-0 4.675,-1.205 5.383,-3.507l0.177,0c0.248,1.807 1.31,3.082 3.329,3.082l2.161,-0Zm-9.952,-2.515c-1.913,0 -3.117,-0.85 -3.117,-2.479l-0,-0.638c-0,-1.593 1.31,-2.479 4.002,-2.479l3.258,0l0,2.656c0,1.807 -1.771,2.94 -4.143,2.94Z" style="fill:#28424c;fill-rule:nonzero;"/>
    <path d="M393.957,424.475c1.594,0 2.267,-0.85 2.267,-2.019l-0,-0.602c-0,-1.168 -0.673,-2.018 -2.267,-2.018c-1.594,-0 -2.302,0.85 -2.302,2.018l0,0.602c0,1.169 0.708,2.019 2.302,2.019Zm-1.948,21.711l3.861,-0l-0,-18.417l-3.861,-0l0,18.417Z" style="fill:#28424c;fill-rule:nonzero;"/>
    <path d="M407.805,446.186l0,-3.152l-2.55,-0l0,-23.057l-3.86,0l-0,22.384c-0,2.373 1.31,3.825 3.931,3.825l2.479,-0Z" style="fill:#28424c;fill-rule:nonzero;"/>
    <path d="M417.332,446.611c4.427,-0 7.296,-2.373 7.296,-5.915c-0,-2.975 -1.806,-4.746 -5.844,-5.348l-1.7,-0.212c-1.948,-0.319 -2.833,-0.957 -2.833,-2.373c-0,-1.382 0.992,-2.302 3.117,-2.302c1.983,-0 3.541,0.956 4.497,2.089l2.373,-2.266c-1.664,-1.842 -3.541,-2.94 -6.87,-2.94c-4.038,-0 -6.836,2.09 -6.836,5.667c0,3.4 2.302,5.029 6.056,5.489l1.7,0.213c1.913,0.248 2.621,1.133 2.621,2.302c0,1.558 -1.133,2.479 -3.364,2.479c-2.196,-0 -3.861,-0.992 -5.207,-2.621l-2.479,2.267c1.736,2.16 4.002,3.471 7.473,3.471Z" style="fill:#28424c;fill-rule:nonzero;"/>
    <rect x="138.733" y="160.783" width="76.058" height="301.096" style="fill:#fff;"/>
    <path d="M107.483,326.956l31.25,-15.625l-31.25,-15.625l0,31.25Z" style="fill:#2d4765;"/>
    <path d="M113.733,311.331l-50.424,0c-5.069,0 -9.931,-2.014 -13.516,-5.599c-3.585,-3.584 -5.599,-8.446 -5.599,-13.516c0,-40.534 0,-131.433 0,-131.433" style="fill:none;stroke:#2d4765;stroke-width:10.42px;"/>
    <path d="M349.609,129.533l-15.625,31.25l-15.625,-31.25l31.25,0Z" style="fill:#7d9bbf;"/>
    <path d="M333.984,44.194l0,91.589" style="fill:none;stroke:#7d9bbf;stroke-width:10.42px;"/>
    <path d="M309.34,60.504l49.289,49.289" style="fill:none;stroke:#2d4765;stroke-width:3.33px;"/>
    <path d="M358.629,60.504l-49.289,49.289" style="fill:none;stroke:#2d4765;stroke-width:3.33px;"/>
</svg>
