<?xml version="1.0" encoding="UTF-8" standalone="no"?>
<!DOCTYPE svg PUBLIC "-//W3C//DTD SVG 1.1//EN" "http://www.w3.org/Graphics/SVG/1.1/DTD/svg11.dtd">
<!--Copyright 2021 Tom Rothe-->
<svg width="100%" height="100%" viewBox="0 0 580 368" version="1.1" xmlns="http://www.w3.org/2000/svg" xmlns:xlink="http://www.w3.org/1999/xlink" xml:space="preserve" xmlns:serif="http://www.serif.com/" style="fill-rule:evenodd;clip-rule:evenodd;stroke-linecap:square;stroke-linejoin:round;stroke-miterlimit:1.5;">
    <rect x="0" y="-0" width="320.303" height="320.035" style="fill:#6598aa;"/>
    <rect x="433.231" y="173.626" width="146.409" height="146.409" style="fill:#6598aa;"/>
    <circle cx="423.856" cy="259.78" r="9.375" style="fill:#192a30;"/>
    <path d="M293.656,259.78c0,-0 88.528,-0 124.575,-0" style="fill:none;stroke:#192a30;stroke-width:6.25px;"/>
    <rect x="26.647" y="234.529" width="267.009" height="50.5" style="fill:#fff;"/>
    <path d="M39.022,273.814l3.86,0l0,-15.264l3.861,-0l-0,-3.152l-3.861,-0l0,-4.64l3.861,0l-0,-3.152l-3.046,0c-3.081,0 -4.675,1.771 -4.675,4.746l-0,3.046l-2.798,-0l-0,3.152l2.798,-0l-0,15.264Z" style="fill:#192a30;fill-rule:nonzero;"/>
    <path d="M65.761,273.814l0,-3.152l-1.948,0l0,-9.243c0,-4.109 -2.656,-6.446 -7.402,-6.446c-3.577,-0 -5.737,1.523 -6.941,3.577l2.302,2.089c0.921,-1.452 2.231,-2.514 4.391,-2.514c2.586,-0 3.79,1.31 3.79,3.541l0,1.559l-3.329,-0c-5.136,-0 -7.863,1.877 -7.863,5.525c0,3.329 2.161,5.489 5.95,5.489c2.692,0 4.675,-1.204 5.384,-3.506l0.177,0c0.248,1.806 1.31,3.081 3.329,3.081l2.16,0Zm-9.952,-2.514c-1.912,-0 -3.116,-0.85 -3.116,-2.479l-0,-0.638c-0,-1.594 1.31,-2.479 4.002,-2.479l3.258,-0l0,2.656c0,1.806 -1.771,2.94 -4.144,2.94Z" style="fill:#192a30;fill-rule:nonzero;"/>
    <path d="M76.67,274.239c3.541,0 6.056,-1.664 7.26,-4.675l-2.939,-1.558c-0.78,1.842 -2.09,3.046 -4.321,3.046c-2.834,-0 -4.286,-1.948 -4.286,-4.781l0,-3.294c0,-2.833 1.452,-4.781 4.286,-4.781c2.089,-0 3.4,1.098 3.931,2.798l3.187,-1.488c-1.097,-2.727 -3.435,-4.533 -7.118,-4.533c-5.313,-0 -8.359,3.754 -8.359,9.633c0,5.879 3.046,9.633 8.359,9.633Z" style="fill:#192a30;fill-rule:nonzero;"/>
    <path d="M96.078,273.814l0,-3.152l-3.577,0l-0,-12.112l3.86,-0l0,-3.152l-3.86,-0l-0,-5.029l-3.471,-0l0,3.222c0,1.275 -0.425,1.807 -1.7,1.807l-1.558,-0l-0,3.152l2.869,-0l-0,11.262c-0,2.515 1.416,4.002 4.072,4.002l3.365,0Z" style="fill:#192a30;fill-rule:nonzero;"/>
    <path d="M107.624,274.239c5.135,0 8.464,-3.754 8.464,-9.633c0,-5.879 -3.329,-9.633 -8.464,-9.633c-5.136,-0 -8.465,3.754 -8.465,9.633c0,5.879 3.329,9.633 8.465,9.633Zm-0,-3.187c-2.621,-0 -4.392,-1.629 -4.392,-4.888l0,-3.116c0,-3.259 1.771,-4.888 4.392,-4.888c2.621,0 4.392,1.629 4.392,4.888l-0,3.116c-0,3.259 -1.771,4.888 -4.392,4.888Z" style="fill:#192a30;fill-rule:nonzero;"/>
    <path d="M124.234,273.814l0,-11.758c0,-1.912 1.7,-2.94 4.746,-2.94l1.523,0l0,-3.718l-1.027,-0c-2.94,-0 -4.533,1.664 -5.065,3.541l-0.177,0l0,-3.541l-3.86,-0l-0,18.416l3.86,0Z" style="fill:#192a30;fill-rule:nonzero;"/>
    <path d="M141.872,266.235l-1.169,4.002l-0.177,0l-1.063,-4.002l-3.683,-10.837l-3.86,-0l6.693,19.231l-1.062,3.117l-3.117,-0l0,3.152l2.232,-0c2.868,-0 3.966,-0.957 4.852,-3.436l7.756,-22.064l-3.719,-0l-3.683,10.837Z" style="fill:#192a30;fill-rule:nonzero;"/>
    <path d="M164.68,273.814l0,-12.36c0,-2.125 1.877,-3.152 3.79,-3.152c2.266,-0 3.364,1.417 3.364,4.285l0,11.227l3.861,0l-0,-12.36c-0,-2.125 1.806,-3.152 3.754,-3.152c2.337,-0 3.4,1.452 3.4,4.285l-0,11.227l3.86,0l0,-11.687c0,-4.533 -2.16,-7.154 -5.808,-7.154c-2.975,-0 -4.888,1.7 -5.56,3.754l-0.107,-0c-0.885,-2.55 -2.975,-3.754 -5.454,-3.754c-2.798,-0 -4.179,1.558 -4.923,3.471l-0.177,-0l0,-3.046l-3.86,-0l-0,18.416l3.86,0Z" style="fill:#192a30;fill-rule:nonzero;"/>
    <path d="M199.282,274.239c3.436,0 6.127,-1.487 7.509,-3.718l-2.267,-2.232c-1.063,1.7 -2.586,2.763 -4.852,2.763c-3.117,-0 -4.852,-2.019 -4.852,-4.852l-0,-0.602l12.643,-0l0,-1.452c0,-5.1 -2.762,-9.173 -8.181,-9.173c-5.241,-0 -8.464,3.754 -8.464,9.633c-0,5.879 3.223,9.633 8.464,9.633Zm0,-16.256c2.55,0 4.109,1.877 4.109,4.711l-0,0.354l-8.571,-0l-0,-0.248c-0,-2.834 1.806,-4.817 4.462,-4.817Z" style="fill:#192a30;fill-rule:nonzero;"/>
    <path d="M220.213,273.814l0,-3.152l-3.577,0l0,-12.112l3.861,-0l-0,-3.152l-3.861,-0l0,-5.029l-3.47,-0l-0,3.222c-0,1.275 -0.425,1.807 -1.7,1.807l-1.559,-0l0,3.152l2.869,-0l-0,11.262c-0,2.515 1.417,4.002 4.073,4.002l3.364,0Z" style="fill:#192a30;fill-rule:nonzero;"/>
    <path d="M224.676,273.814l3.86,0l0,-12.36c0,-2.125 1.984,-3.152 4.002,-3.152c2.373,-0 3.471,1.452 3.471,4.285l0,11.227l3.861,0l-0,-11.687c-0,-4.533 -2.232,-7.154 -5.986,-7.154c-2.833,-0 -4.391,1.487 -5.171,3.471l-0.177,-0l0,-10.838l-3.86,0l-0,26.208Z" style="fill:#192a30;fill-rule:nonzero;"/>
    <path d="M252.443,274.239c5.135,0 8.464,-3.754 8.464,-9.633c0,-5.879 -3.329,-9.633 -8.464,-9.633c-5.136,-0 -8.465,3.754 -8.465,9.633c0,5.879 3.329,9.633 8.465,9.633Zm-0,-3.187c-2.621,-0 -4.392,-1.629 -4.392,-4.888l-0,-3.116c-0,-3.259 1.771,-4.888 4.392,-4.888c2.62,0 4.391,1.629 4.391,4.888l0,3.116c0,3.259 -1.771,4.888 -4.391,4.888Z" style="fill:#192a30;fill-rule:nonzero;"/>
    <path d="M276.774,273.814l3.86,0l0,-26.208l-3.86,0l-0,10.838l-0.177,-0c-0.779,-2.196 -2.727,-3.471 -5.171,-3.471c-4.64,-0 -7.331,3.577 -7.331,9.633c-0,6.056 2.691,9.633 7.331,9.633c2.444,0 4.392,-1.31 5.171,-3.47l0.177,-0l-0,3.045Zm-4.179,-2.904c-2.657,0 -4.427,-1.877 -4.427,-4.71l-0,-3.188c-0,-2.833 1.77,-4.71 4.427,-4.71c2.337,-0 4.179,1.275 4.179,3.152l-0,6.304c-0,1.877 -1.842,3.152 -4.179,3.152Z" style="fill:#192a30;fill-rule:nonzero;"/>
    <path d="M456.837,367.911l3.86,-0l0,-10.129l0.177,-0c0.779,2.16 2.727,3.471 5.171,3.471c4.64,-0 7.331,-3.578 7.331,-9.634c0,-6.056 -2.691,-9.633 -7.331,-9.633c-2.444,-0 -4.392,1.275 -5.171,3.471l-0.177,-0l0,-3.046l-3.86,-0l-0,25.5Zm8.039,-9.988c-2.337,0 -4.179,-1.275 -4.179,-3.152l0,-6.304c0,-1.877 1.842,-3.152 4.179,-3.152c2.657,0 4.427,1.877 4.427,4.71l0,3.188c0,2.833 -1.77,4.71 -4.427,4.71Z" style="fill:#192a30;fill-rule:nonzero;"/>
    <path d="M481.664,360.828l-0,-11.759c-0,-1.912 1.7,-2.939 4.746,-2.939l1.523,-0l-0,-3.719l-1.028,-0c-2.939,-0 -4.533,1.664 -5.064,3.542l-0.177,-0l-0,-3.542l-3.861,-0l0,18.417l3.861,-0Z" style="fill:#192a30;fill-rule:nonzero;"/>
    <path d="M498.416,361.253c5.135,-0 8.464,-3.755 8.464,-9.634c0,-5.879 -3.329,-9.633 -8.464,-9.633c-5.136,-0 -8.465,3.754 -8.465,9.633c0,5.879 3.329,9.634 8.465,9.634Zm-0,-3.188c-2.621,0 -4.392,-1.629 -4.392,-4.887l0,-3.117c0,-3.258 1.771,-4.888 4.392,-4.888c2.621,0 4.392,1.63 4.392,4.888l-0,3.117c-0,3.258 -1.771,4.887 -4.392,4.887Z" style="fill:#192a30;fill-rule:nonzero;"/>
    <path d="M522.747,360.828l3.861,-0l-0,-26.209l-3.861,0l0,10.838l-0.177,-0c-0.779,-2.196 -2.727,-3.471 -5.171,-3.471c-4.639,-0 -7.331,3.577 -7.331,9.633c-0,6.056 2.692,9.634 7.331,9.634c2.444,-0 4.392,-1.311 5.171,-3.471l0.177,-0l0,3.046Zm-4.179,-2.905c-2.656,0 -4.427,-1.877 -4.427,-4.71l-0,-3.188c-0,-2.833 1.771,-4.71 4.427,-4.71c2.337,0 4.179,1.275 4.179,3.152l0,6.304c0,1.877 -1.842,3.152 -4.179,3.152Z" style="fill:#192a30;fill-rule:nonzero;"/>
    <path d="M543.289,360.828l3.86,-0l0,-18.417l-3.86,-0l-0,12.325c-0,2.16 -1.948,3.187 -3.931,3.187c-2.373,0 -3.542,-1.487 -3.542,-4.285l-0,-11.227l-3.861,-0l0,11.723c0,4.533 2.232,7.119 6.021,7.119c3.046,-0 4.498,-1.665 5.171,-3.471l0.142,-0l-0,3.046Z" style="fill:#192a30;fill-rule:nonzero;"/>
    <path d="M559.793,361.253c3.542,-0 6.056,-1.665 7.26,-4.675l-2.939,-1.559c-0.779,1.842 -2.09,3.046 -4.321,3.046c-2.833,0 -4.285,-1.948 -4.285,-4.781l-0,-3.294c-0,-2.833 1.452,-4.781 4.285,-4.781c2.09,-0 3.4,1.098 3.931,2.798l3.188,-1.488c-1.098,-2.727 -3.436,-4.533 -7.119,-4.533c-5.313,-0 -8.358,3.754 -8.358,9.633c-0,5.879 3.045,9.634 8.358,9.634Z" style="fill:#192a30;fill-rule:nonzero;"/>
    <path d="M579.201,360.828l0,-3.153l-3.577,0l0,-12.112l3.861,-0l-0,-3.152l-3.861,-0l0,-5.029l-3.471,-0l0,3.223c0,1.275 -0.425,1.806 -1.7,1.806l-1.558,-0l0,3.152l2.869,-0l-0,11.262c-0,2.515 1.416,4.003 4.073,4.003l3.364,-0Z" style="fill:#192a30;fill-rule:nonzero;"/>
</svg>
