<?xml version="1.0" encoding="UTF-8" standalone="no"?>
<!DOCTYPE svg PUBLIC "-//W3C//DTD SVG 1.1//EN" "http://www.w3.org/Graphics/SVG/1.1/DTD/svg11.dtd">
<svg width="100%" height="100%" viewBox="0 0 433 563" version="1.1" xmlns="http://www.w3.org/2000/svg" xmlns:xlink="http://www.w3.org/1999/xlink" xml:space="preserve" xmlns:serif="http://www.serif.com/" style="fill-rule:evenodd;clip-rule:evenodd;stroke-linejoin:round;stroke-miterlimit:1.5;">
    <g transform="matrix(1,0,0,1,-192.047,-2603.3)">
        <g transform="matrix(1.21154,0,0,1.18919,0,2366.33)">
            <g transform="matrix(1.26064,0,0,1.63578,-25.2382,-288.446)">
                <g transform="matrix(0.654742,-0,-0,0.514071,145.761,298.158)">
                    <path d="M222.958,90.81l23.438,11.719l-23.438,11.719l0,-23.438Z" style="fill:#192a30;"/>
                    <path d="M57.421,102.529l170.225,0" style="fill:none;stroke:#192a30;stroke-width:6.25px;"/>
                </g>
            </g>
        </g>
        <g transform="matrix(1.21154,0,0,1.18919,0,2366.33)">
            <g transform="matrix(1.26064,0,0,1.63578,-25.1339,-155.754)">
                <g transform="matrix(0.654742,-0,-0,0.514071,145.678,217.039)">
                    <path d="M223.084,248.607l23.438,11.719l-23.438,11.719l0,-23.438Z" style="fill:#192a30;"/>
                    <path d="M57.547,260.326l170.225,0" style="fill:none;stroke:#192a30;stroke-width:6.25px;"/>
                </g>
            </g>
        </g>
        <g transform="matrix(1.21154,0,0,1.18919,0,2366.33)">
            <g transform="matrix(1.26064,0,0,1.63578,-25.1339,-23.5608)">
                <g transform="matrix(0.654742,-0,-0,0.514071,145.678,136.226)">
                    <path d="M223.084,405.81l23.438,11.718l-23.438,11.719l0,-23.437Z" style="fill:#192a30;"/>
                    <path d="M57.547,417.528l170.225,0" style="fill:none;stroke:#192a30;stroke-width:6.25px;"/>
                </g>
            </g>
        </g>
        <g transform="matrix(1.21154,0,0,1.18919,0,2366.33)">
            <g transform="matrix(1.14576,0,0,1.16729,6.81248,-2419.3)">
                <rect x="133.981" y="2243.29" width="39.879" height="375.074" style="fill:#fff;"/>
            </g>
        </g>
        <g transform="matrix(1.21154,0,0,1.18919,0,2366.33)">
            <g transform="matrix(2.22873,0,0,0.243798,63.3862,-306.985)">
                <rect x="133.981" y="2243.29" width="39.879" height="375.074" style="fill:#6598aa;"/>
            </g>
        </g>
        <g transform="matrix(1.21154,0,0,1.18919,0,2366.33)">
            <g transform="matrix(2.22873,0,0,0.243798,63.3862,-174.445)">
                <rect x="133.981" y="2243.29" width="39.879" height="375.074" style="fill:#6598aa;"/>
            </g>
        </g>
        <g transform="matrix(1.21154,0,0,1.18919,0,2366.33)">
            <g transform="matrix(2.22873,0,0,0.243798,63.3862,-42.2522)">
                <rect x="133.981" y="2243.29" width="39.879" height="375.074" style="fill:#6598aa;"/>
            </g>
        </g>
        <g transform="matrix(1.21154,0,0,1.18919,0,2366.33)">
            <g transform="matrix(1.14576,0,0,1.16729,-142.209,31.4867)">
                <g transform="matrix(25.5139,0,0,25.5139,261.804,548.598)">
                    <path d="M0.105,-0l0.109,-0l0,-0.431l0.109,0l0,-0.089l-0.109,0l-0,-0.131l0.109,0l0,-0.089l-0.086,0c-0.087,0 -0.132,0.05 -0.132,0.134l0,0.086l-0.079,0l0,0.089l0.079,0l0,0.431Z" style="fill:#192a30;fill-rule:nonzero;"/>
                </g>
                <g transform="matrix(25.5139,0,0,25.5139,270.478,548.598)">
                    <path d="M0.52,-0l0,-0.089l-0.055,0l0,-0.261c0,-0.116 -0.075,-0.182 -0.209,-0.182c-0.101,0 -0.162,0.043 -0.196,0.101l0.065,0.059c0.026,-0.041 0.063,-0.071 0.124,-0.071c0.073,0 0.107,0.037 0.107,0.1l0,0.044l-0.094,0c-0.145,0 -0.222,0.053 -0.222,0.156c-0,0.094 0.061,0.155 0.168,0.155c0.076,0 0.132,-0.034 0.152,-0.099l0.005,0c0.007,0.051 0.037,0.087 0.094,0.087l0.061,0Zm-0.281,-0.071c-0.054,0 -0.088,-0.024 -0.088,-0.07l0,-0.018c0,-0.045 0.037,-0.07 0.113,-0.07l0.092,0l0,0.075c0,0.051 -0.05,0.083 -0.117,0.083Z" style="fill:#192a30;fill-rule:nonzero;"/>
                </g>
                <g transform="matrix(25.5139,0,0,25.5139,284.486,548.598)">
                    <path d="M0.279,0.012c0.1,0 0.171,-0.047 0.205,-0.132l-0.083,-0.044c-0.022,0.052 -0.059,0.086 -0.122,0.086c-0.08,0 -0.121,-0.055 -0.121,-0.135l-0,-0.093c-0,-0.08 0.041,-0.135 0.121,-0.135c0.059,0 0.096,0.031 0.111,0.079l0.09,-0.042c-0.031,-0.077 -0.097,-0.128 -0.201,-0.128c-0.15,0 -0.236,0.106 -0.236,0.272c0,0.166 0.086,0.272 0.236,0.272Z" style="fill:#192a30;fill-rule:nonzero;"/>
                </g>
                <g transform="matrix(25.5139,0,0,25.5139,297.498,548.598)">
                    <path d="M0.52,-0l0,-0.089l-0.055,0l0,-0.261c0,-0.116 -0.075,-0.182 -0.209,-0.182c-0.101,0 -0.162,0.043 -0.196,0.101l0.065,0.059c0.026,-0.041 0.063,-0.071 0.124,-0.071c0.073,0 0.107,0.037 0.107,0.1l0,0.044l-0.094,0c-0.145,0 -0.222,0.053 -0.222,0.156c-0,0.094 0.061,0.155 0.168,0.155c0.076,0 0.132,-0.034 0.152,-0.099l0.005,0c0.007,0.051 0.037,0.087 0.094,0.087l0.061,0Zm-0.281,-0.071c-0.054,0 -0.088,-0.024 -0.088,-0.07l0,-0.018c0,-0.045 0.037,-0.07 0.113,-0.07l0.092,0l0,0.075c0,0.051 -0.05,0.083 -0.117,0.083Z" style="fill:#192a30;fill-rule:nonzero;"/>
                </g>
                <g transform="matrix(25.5139,0,0,25.5139,311.505,548.598)">
                    <path d="M0.405,-0l0.109,-0l0,-0.74l-0.109,0l0,0.306l-0.005,0c-0.022,-0.062 -0.077,-0.098 -0.146,-0.098c-0.131,0 -0.207,0.101 -0.207,0.272c0,0.171 0.076,0.272 0.207,0.272c0.069,-0 0.124,-0.037 0.146,-0.098l0.005,-0l0,0.086Zm-0.118,-0.082c-0.075,-0 -0.125,-0.053 -0.125,-0.133l-0,-0.09c-0,-0.08 0.05,-0.133 0.125,-0.133c0.066,0 0.118,0.036 0.118,0.089l0,0.178c0,0.053 -0.052,0.089 -0.118,0.089Z" style="fill:#192a30;fill-rule:nonzero;"/>
                </g>
                <g transform="matrix(25.5139,0,0,25.5139,326.609,548.598)">
                    <path d="M0.282,0.012c0.097,0 0.173,-0.042 0.212,-0.105l-0.064,-0.063c-0.03,0.048 -0.073,0.078 -0.137,0.078c-0.088,0 -0.137,-0.057 -0.137,-0.137l0,-0.017l0.357,0l0,-0.041c0,-0.144 -0.078,-0.259 -0.231,-0.259c-0.148,0 -0.239,0.106 -0.239,0.272c0,0.166 0.091,0.272 0.239,0.272Zm0,-0.459c0.072,0 0.116,0.053 0.116,0.133l0,0.01l-0.242,0l0,-0.007c0,-0.08 0.051,-0.136 0.126,-0.136Z" style="fill:#192a30;fill-rule:nonzero;"/>
                </g>
            </g>
        </g>
        <g transform="matrix(1.21154,0,0,1.18919,0,2366.33)">
            <g transform="matrix(1.14576,0,0,1.16729,123.939,-9.11455)">
                <g transform="matrix(25.5139,0,0,25.5139,206.97,548.598)">
                    <path d="M0.243,0.012c0.125,0 0.206,-0.067 0.206,-0.167c0,-0.084 -0.051,-0.134 -0.165,-0.151l-0.048,-0.006c-0.055,-0.009 -0.08,-0.027 -0.08,-0.067c-0,-0.039 0.028,-0.065 0.088,-0.065c0.056,0 0.1,0.027 0.127,0.059l0.067,-0.064c-0.047,-0.052 -0.1,-0.083 -0.194,-0.083c-0.114,0 -0.193,0.059 -0.193,0.16c0,0.096 0.065,0.142 0.171,0.155l0.048,0.006c0.054,0.007 0.074,0.032 0.074,0.065c0,0.044 -0.032,0.07 -0.095,0.07c-0.062,-0 -0.109,-0.028 -0.147,-0.074l-0.07,0.064c0.049,0.061 0.113,0.098 0.211,0.098Z" style="fill:#192a30;fill-rule:nonzero;"/>
                </g>
                <g transform="matrix(25.5139,0,0,25.5139,219.574,548.598)">
                    <path d="M0.393,-0l0.109,-0l0,-0.52l-0.109,0l0,0.348c0,0.061 -0.055,0.09 -0.111,0.09c-0.067,-0 -0.1,-0.042 -0.1,-0.121l-0,-0.317l-0.109,0l-0,0.331c-0,0.128 0.063,0.201 0.17,0.201c0.086,-0 0.127,-0.047 0.146,-0.098l0.004,-0l0,0.086Z" style="fill:#192a30;fill-rule:nonzero;"/>
                </g>
                <g transform="matrix(25.5139,0,0,25.5139,234.372,548.598)">
                    <path d="M0.078,-0l0.109,-0l0,-0.086l0.005,0c0.022,0.061 0.077,0.098 0.146,0.098c0.131,0 0.207,-0.101 0.207,-0.272c0,-0.171 -0.076,-0.272 -0.207,-0.272c-0.069,0 -0.124,0.036 -0.146,0.098l-0.005,0l0,-0.306l-0.109,0l0,0.74Zm0.227,-0.082c-0.066,0 -0.118,-0.036 -0.118,-0.089l0,-0.178c0,-0.053 0.052,-0.089 0.118,-0.089c0.075,-0 0.125,0.053 0.125,0.133l0,0.09c0,0.08 -0.05,0.133 -0.125,0.133Z" style="fill:#192a30;fill-rule:nonzero;"/>
                </g>
                <g transform="matrix(25.5139,0,0,25.5139,249.731,548.598)">
                    <rect x="0.062" y="-0.36" width="0.277" height="0.111" style="fill:#192a30;fill-rule:nonzero;"/>
                </g>
                <g transform="matrix(25.5139,0,0,25.5139,260.013,548.598)">
                    <path d="M0.243,0.012c0.125,0 0.206,-0.067 0.206,-0.167c0,-0.084 -0.051,-0.134 -0.165,-0.151l-0.048,-0.006c-0.055,-0.009 -0.08,-0.027 -0.08,-0.067c-0,-0.039 0.028,-0.065 0.088,-0.065c0.056,0 0.1,0.027 0.127,0.059l0.067,-0.064c-0.047,-0.052 -0.1,-0.083 -0.194,-0.083c-0.114,0 -0.193,0.059 -0.193,0.16c0,0.096 0.065,0.142 0.171,0.155l0.048,0.006c0.054,0.007 0.074,0.032 0.074,0.065c0,0.044 -0.032,0.07 -0.095,0.07c-0.062,-0 -0.109,-0.028 -0.147,-0.074l-0.07,0.064c0.049,0.061 0.113,0.098 0.211,0.098Z" style="fill:#192a30;fill-rule:nonzero;"/>
                </g>
                <g transform="matrix(25.5139,0,0,25.5139,272.26,548.598)">
                    <path d="M0.293,-0.214l-0.033,0.113l-0.005,-0l-0.03,-0.113l-0.104,-0.306l-0.109,0l0.189,0.543l-0.03,0.088l-0.088,-0l-0,0.089l0.063,0c0.081,0 0.112,-0.027 0.137,-0.097l0.219,-0.623l-0.105,0l-0.104,0.306Z" style="fill:#192a30;fill-rule:nonzero;"/>
                </g>
                <g transform="matrix(25.5139,0,0,25.5139,285.221,548.598)">
                    <path d="M0.243,0.012c0.125,0 0.206,-0.067 0.206,-0.167c0,-0.084 -0.051,-0.134 -0.165,-0.151l-0.048,-0.006c-0.055,-0.009 -0.08,-0.027 -0.08,-0.067c-0,-0.039 0.028,-0.065 0.088,-0.065c0.056,0 0.1,0.027 0.127,0.059l0.067,-0.064c-0.047,-0.052 -0.1,-0.083 -0.194,-0.083c-0.114,0 -0.193,0.059 -0.193,0.16c0,0.096 0.065,0.142 0.171,0.155l0.048,0.006c0.054,0.007 0.074,0.032 0.074,0.065c0,0.044 -0.032,0.07 -0.095,0.07c-0.062,-0 -0.109,-0.028 -0.147,-0.074l-0.07,0.064c0.049,0.061 0.113,0.098 0.211,0.098Z" style="fill:#192a30;fill-rule:nonzero;"/>
                </g>
                <g transform="matrix(25.5139,0,0,25.5139,297.646,548.598)">
                    <path d="M0.317,-0l0,-0.089l-0.101,0l0,-0.342l0.109,0l0,-0.089l-0.109,0l-0,-0.142l-0.098,0l-0,0.091c-0,0.036 -0.012,0.051 -0.048,0.051l-0.044,0l-0,0.089l0.081,0l-0,0.318c-0,0.071 0.04,0.113 0.115,0.113l0.095,0Z" style="fill:#192a30;fill-rule:nonzero;"/>
                </g>
                <g transform="matrix(25.5139,0,0,25.5139,306.857,548.598)">
                    <path d="M0.282,0.012c0.097,0 0.173,-0.042 0.212,-0.105l-0.064,-0.063c-0.03,0.048 -0.073,0.078 -0.137,0.078c-0.088,0 -0.137,-0.057 -0.137,-0.137l0,-0.017l0.357,0l0,-0.041c0,-0.144 -0.078,-0.259 -0.231,-0.259c-0.148,0 -0.239,0.106 -0.239,0.272c0,0.166 0.091,0.272 0.239,0.272Zm0,-0.459c0.072,0 0.116,0.053 0.116,0.133l0,0.01l-0.242,0l0,-0.007c0,-0.08 0.051,-0.136 0.126,-0.136Z" style="fill:#192a30;fill-rule:nonzero;"/>
                </g>
                <g transform="matrix(25.5139,0,0,25.5139,321.043,548.598)">
                    <path d="M0.187,-0l0,-0.349c0,-0.06 0.053,-0.089 0.107,-0.089c0.064,0 0.095,0.04 0.095,0.121l0,0.317l0.109,0l0,-0.349c0,-0.06 0.051,-0.089 0.106,-0.089c0.066,0 0.096,0.041 0.096,0.121l0,0.317l0.109,0l0,-0.33c0,-0.128 -0.061,-0.202 -0.164,-0.202c-0.084,0 -0.138,0.048 -0.157,0.106l-0.003,0c-0.025,-0.072 -0.084,-0.106 -0.154,-0.106c-0.079,0 -0.118,0.044 -0.139,0.098l-0.005,0l0,-0.086l-0.109,0l0,0.52l0.109,-0Z" style="fill:#192a30;fill-rule:nonzero;"/>
                </g>
            </g>
        </g>
    </g>
</svg>
