<?xml version="1.0" encoding="UTF-8" standalone="no"?>
<!DOCTYPE svg PUBLIC "-//W3C//DTD SVG 1.1//EN" "http://www.w3.org/Graphics/SVG/1.1/DTD/svg11.dtd">
<svg width="100%" height="100%" viewBox="0 0 513 468" version="1.1" xmlns="http://www.w3.org/2000/svg" xmlns:xlink="http://www.w3.org/1999/xlink" xml:space="preserve" xmlns:serif="http://www.serif.com/" style="fill-rule:evenodd;clip-rule:evenodd;stroke-linejoin:round;stroke-miterlimit:1.5;">
    <g transform="matrix(1,0,0,1,-114.417,-4848.88)">
        <g transform="matrix(1.21154,0,0,1.18919,0,4572.88)">
            <g transform="matrix(1.14207,0,0,1.16354,149.627,-13.433)">
                <g transform="matrix(25.5962,0,0,25.5962,206.97,548.598)">
                    <path d="M0.282,0.012c0.145,0 0.239,-0.106 0.239,-0.272c0,-0.166 -0.094,-0.272 -0.239,-0.272c-0.145,0 -0.239,0.106 -0.239,0.272c-0,0.166 0.094,0.272 0.239,0.272Zm0,-0.09c-0.074,-0 -0.124,-0.046 -0.124,-0.138l-0,-0.088c-0,-0.092 0.05,-0.138 0.124,-0.138c0.074,0 0.124,0.046 0.124,0.138l0,0.088c0,0.092 -0.05,0.138 -0.124,0.138Z" style="fill:#192a30;fill-rule:nonzero;"/>
                </g>
                <g transform="matrix(25.5962,0,0,25.5962,221.406,548.598)">
                    <path d="M0.078,-0l0.109,-0l0,-0.086l0.005,0c0.022,0.061 0.077,0.098 0.146,0.098c0.131,0 0.207,-0.101 0.207,-0.272c0,-0.171 -0.076,-0.272 -0.207,-0.272c-0.069,0 -0.124,0.036 -0.146,0.098l-0.005,0l0,-0.306l-0.109,0l0,0.74Zm0.227,-0.082c-0.066,0 -0.118,-0.036 -0.118,-0.089l0,-0.178c0,-0.053 0.052,-0.089 0.118,-0.089c0.075,-0 0.125,0.053 0.125,0.133l0,0.09c0,0.08 -0.05,0.133 -0.125,0.133Z" style="fill:#192a30;fill-rule:nonzero;"/>
                </g>
                <g transform="matrix(25.5962,0,0,25.5962,236.559,548.598)">
                    <path d="M0.243,0.012c0.125,0 0.206,-0.067 0.206,-0.167c0,-0.084 -0.051,-0.134 -0.165,-0.151l-0.048,-0.006c-0.055,-0.009 -0.08,-0.027 -0.08,-0.067c-0,-0.039 0.028,-0.065 0.088,-0.065c0.056,0 0.1,0.027 0.127,0.059l0.067,-0.064c-0.047,-0.052 -0.1,-0.083 -0.194,-0.083c-0.114,0 -0.193,0.059 -0.193,0.16c0,0.096 0.065,0.142 0.171,0.155l0.048,0.006c0.054,0.007 0.074,0.032 0.074,0.065c0,0.044 -0.032,0.07 -0.095,0.07c-0.062,-0 -0.109,-0.028 -0.147,-0.074l-0.07,0.064c0.049,0.061 0.113,0.098 0.211,0.098Z" style="fill:#192a30;fill-rule:nonzero;"/>
                </g>
                <g transform="matrix(25.5962,0,0,25.5962,249.204,548.598)">
                    <path d="M0.282,0.012c0.097,0 0.173,-0.042 0.212,-0.105l-0.064,-0.063c-0.03,0.048 -0.073,0.078 -0.137,0.078c-0.088,0 -0.137,-0.057 -0.137,-0.137l0,-0.017l0.357,0l0,-0.041c0,-0.144 -0.078,-0.259 -0.231,-0.259c-0.148,0 -0.239,0.106 -0.239,0.272c0,0.166 0.091,0.272 0.239,0.272Zm0,-0.459c0.072,0 0.116,0.053 0.116,0.133l0,0.01l-0.242,0l0,-0.007c0,-0.08 0.051,-0.136 0.126,-0.136Z" style="fill:#192a30;fill-rule:nonzero;"/>
                </g>
                <g transform="matrix(25.5962,0,0,25.5962,263.435,548.598)">
                    <path d="M0.187,-0l0,-0.332c0,-0.054 0.048,-0.083 0.134,-0.083l0.043,0l0,-0.105l-0.029,0c-0.083,0 -0.128,0.047 -0.143,0.1l-0.005,0l0,-0.1l-0.109,0l0,0.52l0.109,-0Z" style="fill:#192a30;fill-rule:nonzero;"/>
                </g>
                <g transform="matrix(25.5962,0,0,25.5962,273.469,548.598)">
                    <path d="M0.319,-0l0.179,-0.52l-0.104,0l-0.081,0.237l-0.053,0.182l-0.006,0l-0.053,-0.182l-0.079,-0.237l-0.108,0l0.177,0.52l0.128,-0Z" style="fill:#192a30;fill-rule:nonzero;"/>
                </g>
                <g transform="matrix(25.5962,0,0,25.5962,286.369,548.598)">
                    <path d="M0.282,0.012c0.097,0 0.173,-0.042 0.212,-0.105l-0.064,-0.063c-0.03,0.048 -0.073,0.078 -0.137,0.078c-0.088,0 -0.137,-0.057 -0.137,-0.137l0,-0.017l0.357,0l0,-0.041c0,-0.144 -0.078,-0.259 -0.231,-0.259c-0.148,0 -0.239,0.106 -0.239,0.272c0,0.166 0.091,0.272 0.239,0.272Zm0,-0.459c0.072,0 0.116,0.053 0.116,0.133l0,0.01l-0.242,0l0,-0.007c0,-0.08 0.051,-0.136 0.126,-0.136Z" style="fill:#192a30;fill-rule:nonzero;"/>
                </g>
                <g transform="matrix(25.5962,0,0,25.5962,300.601,548.598)">
                    <path d="M0.187,-0l0,-0.332c0,-0.054 0.048,-0.083 0.134,-0.083l0.043,0l0,-0.105l-0.029,0c-0.083,0 -0.128,0.047 -0.143,0.1l-0.005,0l0,-0.1l-0.109,0l0,0.52l0.109,-0Z" style="fill:#192a30;fill-rule:nonzero;"/>
                </g>
                <g transform="matrix(25.5962,0,0,25.5962,310.404,548.598)">
                    <path d="M0.243,0.012c0.125,0 0.206,-0.067 0.206,-0.167c0,-0.084 -0.051,-0.134 -0.165,-0.151l-0.048,-0.006c-0.055,-0.009 -0.08,-0.027 -0.08,-0.067c-0,-0.039 0.028,-0.065 0.088,-0.065c0.056,0 0.1,0.027 0.127,0.059l0.067,-0.064c-0.047,-0.052 -0.1,-0.083 -0.194,-0.083c-0.114,0 -0.193,0.059 -0.193,0.16c0,0.096 0.065,0.142 0.171,0.155l0.048,0.006c0.054,0.007 0.074,0.032 0.074,0.065c0,0.044 -0.032,0.07 -0.095,0.07c-0.062,-0 -0.109,-0.028 -0.147,-0.074l-0.07,0.064c0.049,0.061 0.113,0.098 0.211,0.098Z" style="fill:#192a30;fill-rule:nonzero;"/>
                </g>
            </g>
        </g>
        <g transform="matrix(1.21154,0,0,1.18919,0,4572.88)">
            <g transform="matrix(0.636684,0,0,1.16354,-1165.38,222.843)">
                <g transform="matrix(1.2964,-0,-0,0.722717,1978.72,7.9475)">
                    <path d="M385.472,210.35l18.75,9.375l-18.75,9.375l-0,-18.75Z" style="fill:#192a30;"/>
                    <path d="M208.829,219.725l180.393,0" style="fill:none;stroke:#192a30;stroke-width:5px;stroke-dasharray:15,10,0,0;"/>
                </g>
            </g>
        </g>
        <g transform="matrix(1.21154,0,0,1.18919,0,4572.88)">
            <g transform="matrix(0.636684,0,0,1.16354,-1165.38,211.208)">
                <g transform="matrix(1.2964,-0,-0,0.722717,1978.72,17.9475)">
                    <path d="M228.829,195.889l-20,10l20,10l0,-20Z" style="fill:#192a30;"/>
                    <path d="M224.829,205.889l179.393,-0" style="fill:none;stroke:#192a30;stroke-width:3.33px;"/>
                </g>
            </g>
        </g>
        <g transform="matrix(1.21154,0,0,1.18919,0,4572.88)">
            <g transform="matrix(0.442772,0,0,1.16354,-732.153,274.549)">
                <g transform="matrix(1.86416,-0,-0,0.722717,1866.86,-36.4909)">
                    <path d="M392.103,354.312l12.119,17.106l-20.956,-0.569l8.837,-16.537Z" style="fill:#192a30;"/>
                    <path d="M208.829,267.003c0,0 138.237,73.872 182.163,97.345" style="fill:none;stroke:#192a30;stroke-width:5px;stroke-dasharray:15,10,0,0;"/>
                </g>
            </g>
        </g>
        <g transform="matrix(1.21154,0,0,1.18919,0,4572.88)">
            <g transform="matrix(0.442772,0,0,1.16354,-732.153,286.184)">
                <g transform="matrix(1.86416,-0,-0,0.722717,1866.86,-46.4909)">
                    <path d="M231.182,281.447l-22.353,-0.607l12.926,18.246l9.427,-17.639Z" style="fill:#192a30;"/>
                    <path d="M222.941,288.381c44.862,23.974 181.281,96.874 181.281,96.874" style="fill:none;stroke:#192a30;stroke-width:3.33px;"/>
                </g>
            </g>
        </g>
        <g transform="matrix(1.21154,0,0,1.18919,0,4572.88)">
            <g transform="matrix(1.04518,0,0,1.06482,20.6734,12.215)">
                <rect x="70.578" y="292.091" width="164.917" height="164.917" style="fill:#fff;"/>
            </g>
        </g>
        <g transform="matrix(1.21154,0,0,1.18919,0,4572.88)">
            <g transform="matrix(1.14207,0,0,1.16354,-131.392,-152.549)">
                <g transform="matrix(25.5962,0,0,25.5962,254.74,548.598)">
                    <path d="M0.243,0.012c0.125,0 0.206,-0.067 0.206,-0.167c0,-0.084 -0.051,-0.134 -0.165,-0.151l-0.048,-0.006c-0.055,-0.009 -0.08,-0.027 -0.08,-0.067c-0,-0.039 0.028,-0.065 0.088,-0.065c0.056,0 0.1,0.027 0.127,0.059l0.067,-0.064c-0.047,-0.052 -0.1,-0.083 -0.194,-0.083c-0.114,0 -0.193,0.059 -0.193,0.16c0,0.096 0.065,0.142 0.171,0.155l0.048,0.006c0.054,0.007 0.074,0.032 0.074,0.065c0,0.044 -0.032,0.07 -0.095,0.07c-0.062,-0 -0.109,-0.028 -0.147,-0.074l-0.07,0.064c0.049,0.061 0.113,0.098 0.211,0.098Z" style="fill:#192a30;fill-rule:nonzero;"/>
                </g>
                <g transform="matrix(25.5962,0,0,25.5962,267.385,548.598)">
                    <path d="M0.393,-0l0.109,-0l0,-0.52l-0.109,0l0,0.348c0,0.061 -0.055,0.09 -0.111,0.09c-0.067,-0 -0.1,-0.042 -0.1,-0.121l-0,-0.317l-0.109,0l-0,0.331c-0,0.128 0.063,0.201 0.17,0.201c0.086,-0 0.127,-0.047 0.146,-0.098l0.004,-0l0,0.086Z" style="fill:#192a30;fill-rule:nonzero;"/>
                </g>
                <g transform="matrix(25.5962,0,0,25.5962,282.231,548.598)">
                    <path d="M0.078,-0l0.109,-0l0,-0.086l0.005,0c0.022,0.061 0.077,0.098 0.146,0.098c0.131,0 0.207,-0.101 0.207,-0.272c0,-0.171 -0.076,-0.272 -0.207,-0.272c-0.069,0 -0.124,0.036 -0.146,0.098l-0.005,0l0,-0.306l-0.109,0l0,0.74Zm0.227,-0.082c-0.066,0 -0.118,-0.036 -0.118,-0.089l0,-0.178c0,-0.053 0.052,-0.089 0.118,-0.089c0.075,-0 0.125,0.053 0.125,0.133l0,0.09c0,0.08 -0.05,0.133 -0.125,0.133Z" style="fill:#192a30;fill-rule:nonzero;"/>
                </g>
                <g transform="matrix(25.5962,0,0,25.5962,297.384,548.598)">
                    <path d="M0.078,0.111l-0.081,0l0,0.089l0.063,0c0.088,0 0.127,-0.05 0.127,-0.13l0,-0.59l-0.109,0l0,0.631Zm0.055,-0.724c0.045,0 0.064,-0.024 0.064,-0.057l0,-0.017c0,-0.033 -0.019,-0.057 -0.064,-0.057c-0.045,0 -0.065,0.024 -0.065,0.057l0,0.017c0,0.033 0.02,0.057 0.065,0.057Z" style="fill:#192a30;fill-rule:nonzero;"/>
                </g>
                <g transform="matrix(25.5962,0,0,25.5962,304.167,548.598)">
                    <path d="M0.282,0.012c0.097,0 0.173,-0.042 0.212,-0.105l-0.064,-0.063c-0.03,0.048 -0.073,0.078 -0.137,0.078c-0.088,0 -0.137,-0.057 -0.137,-0.137l0,-0.017l0.357,0l0,-0.041c0,-0.144 -0.078,-0.259 -0.231,-0.259c-0.148,0 -0.239,0.106 -0.239,0.272c0,0.166 0.091,0.272 0.239,0.272Zm0,-0.459c0.072,0 0.116,0.053 0.116,0.133l0,0.01l-0.242,0l0,-0.007c0,-0.08 0.051,-0.136 0.126,-0.136Z" style="fill:#192a30;fill-rule:nonzero;"/>
                </g>
                <g transform="matrix(25.5962,0,0,25.5962,318.398,548.598)">
                    <path d="M0.279,0.012c0.1,0 0.171,-0.047 0.205,-0.132l-0.083,-0.044c-0.022,0.052 -0.059,0.086 -0.122,0.086c-0.08,0 -0.121,-0.055 -0.121,-0.135l-0,-0.093c-0,-0.08 0.041,-0.135 0.121,-0.135c0.059,0 0.096,0.031 0.111,0.079l0.09,-0.042c-0.031,-0.077 -0.097,-0.128 -0.201,-0.128c-0.15,0 -0.236,0.106 -0.236,0.272c0,0.166 0.086,0.272 0.236,0.272Z" style="fill:#192a30;fill-rule:nonzero;"/>
                </g>
                <g transform="matrix(25.5962,0,0,25.5962,331.452,548.598)">
                    <path d="M0.317,-0l0,-0.089l-0.101,0l0,-0.342l0.109,0l0,-0.089l-0.109,0l-0,-0.142l-0.098,0l-0,0.091c-0,0.036 -0.012,0.051 -0.048,0.051l-0.044,0l-0,0.089l0.081,0l-0,0.318c-0,0.071 0.04,0.113 0.115,0.113l0.095,0Z" style="fill:#192a30;fill-rule:nonzero;"/>
                </g>
            </g>
        </g>
        <g transform="matrix(1.21154,0,0,1.18919,0,4572.88)">
            <g transform="matrix(2.22156,0,0,0.243014,130.436,-313.06)">
                <rect x="133.981" y="2243.29" width="39.879" height="375.074" style="fill:#6598aa;"/>
            </g>
        </g>
        <g transform="matrix(1.21154,0,0,1.18919,0,4572.88)">
            <g transform="matrix(0.442772,0,0,1.16354,-728.058,156.13)">
                <g transform="matrix(1.86416,-0,-0,0.722717,1857.61,65.2841)">
                    <path d="M383.267,54.786l20.955,-0.59l-12.101,17.118l-8.854,-16.528Z" style="fill:#192a30;"/>
                    <path d="M208.829,158.865c0,0 138.252,-74.059 182.17,-97.586" style="fill:none;stroke:#192a30;stroke-width:5px;stroke-dasharray:15,10,0,0;"/>
                </g>
            </g>
        </g>
        <g transform="matrix(1.21154,0,0,1.18919,0,4572.88)">
            <g transform="matrix(0.442772,0,0,1.16354,-728.058,144.495)">
                <g transform="matrix(1.86416,-0,-0,0.722717,1857.61,75.2841)">
                    <path d="M221.737,126.77l-12.908,18.259l22.352,-0.629l-9.444,-17.63Z" style="fill:#192a30;"/>
                    <path d="M222.933,137.473c44.855,-24.028 181.289,-97.113 181.289,-97.113" style="fill:none;stroke:#192a30;stroke-width:3.33px;"/>
                </g>
            </g>
        </g>
        <g transform="matrix(1.21154,0,0,1.18919,0,4572.88)">
            <g transform="matrix(2.22156,0,0,0.243014,130.436,-179.683)">
                <rect x="133.981" y="2243.29" width="39.879" height="375.074" style="fill:#6598aa;"/>
            </g>
        </g>
        <g transform="matrix(1.21154,0,0,1.18919,0,4572.88)">
            <g transform="matrix(2.22156,0,0,0.243014,130.436,-46.3056)">
                <rect x="133.981" y="2243.29" width="39.879" height="375.074" style="fill:#6598aa;"/>
            </g>
        </g>
    </g>
</svg>
