<?xml version="1.0" encoding="UTF-8" standalone="no"?>
<!DOCTYPE svg PUBLIC "-//W3C//DTD SVG 1.1//EN" "http://www.w3.org/Graphics/SVG/1.1/DTD/svg11.dtd">
<!--Copyright 2021 Tom Rothe-->
<svg width="100%" height="100%" viewBox="0 0 481 234" version="1.1" xmlns="http://www.w3.org/2000/svg" xmlns:xlink="http://www.w3.org/1999/xlink" xml:space="preserve" xmlns:serif="http://www.serif.com/" style="fill-rule:evenodd;clip-rule:evenodd;stroke-miterlimit:1.5;">
    <rect x="194.94" y="60.726" width="64.997" height="111.569" style="fill:#fff;"/>
    <rect x="5.634" y="5.634" width="221.805" height="221.754" style="fill:#fff;"/>
    <path d="M227.438,60.726l0,-55.092l-221.804,-0l-0,221.754l221.804,0l0,-55.093" style="fill:none;stroke:#2d4765;stroke-width:6.25px;"/>
    <path d="M227.438,60.726l0,111.569" style="fill:none;stroke:#2d4765;stroke-width:6.25px;stroke-dasharray:12.5,12.5,0,0;stroke-dashoffset:15.63;"/>
    <rect x="258.355" y="5.634" width="221.805" height="221.754" style="fill:#fff;"/>
    <path d="M314.967,212.591c3.436,0 6.128,-1.487 7.509,-3.718l-2.267,-2.232c-1.062,1.7 -2.585,2.763 -4.852,2.763c-3.117,-0 -4.852,-2.019 -4.852,-4.852l-0,-0.602l12.644,-0l-0,-1.452c-0,-5.1 -2.763,-9.173 -8.182,-9.173c-5.241,-0 -8.464,3.754 -8.464,9.633c-0,5.879 3.223,9.633 8.464,9.633Zm0,-16.256c2.55,0 4.109,1.877 4.109,4.71l-0,0.355l-8.571,-0l-0,-0.248c-0,-2.834 1.806,-4.817 4.462,-4.817Z" style="fill:#28424c;fill-rule:nonzero;"/>
    <path d="M324.884,212.166l4.108,0l4.428,-6.693l0.106,-0l4.25,6.693l4.462,0l-6.41,-9.35l6.304,-9.066l-4.108,-0l-4.25,6.41l-0.107,0l-4.143,-6.41l-4.463,-0l6.304,9.102l-6.481,9.314Z" style="fill:#28424c;fill-rule:nonzero;"/>
    <path d="M354.174,212.166l-0,-3.152l-3.577,0l-0,-12.112l3.86,-0l0,-3.152l-3.86,-0l-0,-5.03l-3.471,0l-0,3.223c-0,1.275 -0.425,1.807 -1.7,1.807l-1.559,-0l0,3.152l2.869,-0l0,11.262c0,2.515 1.417,4.002 4.073,4.002l3.365,0Z" style="fill:#28424c;fill-rule:nonzero;"/>
    <path d="M365.72,212.591c3.435,0 6.127,-1.487 7.508,-3.718l-2.267,-2.232c-1.062,1.7 -2.585,2.763 -4.852,2.763c-3.117,-0 -4.852,-2.019 -4.852,-4.852l0,-0.602l12.644,-0l-0,-1.452c-0,-5.1 -2.763,-9.173 -8.181,-9.173c-5.242,-0 -8.465,3.754 -8.465,9.633c-0,5.879 3.223,9.633 8.465,9.633Zm-0,-16.256c2.55,0 4.108,1.877 4.108,4.71l-0,0.355l-8.571,-0l0,-0.248c0,-2.834 1.806,-4.817 4.463,-4.817Z" style="fill:#28424c;fill-rule:nonzero;"/>
    <path d="M382.047,212.166l-0,-12.325c-0,-2.16 1.983,-3.187 4.002,-3.187c2.373,-0 3.471,1.452 3.471,4.321l-0,11.191l3.86,0l-0,-11.687c-0,-4.534 -2.231,-7.154 -5.985,-7.154c-2.834,-0 -4.392,1.487 -5.171,3.47l-0.177,0l-0,-3.045l-3.861,-0l0,18.416l3.861,0Z" style="fill:#28424c;fill-rule:nonzero;"/>
    <path d="M404.572,212.591c4.427,0 7.295,-2.373 7.295,-5.914c0,-2.975 -1.806,-4.746 -5.843,-5.348l-1.7,-0.213c-1.948,-0.318 -2.834,-0.956 -2.834,-2.373c0,-1.381 0.992,-2.302 3.117,-2.302c1.983,0 3.542,0.957 4.498,2.09l2.373,-2.267c-1.665,-1.841 -3.542,-2.939 -6.871,-2.939c-4.037,-0 -6.835,2.089 -6.835,5.666c-0,3.4 2.302,5.029 6.056,5.49l1.7,0.212c1.912,0.248 2.621,1.134 2.621,2.302c-0,1.559 -1.134,2.48 -3.365,2.48c-2.196,-0 -3.86,-0.992 -5.206,-2.621l-2.479,2.266c1.735,2.161 4.002,3.471 7.473,3.471Z" style="fill:#28424c;fill-rule:nonzero;"/>
    <path d="M418.172,190.456c1.593,-0 2.266,-0.85 2.266,-2.019l0,-0.602c0,-1.169 -0.673,-2.019 -2.266,-2.019c-1.594,0 -2.302,0.85 -2.302,2.019l-0,0.602c-0,1.169 0.708,2.019 2.302,2.019Zm-1.948,21.71l3.86,0l0,-18.416l-3.86,-0l-0,18.416Z" style="fill:#28424c;fill-rule:nonzero;"/>
    <path d="M432.834,212.591c5.136,0 8.465,-3.754 8.465,-9.633c-0,-5.879 -3.329,-9.633 -8.465,-9.633c-5.135,-0 -8.464,3.754 -8.464,9.633c-0,5.879 3.329,9.633 8.464,9.633Zm0,-3.187c-2.621,-0 -4.392,-1.629 -4.392,-4.888l0,-3.116c0,-3.259 1.771,-4.888 4.392,-4.888c2.621,0 4.392,1.629 4.392,4.888l-0,3.116c-0,3.259 -1.771,4.888 -4.392,4.888Z" style="fill:#28424c;fill-rule:nonzero;"/>
    <path d="M449.445,212.166l-0,-12.325c-0,-2.16 1.983,-3.187 4.002,-3.187c2.373,-0 3.47,1.452 3.47,4.321l0,11.191l3.861,0l-0,-11.687c-0,-4.534 -2.231,-7.154 -5.986,-7.154c-2.833,-0 -4.391,1.487 -5.17,3.47l-0.177,0l-0,-3.045l-3.861,-0l0,18.416l3.861,0Z" style="fill:#28424c;fill-rule:nonzero;"/>
    <path d="M133.158,210.821l3.86,0l0,-15.264l7.084,-0l-0,15.264l3.86,0l0,-18.416l-10.944,-0l0,-4.64l3.861,-0l-0,-3.152l-3.046,-0c-3.081,-0 -4.675,1.771 -4.675,4.746l-0,3.046l-2.798,-0l-0,3.152l2.798,-0l-0,15.264Zm12.892,-21.71c1.593,-0 2.266,-0.85 2.266,-2.019l0,-0.602c0,-1.169 -0.673,-2.019 -2.266,-2.019c-1.594,0 -2.303,0.85 -2.303,2.019l0,0.602c0,1.169 0.709,2.019 2.303,2.019Z" style="fill:#28424c;fill-rule:nonzero;"/>
    <path d="M151.433,210.821l4.108,0l4.427,-6.694l0.107,0l4.25,6.694l4.462,0l-6.41,-9.35l6.304,-9.066l-4.109,-0l-4.25,6.41l-0.106,-0l-4.144,-6.41l-4.462,-0l6.304,9.102l-6.481,9.314Z" style="fill:#28424c;fill-rule:nonzero;"/>
    <path d="M178.987,211.246c3.435,0 6.127,-1.487 7.508,-3.719l-2.266,-2.231c-1.063,1.7 -2.586,2.763 -4.852,2.763c-3.117,-0 -4.852,-2.019 -4.852,-4.852l-0,-0.602l12.643,-0l0,-1.453c0,-5.1 -2.762,-9.172 -8.181,-9.172c-5.242,-0 -8.465,3.754 -8.465,9.633c0,5.879 3.223,9.633 8.465,9.633Zm0,-16.256c2.55,-0 4.108,1.877 4.108,4.71l0,0.355l-8.57,-0l-0,-0.248c-0,-2.834 1.806,-4.817 4.462,-4.817Z" style="fill:#28424c;fill-rule:nonzero;"/>
    <path d="M203.035,210.821l3.86,0l0,-26.208l-3.86,-0l-0,10.837l-0.177,0c-0.779,-2.195 -2.727,-3.47 -5.171,-3.47c-4.64,-0 -7.331,3.577 -7.331,9.633c-0,6.056 2.691,9.633 7.331,9.633c2.444,0 4.392,-1.31 5.171,-3.471l0.177,0l-0,3.046Zm-4.179,-2.904c-2.656,0 -4.427,-1.877 -4.427,-4.71l-0,-3.188c-0,-2.833 1.771,-4.71 4.427,-4.71c2.337,-0 4.179,1.275 4.179,3.152l-0,6.304c-0,1.877 -1.842,3.152 -4.179,3.152Z" style="fill:#28424c;fill-rule:nonzero;"/>
</svg>
