<?xml version="1.0" encoding="UTF-8" standalone="no"?>
<!DOCTYPE svg PUBLIC "-//W3C//DTD SVG 1.1//EN" "http://www.w3.org/Graphics/SVG/1.1/DTD/svg11.dtd">
<!--Copyright 2021 Tom Rothe-->
<svg width="100%" height="100%" viewBox="0 0 501 469" version="1.1" xmlns="http://www.w3.org/2000/svg" xmlns:xlink="http://www.w3.org/1999/xlink" xml:space="preserve" xmlns:serif="http://www.serif.com/" style="fill-rule:evenodd;clip-rule:evenodd;stroke-linecap:square;stroke-linejoin:round;stroke-miterlimit:1.5;">
    <rect x="153.323" y="274.18" width="194.333" height="194.78" style="fill:#ad4ca9;"/>
    <path d="M439.237,185.983l-15.625,-31.25l-15.625,31.25l31.25,-0Z" style="fill:#ad4ca9;"/>
    <path d="M423.612,179.733l0,174.176c0,4.684 -1.861,9.176 -5.173,12.488c-3.312,3.312 -7.804,5.173 -12.487,5.173l-58.296,-0" style="fill:none;stroke:#ad4ca9;stroke-width:10.42px;stroke-dasharray:20.83,31.25,0,0;stroke-dashoffset:31.25;"/>
    <path d="M122.073,355.945l31.25,15.625l-31.25,15.625l-0,-31.25Z" style="fill:#fff;"/>
    <path d="M77.366,132.192c0,-0 0,166.377 0,221.717c0,4.684 1.861,9.176 5.173,12.488c3.312,3.312 7.804,5.173 12.488,5.173l33.296,-0" style="fill:none;stroke:#fff;stroke-width:10.42px;stroke-linecap:butt;"/>
    <circle cx="423.211" cy="77.366" r="77.366" style="fill:#fff;"/>
    <circle cx="77.366" cy="77.366" r="77.366" style="fill:#fff;"/>
    <path d="M185.983,61.741l-31.25,15.625l31.25,15.625l-0,-31.25Z" style="fill:#fff;"/>
    <path d="M316.005,61.741l31.25,15.625l-31.25,15.625l-0,-31.25Z" style="fill:#fff;"/>
    <path d="M179.733,77.366l142.522,0" style="fill:none;stroke:#fff;stroke-width:10.42px;stroke-linecap:butt;"/>
    <path d="M361.214,90.754c5.136,-0 8.465,-3.754 8.465,-9.633c-0,-5.88 -3.329,-9.634 -8.465,-9.634c-5.135,0 -8.464,3.754 -8.464,9.634c-0,5.879 3.329,9.633 8.464,9.633Zm0,-3.188c-2.621,0 -4.392,-1.629 -4.392,-4.887l0,-3.117c0,-3.258 1.771,-4.887 4.392,-4.887c2.621,-0 4.392,1.629 4.392,4.887l-0,3.117c-0,3.258 -1.771,4.887 -4.392,4.887Z" style="fill:#46101e;fill-rule:nonzero;"/>
    <path d="M373.964,90.329l3.861,-0l-0,-3.046l0.177,0c0.779,2.16 2.727,3.471 5.17,3.471c4.64,-0 7.332,-3.577 7.332,-9.633c-0,-6.057 -2.692,-9.634 -7.332,-9.634c-2.443,0 -4.391,1.275 -5.17,3.471l-0.177,0l-0,-10.837l-3.861,-0l0,26.208Zm8.04,-2.904c-2.338,-0 -4.179,-1.275 -4.179,-3.152l-0,-6.305c-0,-1.877 1.841,-3.152 4.179,-3.152c2.656,0 4.427,1.877 4.427,4.711l-0,3.187c-0,2.834 -1.771,4.711 -4.427,4.711Z" style="fill:#46101e;fill-rule:nonzero;"/>
    <path d="M400.775,90.754c4.427,-0 7.295,-2.373 7.295,-5.915c0,-2.975 -1.806,-4.746 -5.843,-5.348l-1.7,-0.212c-1.948,-0.319 -2.834,-0.956 -2.834,-2.373c0,-1.381 0.992,-2.302 3.117,-2.302c1.983,-0 3.542,0.956 4.498,2.089l2.373,-2.266c-1.665,-1.842 -3.542,-2.94 -6.871,-2.94c-4.038,0 -6.835,2.09 -6.835,5.667c-0,3.4 2.302,5.029 6.056,5.489l1.7,0.213c1.912,0.248 2.621,1.133 2.621,2.302c-0,1.558 -1.134,2.479 -3.365,2.479c-2.196,0 -3.86,-0.991 -5.206,-2.621l-2.479,2.267c1.735,2.16 4.002,3.471 7.473,3.471Z" style="fill:#46101e;fill-rule:nonzero;"/>
    <path d="M419.652,90.754c3.435,-0 6.127,-1.488 7.508,-3.719l-2.267,-2.231c-1.062,1.7 -2.585,2.762 -4.852,2.762c-3.116,0 -4.852,-2.018 -4.852,-4.852l0,-0.602l12.644,0l-0,-1.452c-0,-5.1 -2.763,-9.173 -8.181,-9.173c-5.242,0 -8.465,3.754 -8.465,9.634c0,5.879 3.223,9.633 8.465,9.633Zm-0,-16.256c2.55,-0 4.108,1.877 4.108,4.71l-0,0.354l-8.571,0l0,-0.248c0,-2.833 1.806,-4.816 4.463,-4.816Z" style="fill:#46101e;fill-rule:nonzero;"/>
    <path d="M435.979,90.329l-0,-11.758c-0,-1.913 1.7,-2.94 4.746,-2.94l1.522,-0l0,-3.719l-1.027,0c-2.939,0 -4.533,1.665 -5.064,3.542l-0.177,-0l-0,-3.542l-3.861,0l0,18.417l3.861,-0Z" style="fill:#46101e;fill-rule:nonzero;"/>
    <path d="M454.537,90.329l6.34,-18.417l-3.684,0l-2.868,8.394l-1.878,6.446l-0.212,-0l-1.877,-6.446l-2.798,-8.394l-3.825,0l6.269,18.417l4.533,-0Z" style="fill:#46101e;fill-rule:nonzero;"/>
    <path d="M471.077,90.754c3.435,-0 6.127,-1.488 7.508,-3.719l-2.267,-2.231c-1.062,1.7 -2.585,2.762 -4.852,2.762c-3.116,0 -4.852,-2.018 -4.852,-4.852l0,-0.602l12.644,0l-0,-1.452c-0,-5.1 -2.763,-9.173 -8.181,-9.173c-5.242,0 -8.465,3.754 -8.465,9.634c0,5.879 3.223,9.633 8.465,9.633Zm-0,-16.256c2.55,-0 4.108,1.877 4.108,4.71l-0,0.354l-8.571,0l0,-0.248c0,-2.833 1.806,-4.816 4.463,-4.816Z" style="fill:#46101e;fill-rule:nonzero;"/>
    <path d="M487.404,90.329l-0,-11.758c-0,-1.913 1.7,-2.94 4.746,-2.94l1.522,-0l0,-3.719l-1.027,0c-2.939,0 -4.533,1.665 -5.064,3.542l-0.177,-0l-0,-3.542l-3.861,0l0,18.417l3.861,-0Z" style="fill:#46101e;fill-rule:nonzero;"/>
    <path d="M221.129,384.886c3.542,0 6.056,-1.664 7.26,-4.675l-2.939,-1.558c-0.779,1.842 -2.09,3.046 -4.321,3.046c-2.833,-0 -4.286,-1.948 -4.286,-4.781l0,-3.294c0,-2.834 1.453,-4.781 4.286,-4.781c2.089,-0 3.4,1.097 3.931,2.797l3.188,-1.487c-1.098,-2.727 -3.436,-4.533 -7.119,-4.533c-5.313,-0 -8.358,3.754 -8.358,9.633c-0,5.879 3.045,9.633 8.358,9.633Z" style="fill:#46101e;fill-rule:nonzero;"/>
    <path d="M239.085,384.886c5.136,0 8.465,-3.754 8.465,-9.633c-0,-5.879 -3.329,-9.633 -8.465,-9.633c-5.135,-0 -8.464,3.754 -8.464,9.633c-0,5.879 3.329,9.633 8.464,9.633Zm0,-3.187c-2.621,-0 -4.392,-1.629 -4.392,-4.888l0,-3.116c0,-3.259 1.771,-4.888 4.392,-4.888c2.621,0 4.392,1.629 4.392,4.888l-0,3.116c-0,3.259 -1.771,4.888 -4.392,4.888Z" style="fill:#46101e;fill-rule:nonzero;"/>
    <path d="M263.416,384.461l3.861,0l-0,-26.208l-3.861,-0l0,10.837l-0.177,0c-0.779,-2.195 -2.727,-3.47 -5.171,-3.47c-4.639,-0 -7.331,3.577 -7.331,9.633c0,6.056 2.692,9.633 7.331,9.633c2.444,0 4.392,-1.31 5.171,-3.471l0.177,0l0,3.046Zm-4.179,-2.904c-2.656,0 -4.427,-1.877 -4.427,-4.71l0,-3.188c0,-2.833 1.771,-4.71 4.427,-4.71c2.338,-0 4.179,1.275 4.179,3.152l0,6.304c0,1.877 -1.841,3.152 -4.179,3.152Z" style="fill:#46101e;fill-rule:nonzero;"/>
    <path d="M280.027,384.886c3.435,0 6.127,-1.487 7.508,-3.718l-2.267,-2.232c-1.062,1.7 -2.585,2.763 -4.852,2.763c-3.116,-0 -4.852,-2.019 -4.852,-4.852l0,-0.602l12.644,-0l0,-1.452c0,-5.1 -2.762,-9.173 -8.181,-9.173c-5.242,-0 -8.465,3.754 -8.465,9.633c0,5.879 3.223,9.633 8.465,9.633Zm-0,-16.256c2.55,0 4.108,1.877 4.108,4.71l0,0.355l-8.571,-0l0,-0.248c0,-2.834 1.807,-4.817 4.463,-4.817Z" style="fill:#46101e;fill-rule:nonzero;"/>
    <path d="M43.703,90.329l3.86,-0l0,-26.208l-3.86,-0l-0,10.837l-0.177,0c-0.779,-2.196 -2.727,-3.471 -5.171,-3.471c-4.64,0 -7.331,3.577 -7.331,9.634c-0,6.056 2.691,9.633 7.331,9.633c2.444,-0 4.392,-1.311 5.171,-3.471l0.177,0l-0,3.046Zm-4.179,-2.904c-2.657,-0 -4.427,-1.877 -4.427,-4.711l-0,-3.187c-0,-2.834 1.77,-4.711 4.427,-4.711c2.337,0 4.179,1.275 4.179,3.152l-0,6.305c-0,1.877 -1.842,3.152 -4.179,3.152Z" style="fill:#46101e;fill-rule:nonzero;"/>
    <path d="M56.949,90.329l-0,-11.758c-0,-1.913 1.7,-2.94 4.746,-2.94l1.522,-0l0,-3.719l-1.027,0c-2.939,0 -4.533,1.665 -5.064,3.542l-0.177,-0l-0,-3.542l-3.861,0l0,18.417l3.861,-0Z" style="fill:#46101e;fill-rule:nonzero;"/>
    <path d="M68.601,68.618c1.594,0 2.266,-0.85 2.266,-2.018l0,-0.602c0,-1.169 -0.672,-2.019 -2.266,-2.019c-1.594,-0 -2.302,0.85 -2.302,2.019l-0,0.602c-0,1.168 0.708,2.018 2.302,2.018Zm-1.948,21.711l3.86,-0l0,-18.417l-3.86,0l-0,18.417Z" style="fill:#46101e;fill-rule:nonzero;"/>
    <path d="M84.574,90.329l6.339,-18.417l-3.683,0l-2.869,8.394l-1.877,6.446l-0.212,-0l-1.877,-6.446l-2.798,-8.394l-3.825,0l6.268,18.417l4.534,-0Z" style="fill:#46101e;fill-rule:nonzero;"/>
    <path d="M101.113,90.754c3.436,-0 6.127,-1.488 7.509,-3.719l-2.267,-2.231c-1.063,1.7 -2.585,2.762 -4.852,2.762c-3.117,0 -4.852,-2.018 -4.852,-4.852l-0,-0.602l12.644,0l-0,-1.452c-0,-5.1 -2.763,-9.173 -8.182,-9.173c-5.241,0 -8.464,3.754 -8.464,9.634c-0,5.879 3.223,9.633 8.464,9.633Zm0,-16.256c2.55,-0 4.109,1.877 4.109,4.71l-0,0.354l-8.571,0l-0,-0.248c-0,-2.833 1.806,-4.816 4.462,-4.816Z" style="fill:#46101e;fill-rule:nonzero;"/>
    <path d="M117.44,90.329l0,-11.758c0,-1.913 1.7,-2.94 4.746,-2.94l1.523,-0l0,-3.719l-1.027,0c-2.94,0 -4.533,1.665 -5.065,3.542l-0.177,-0l0,-3.542l-3.86,0l-0,18.417l3.86,-0Z" style="fill:#46101e;fill-rule:nonzero;"/>
</svg>
