<?xml version="1.0" encoding="UTF-8" standalone="no"?>
<!DOCTYPE svg PUBLIC "-//W3C//DTD SVG 1.1//EN" "http://www.w3.org/Graphics/SVG/1.1/DTD/svg11.dtd">
<!--Copyright 2021 Tom Rothe-->
<svg width="100%" height="100%" viewBox="0 0 285 474" version="1.1" xmlns="http://www.w3.org/2000/svg" xmlns:xlink="http://www.w3.org/1999/xlink" xml:space="preserve" xmlns:serif="http://www.serif.com/" style="fill-rule:evenodd;clip-rule:evenodd;stroke-linejoin:round;stroke-miterlimit:1.5;">
    <path d="M8.828,473.046l-8.828,0l0,-3.333l8.828,-0l-0,3.333Zm20,0l-0,-3.333l-10,-0l-0,3.333l10,0Zm20,0l-0,-3.333l-10,-0l-0,3.333l10,0Zm20,0l0,-3.333l-10,-0l-0,3.333l10,0Zm20,0l0,-3.333l-10,-0l0,3.333l10,0Zm20,0l0,-3.333l-10,-0l0,3.333l10,0Zm10,0l10,0l0,-3.333l-10,-0l0,3.333Zm30,0l0,-3.333l-10,-0l0,3.333l10,0Zm10,0l10,0l0,-3.333l-10,-0l0,3.333Zm30,0l0,-3.333l-10,-0l0,3.333l10,0Zm20.001,0l-0,-3.333l-10.001,-0l0,3.333l10.001,0Zm10,0l10,0l-0,-3.333l-10,-0l-0,3.333Zm30,0l-0,-3.333l-10,-0l-0,3.333l10,0Zm20,0l-0,-3.333l-10,-0l-0,3.333l10,0Zm15.383,0l0,-4.616l-3.333,0l0,1.283l-2.05,-0l-0,3.333l5.383,0Zm-284.212,-21.172l0,10l3.333,0l0,-10l-3.333,0Zm284.212,-3.444l-3.333,0l0,10l3.333,0l0,-10Zm-284.212,-16.556l0,10l3.333,0l0,-10l-3.333,0Zm284.212,-3.444l-3.333,0l0,10.001l3.333,-0l0,-10.001Zm-284.212,-16.556l0,10l3.333,0l0,-10l-3.333,0Zm284.212,-3.444l-3.333,0l0,10l3.333,0l0,-10Zm-284.212,-16.556l0,10l3.333,0l0,-10l-3.333,0Zm284.212,-3.444l-3.333,0l0,10l3.333,0l0,-10Zm-284.212,-16.555l0,10l3.333,-0l0,-10l-3.333,-0Zm284.212,-3.445l-3.333,0l0,10l3.333,0l0,-10Zm-284.212,-16.556l0,10l3.333,0l0,-10l-3.333,0Zm284.212,-3.444l-3.333,-0l0,10l3.333,0l0,-10Zm-284.212,-16.556l0,10l3.333,0l0,-10l-3.333,0Zm284.212,-3.444l-3.333,-0l0,10l3.333,-0l0,-10Zm-284.212,-16.556l0,10l3.333,0l0,-10l-3.333,0Zm284.212,-3.445l-3.333,0l0,10l3.333,0l0,-10Zm-284.212,-16.555l0,10l3.333,0l0,-10l-3.333,0Zm284.212,-3.444l-3.333,-0l0,10l3.333,-0l0,-10Zm-284.212,-16.556l0,10l3.333,0l0,-10l-3.333,0Zm284.212,-3.444l-3.333,-0l0,10l3.333,-0l0,-10Zm-284.212,-16.556l0,10l3.333,0l0,-10l-3.333,0Zm284.212,-3.444l-3.333,-0l0,9.999l3.333,0l0,-9.999Zm-284.212,-16.555l0,9.999l3.333,0l0,-9.999l-3.333,-0Zm284.212,-3.445l-3.333,-0l0,10l3.333,-0l0,-10Zm-284.212,-16.556l0,10l3.333,0l0,-10l-3.333,0Zm284.212,-3.444l-3.333,-0l0,10l3.333,-0l0,-10Zm-284.212,-16.556l0,10l3.333,0l0,-10l-3.333,0Zm284.212,-3.444l-3.333,0l0,10l3.333,-0l0,-10Zm-284.212,-16.556l0,10l3.333,0l0,-10l-3.333,0Zm284.212,-3.444l-3.333,-0l0,10l3.333,0l0,-10Zm-284.212,-16.556l0,10l3.333,0l0,-10l-3.333,0Zm284.212,-3.444l-3.333,-0l0,10l3.333,-0l0,-10Zm-284.212,-16.556l0,10l3.333,0l0,-10l-3.333,0Zm284.212,-3.444l-3.333,0l0,10l3.333,-0l0,-10Zm-284.212,-16.555l0,9.999l3.333,0l0,-9.999l-3.333,-0Zm284.212,-3.445l-3.333,-0l0,10l3.333,-0l0,-10Zm-284.212,-16.556l0,10l3.333,0l0,-10l-3.333,0Zm284.212,-3.444l-3.333,-0l0,10l3.333,-0l0,-10Zm-284.212,-16.556l0,10l3.333,0l0,-10l-3.333,0Zm284.212,-3.444l-3.333,-0l0,10l3.333,-0l0,-10Zm-284.212,-16.555l0,9.999l3.333,0l0,-9.999l-3.333,-0Zm284.212,-3.445l-3.333,-0l0,10l3.333,-0l0,-10Zm0,-5.676l-6.666,-0l-0,-3.334l6.666,0l0,3.334Zm-216.666,-3.334l-10,0l-0,3.334l10,-0l-0,-3.334Zm20,0l-10,0l0,3.334l10,-0l-0,-3.334Zm60,0l-10,0l0,3.334l10,-0l0,-3.334Zm20,0l-10,0l-0,3.334l10,-0l0,-3.334Zm40,0l-10,0l0,3.334l10,-0l-0,-3.334Zm20,0l-10,0l-0,3.334l10,-0l0,-3.334Zm-180,0l-10,0l-0,3.334l10,-0l-0,-3.334Zm60,0l-10,0l-0,3.334l10,-0l-0,-3.334Zm20,0l-10,0l0,3.334l10,-0l0,-3.334Zm-100,0l-10,0l-0,3.334l10,-0l-0,-3.334Zm160,0l-10,0l0,3.334l10,-0l-0,-3.334Zm60,0l-10,0l-0,3.334l10,-0l-0,-3.334Zm20,0l-10,0l0,3.334l10,-0l0,-3.334Zm-260,3.334l-7.546,-0l0,-3.334l7.546,0l-0,3.334Z" style="fill:#ad4ca9;"/>
    <rect x="-0" y="192.4" width="284.212" height="280.646" style="fill:#fff;"/>
    <path d="M157.731,161.15l-15.625,31.25l-15.625,-31.25l31.25,0Z" style="fill:#fff;"/>
    <path d="M142.106,44.194l0,123.206" style="fill:none;stroke:#fff;stroke-width:10.42px;"/>
    <path d="M46.906,451.388c3.542,-0 6.056,-1.665 7.261,-4.675l-2.94,-1.558c-0.779,1.841 -2.09,3.045 -4.321,3.045c-2.833,0 -4.285,-1.947 -4.285,-4.781l-0,-3.294c-0,-2.833 1.452,-4.781 4.285,-4.781c2.09,0 3.4,1.098 3.931,2.798l3.188,-1.487c-1.098,-2.727 -3.435,-4.534 -7.119,-4.534c-5.312,0 -8.358,3.754 -8.358,9.634c-0,5.879 3.046,9.633 8.358,9.633Z" style="fill:#46101e;fill-rule:nonzero;"/>
    <path d="M64.862,451.388c5.136,-0 8.465,-3.754 8.465,-9.633c0,-5.88 -3.329,-9.634 -8.465,-9.634c-5.135,0 -8.464,3.754 -8.464,9.634c-0,5.879 3.329,9.633 8.464,9.633Zm0,-3.188c-2.62,0 -4.391,-1.629 -4.391,-4.887l-0,-3.117c-0,-3.258 1.771,-4.887 4.391,-4.887c2.621,-0 4.392,1.629 4.392,4.887l0,3.117c0,3.258 -1.771,4.887 -4.392,4.887Z" style="fill:#46101e;fill-rule:nonzero;"/>
    <path d="M81.473,450.963l-0,-12.325c-0,-2.16 1.983,-3.188 4.002,-3.188c2.373,0 3.471,1.453 3.471,4.321l-0,11.192l3.86,-0l0,-11.688c0,-4.533 -2.231,-7.154 -5.985,-7.154c-2.834,0 -4.392,1.488 -5.171,3.471l-0.177,0l-0,-3.046l-3.861,0l0,18.417l3.861,-0Z" style="fill:#46101e;fill-rule:nonzero;"/>
    <path d="M103.998,451.388c4.427,-0 7.296,-2.373 7.296,-5.915c-0,-2.975 -1.807,-4.745 -5.844,-5.348l-1.7,-0.212c-1.948,-0.319 -2.833,-0.956 -2.833,-2.373c-0,-1.381 0.991,-2.302 3.116,-2.302c1.984,-0 3.542,0.956 4.498,2.09l2.373,-2.267c-1.664,-1.842 -3.542,-2.94 -6.871,-2.94c-4.037,0 -6.835,2.09 -6.835,5.667c-0,3.4 2.302,5.029 6.056,5.49l1.7,0.212c1.913,0.248 2.621,1.133 2.621,2.302c-0,1.558 -1.133,2.479 -3.365,2.479c-2.195,0 -3.86,-0.991 -5.206,-2.621l-2.479,2.267c1.735,2.161 4.002,3.471 7.473,3.471Z" style="fill:#46101e;fill-rule:nonzero;"/>
    <path d="M126.806,450.963l3.861,-0l-0,-18.417l-3.861,0l0,12.325c0,2.161 -1.948,3.188 -3.931,3.188c-2.373,-0 -3.542,-1.488 -3.542,-4.286l0,-11.227l-3.86,0l-0,11.723c-0,4.534 2.231,7.119 6.021,7.119c3.046,-0 4.498,-1.665 5.171,-3.471l0.141,0l0,3.046Z" style="fill:#46101e;fill-rule:nonzero;"/>
    <path d="M140.052,450.963l0,-12.36c0,-2.125 1.877,-3.153 3.79,-3.153c2.266,0 3.364,1.417 3.364,4.286l0,11.227l3.861,-0l-0,-12.36c-0,-2.125 1.806,-3.153 3.754,-3.153c2.337,0 3.4,1.453 3.4,4.286l-0,11.227l3.86,-0l0,-11.688c0,-4.533 -2.16,-7.154 -5.808,-7.154c-2.975,0 -4.888,1.7 -5.561,3.754l-0.106,0c-0.885,-2.55 -2.975,-3.754 -5.454,-3.754c-2.798,0 -4.179,1.559 -4.923,3.471l-0.177,0l0,-3.046l-3.86,0l-0,18.417l3.86,-0Z" style="fill:#46101e;fill-rule:nonzero;"/>
    <path d="M167.429,458.046l3.861,0l-0,-10.129l0.177,0c0.779,2.161 2.727,3.471 5.17,3.471c4.64,-0 7.332,-3.577 7.332,-9.633c-0,-6.057 -2.692,-9.634 -7.332,-9.634c-2.443,0 -4.391,1.275 -5.17,3.471l-0.177,0l-0,-3.046l-3.861,0l0,25.5Zm8.04,-9.987c-2.338,-0 -4.179,-1.275 -4.179,-3.152l-0,-6.304c-0,-1.878 1.841,-3.153 4.179,-3.153c2.656,0 4.427,1.878 4.427,4.711l-0,3.187c-0,2.834 -1.771,4.711 -4.427,4.711Z" style="fill:#46101e;fill-rule:nonzero;"/>
    <path d="M196.648,450.963l-0,-3.152l-3.577,-0l-0,-12.113l3.86,0l0,-3.152l-3.86,0l-0,-5.029l-3.471,0l-0,3.223c-0,1.275 -0.425,1.806 -1.7,1.806l-1.558,0l-0,3.152l2.868,0l0,11.263c0,2.514 1.417,4.002 4.073,4.002l3.365,-0Z" style="fill:#46101e;fill-rule:nonzero;"/>
    <path d="M203.058,429.253c1.594,-0 2.267,-0.85 2.267,-2.019l-0,-0.602c-0,-1.169 -0.673,-2.019 -2.267,-2.019c-1.593,-0 -2.302,0.85 -2.302,2.019l0,0.602c0,1.169 0.709,2.019 2.302,2.019Zm-1.948,21.71l3.861,-0l-0,-18.417l-3.861,0l0,18.417Z" style="fill:#46101e;fill-rule:nonzero;"/>
    <path d="M217.721,451.388c5.135,-0 8.464,-3.754 8.464,-9.633c0,-5.88 -3.329,-9.634 -8.464,-9.634c-5.136,0 -8.465,3.754 -8.465,9.634c0,5.879 3.329,9.633 8.465,9.633Zm-0,-3.188c-2.621,0 -4.392,-1.629 -4.392,-4.887l0,-3.117c0,-3.258 1.771,-4.887 4.392,-4.887c2.621,-0 4.391,1.629 4.391,4.887l0,3.117c0,3.258 -1.77,4.887 -4.391,4.887Z" style="fill:#46101e;fill-rule:nonzero;"/>
    <path d="M234.331,450.963l0,-12.325c0,-2.16 1.984,-3.188 4.002,-3.188c2.373,0 3.471,1.453 3.471,4.321l0,11.192l3.861,-0l-0,-11.688c-0,-4.533 -2.232,-7.154 -5.986,-7.154c-2.833,0 -4.392,1.488 -5.171,3.471l-0.177,0l0,-3.046l-3.86,0l-0,18.417l3.86,-0Z" style="fill:#46101e;fill-rule:nonzero;"/>
</svg>
