<?xml version="1.0" encoding="UTF-8" standalone="no"?>
<!DOCTYPE svg PUBLIC "-//W3C//DTD SVG 1.1//EN" "http://www.w3.org/Graphics/SVG/1.1/DTD/svg11.dtd">
<!--Copyright 2021 Tom Rothe-->
<svg width="100%" height="100%" viewBox="0 0 361 361" version="1.1" xmlns="http://www.w3.org/2000/svg" xmlns:xlink="http://www.w3.org/1999/xlink" xml:space="preserve" xmlns:serif="http://www.serif.com/" style="fill-rule:evenodd;clip-rule:evenodd;stroke-linejoin:round;stroke-miterlimit:1.5;">
    <rect x="-0" y="4.578" width="356.016" height="356.016" style="fill:#7d9bbf;"/>
    <rect x="38.687" y="120.575" width="203.382" height="203.382" style="fill:#fff;"/>
    <path d="M82.135,303.612l0,-3.152l-1.948,0l0,-9.244c0,-4.108 -2.656,-6.445 -7.402,-6.445c-3.577,-0 -5.737,1.523 -6.941,3.577l2.302,2.089c0.921,-1.452 2.231,-2.514 4.391,-2.514c2.586,-0 3.79,1.31 3.79,3.541l-0,1.559l-3.329,-0c-5.136,-0 -7.863,1.877 -7.863,5.525c0,3.329 2.161,5.489 5.95,5.489c2.692,0 4.675,-1.204 5.384,-3.506l0.177,0c0.248,1.806 1.31,3.081 3.329,3.081l2.16,0Zm-9.952,-2.514c-1.912,-0 -3.116,-0.85 -3.116,-2.479l-0,-0.638c-0,-1.594 1.31,-2.479 4.002,-2.479l3.258,-0l-0,2.656c-0,1.806 -1.771,2.94 -4.144,2.94Z" style="fill:#28424c;fill-rule:nonzero;"/>
    <path d="M97.506,303.612l3.861,0l-0,-26.208l-3.861,-0l0,10.837l-0.177,0c-0.779,-2.195 -2.727,-3.47 -5.171,-3.47c-4.639,-0 -7.331,3.577 -7.331,9.633c-0,6.056 2.692,9.633 7.331,9.633c2.444,0 4.392,-1.31 5.171,-3.471l0.177,0l0,3.046Zm-4.179,-2.904c-2.656,0 -4.427,-1.877 -4.427,-4.71l-0,-3.188c-0,-2.833 1.771,-4.71 4.427,-4.71c2.337,-0 4.179,1.275 4.179,3.152l0,6.304c0,1.877 -1.842,3.152 -4.179,3.152Z" style="fill:#28424c;fill-rule:nonzero;"/>
    <path d="M114.117,304.037c3.435,0 6.127,-1.487 7.508,-3.718l-2.267,-2.232c-1.062,1.7 -2.585,2.763 -4.852,2.763c-3.117,-0 -4.852,-2.019 -4.852,-4.852l0,-0.602l12.644,-0l-0,-1.452c-0,-5.1 -2.763,-9.173 -8.181,-9.173c-5.242,-0 -8.465,3.754 -8.465,9.633c-0,5.879 3.223,9.633 8.465,9.633Zm-0,-16.256c2.55,0 4.108,1.877 4.108,4.71l-0,0.355l-8.571,-0l0,-0.248c0,-2.834 1.806,-4.817 4.463,-4.817Z" style="fill:#28424c;fill-rule:nonzero;"/>
    <path d="M138.164,310.696l3.861,-0l-0,-25.5l-3.861,-0l0,3.045l-0.177,0c-0.779,-2.195 -2.727,-3.47 -5.17,-3.47c-4.64,-0 -7.332,3.577 -7.332,9.633c0,6.056 2.692,9.633 7.332,9.633c2.443,0 4.391,-1.31 5.17,-3.471l0.177,0l0,10.13Zm-4.179,-9.988c-2.656,0 -4.427,-1.877 -4.427,-4.71l0,-3.188c0,-2.833 1.771,-4.71 4.427,-4.71c2.338,-0 4.179,1.275 4.179,3.152l0,6.304c0,1.877 -1.841,3.152 -4.179,3.152Z" style="fill:#28424c;fill-rule:nonzero;"/>
    <path d="M158.706,303.612l3.861,0l-0,-18.416l-3.861,-0l0,12.325c0,2.16 -1.948,3.187 -3.931,3.187c-2.373,0 -3.542,-1.487 -3.542,-4.285l0,-11.227l-3.86,-0l-0,11.723c-0,4.533 2.231,7.118 6.021,7.118c3.045,0 4.498,-1.664 5.17,-3.471l0.142,0l0,3.046Z" style="fill:#28424c;fill-rule:nonzero;"/>
    <path d="M183.746,303.612l-0,-3.152l-1.948,0l-0,-9.244c-0,-4.108 -2.656,-6.445 -7.402,-6.445c-3.577,-0 -5.738,1.523 -6.942,3.577l2.302,2.089c0.921,-1.452 2.231,-2.514 4.392,-2.514c2.585,-0 3.789,1.31 3.789,3.541l0,1.559l-3.329,-0c-5.135,-0 -7.862,1.877 -7.862,5.525c-0,3.329 2.16,5.489 5.95,5.489c2.691,0 4.675,-1.204 5.383,-3.506l0.177,0c0.248,1.806 1.311,3.081 3.329,3.081l2.161,0Zm-9.952,-2.514c-1.913,-0 -3.117,-0.85 -3.117,-2.479l-0,-0.638c-0,-1.594 1.31,-2.479 4.002,-2.479l3.258,-0l0,2.656c0,1.806 -1.77,2.94 -4.143,2.94Z" style="fill:#28424c;fill-rule:nonzero;"/>
    <path d="M195.894,303.612l-0,-3.152l-3.577,0l-0,-12.112l3.86,-0l-0,-3.152l-3.86,-0l-0,-5.03l-3.471,0l-0,3.223c-0,1.275 -0.425,1.807 -1.7,1.807l-1.559,-0l0,3.152l2.869,-0l0,11.262c0,2.515 1.417,4.002 4.073,4.002l3.365,0Z" style="fill:#28424c;fill-rule:nonzero;"/>
    <path d="M207.439,304.037c3.436,0 6.128,-1.487 7.509,-3.718l-2.267,-2.232c-1.062,1.7 -2.585,2.763 -4.852,2.763c-3.117,-0 -4.852,-2.019 -4.852,-4.852l-0,-0.602l12.644,-0l-0,-1.452c-0,-5.1 -2.763,-9.173 -8.182,-9.173c-5.241,-0 -8.464,3.754 -8.464,9.633c-0,5.879 3.223,9.633 8.464,9.633Zm0,-16.256c2.55,0 4.109,1.877 4.109,4.71l-0,0.355l-8.571,-0l-0,-0.248c-0,-2.834 1.806,-4.817 4.462,-4.817Z" style="fill:#28424c;fill-rule:nonzero;"/>
    <path d="M302.689,41.726l24.76,-8.58l-7.991,24.955l-16.769,-16.375Z" style="fill:#2d4765;"/>
    <path d="M242.069,120.575c0,0 48.348,-49.509 72.28,-74.015" style="fill:none;stroke:#2d4765;stroke-width:6.25px;stroke-dasharray:18.75,12.5,0,0;"/>
</svg>
