<?xml version="1.0" encoding="UTF-8" standalone="no"?>
<!DOCTYPE svg PUBLIC "-//W3C//DTD SVG 1.1//EN" "http://www.w3.org/Graphics/SVG/1.1/DTD/svg11.dtd">
<!--Copyright 2021 Tom Rothe-->
<svg width="100%" height="100%" viewBox="0 0 497 502" version="1.1" xmlns="http://www.w3.org/2000/svg" xmlns:xlink="http://www.w3.org/1999/xlink" xml:space="preserve" xmlns:serif="http://www.serif.com/" style="fill-rule:evenodd;clip-rule:evenodd;stroke-linejoin:round;stroke-miterlimit:1.5;">
    <rect x="248.101" y="250.601" width="236.22" height="236.22" style="fill:#ad4ca9;"/>
    <rect x="248.101" y="14.381" width="236.22" height="236.22" style="fill:#ad4ca9;"/>
    <rect x="11.88" y="14.381" width="236.22" height="236.22" style="fill:#ad4ca9;"/>
    <rect x="11.88" y="250.601" width="236.22" height="235.74" style="fill:#fff;"/>
    <path d="M49.589,62.325c-0,-3.188 -1.913,-5.1 -6.446,-5.1l-4.533,-0c-1.63,-0 -2.586,-0.39 -2.586,-1.382c0,-0.921 0.85,-1.523 1.771,-1.841c0.673,0.177 1.523,0.283 2.408,0.283c4.675,-0 7.367,-2.515 7.367,-6.233c0,-2.125 -0.921,-3.896 -2.585,-4.994l-0,-0.744l3.754,0l-0,-3.117l-2.834,0c-1.629,0 -2.408,0.992 -2.408,2.621l0,0.496c-0.956,-0.389 -2.089,-0.567 -3.329,-0.567c-4.675,0 -7.331,2.55 -7.331,6.305c-0,2.479 1.204,4.427 3.364,5.454l0,0.141c-1.771,0.425 -3.258,1.346 -3.258,3.259c-0,1.381 0.744,2.408 2.09,2.833l-0,0.39c-1.948,0.425 -3.153,1.523 -3.153,3.541c0,2.798 2.338,4.427 8.359,4.427c6.623,0 9.35,-1.947 9.35,-5.772Zm-3.613,0.425c0,1.7 -1.487,2.55 -4.498,2.55l-2.408,-0c-2.869,-0 -3.967,-1.028 -3.967,-2.515c0,-0.885 0.425,-1.629 1.275,-2.125l6.234,-0c2.514,-0 3.364,0.815 3.364,2.09Zm-5.773,-11.263c-2.266,0 -3.577,-1.027 -3.577,-3.117l0,-0.708c0,-2.09 1.311,-3.117 3.577,-3.117c2.267,0 3.577,1.027 3.577,3.117l0,0.708c0,2.09 -1.31,3.117 -3.577,3.117Z" style="fill:#46101e;fill-rule:nonzero;"/>
    <path d="M59.47,61.014c5.135,0 8.465,-3.754 8.465,-9.633c-0,-5.879 -3.33,-9.634 -8.465,-9.634c-5.135,0 -8.465,3.755 -8.465,9.634c0,5.879 3.33,9.633 8.465,9.633Zm0,-3.187c-2.621,-0 -4.392,-1.63 -4.392,-4.888l0,-3.117c0,-3.258 1.771,-4.887 4.392,-4.887c2.621,-0 4.392,1.629 4.392,4.887l-0,3.117c-0,3.258 -1.771,4.888 -4.392,4.888Z" style="fill:#46101e;fill-rule:nonzero;"/>
    <path d="M79.445,61.014c5.135,0 8.465,-3.754 8.465,-9.633c-0,-5.879 -3.33,-9.634 -8.465,-9.634c-5.135,0 -8.465,3.755 -8.465,9.634c0,5.879 3.33,9.633 8.465,9.633Zm0,-3.187c-2.621,-0 -4.392,-1.63 -4.392,-4.888l0,-3.117c0,-3.258 1.771,-4.887 4.392,-4.887c2.621,-0 4.392,1.629 4.392,4.887l-0,3.117c-0,3.258 -1.771,4.888 -4.392,4.888Z" style="fill:#46101e;fill-rule:nonzero;"/>
    <path d="M103.776,60.589l3.861,0l-0,-26.208l-3.861,-0l0,10.837l-0.177,0c-0.779,-2.196 -2.727,-3.471 -5.171,-3.471c-4.639,0 -7.331,3.578 -7.331,9.634c0,6.056 2.692,9.633 7.331,9.633c2.444,0 4.392,-1.31 5.171,-3.471l0.177,0l0,3.046Zm-4.179,-2.904c-2.656,-0 -4.427,-1.877 -4.427,-4.71l0,-3.188c0,-2.833 1.771,-4.71 4.427,-4.71c2.338,-0 4.179,1.275 4.179,3.152l0,6.304c0,1.877 -1.841,3.152 -4.179,3.152Z" style="fill:#46101e;fill-rule:nonzero;"/>
    <path d="M408.469,60.589l3.861,0l-0,-3.046l0.177,0c0.779,2.161 2.727,3.471 5.171,3.471c4.639,0 7.331,-3.577 7.331,-9.633c-0,-6.056 -2.692,-9.634 -7.331,-9.634c-2.444,0 -4.392,1.275 -5.171,3.471l-0.177,0l-0,-10.837l-3.861,-0l0,26.208Zm8.04,-2.904c-2.338,-0 -4.179,-1.275 -4.179,-3.152l-0,-6.304c-0,-1.877 1.841,-3.152 4.179,-3.152c2.656,-0 4.427,1.877 4.427,4.71l-0,3.188c-0,2.833 -1.771,4.71 -4.427,4.71Z" style="fill:#46101e;fill-rule:nonzero;"/>
    <path d="M445.09,60.589l0,-3.152l-1.948,0l0,-9.244c0,-4.108 -2.656,-6.446 -7.402,-6.446c-3.577,0 -5.737,1.523 -6.942,3.578l2.303,2.089c0.92,-1.452 2.231,-2.514 4.391,-2.514c2.586,-0 3.79,1.31 3.79,3.541l-0,1.559l-3.329,-0c-5.136,-0 -7.863,1.877 -7.863,5.525c0,3.329 2.161,5.489 5.95,5.489c2.692,0 4.675,-1.204 5.383,-3.506l0.178,-0c0.247,1.806 1.31,3.081 3.329,3.081l2.16,0Zm-9.952,-2.514c-1.912,-0 -3.117,-0.85 -3.117,-2.48l0,-0.637c0,-1.594 1.311,-2.479 4.002,-2.479l3.259,-0l-0,2.656c-0,1.806 -1.771,2.94 -4.144,2.94Z" style="fill:#46101e;fill-rule:nonzero;"/>
    <path d="M460.461,60.589l3.86,0l0,-26.208l-3.86,-0l-0,10.837l-0.177,0c-0.779,-2.196 -2.727,-3.471 -5.171,-3.471c-4.64,0 -7.331,3.578 -7.331,9.634c-0,6.056 2.691,9.633 7.331,9.633c2.444,0 4.392,-1.31 5.171,-3.471l0.177,0l-0,3.046Zm-4.179,-2.904c-2.656,-0 -4.427,-1.877 -4.427,-4.71l-0,-3.188c-0,-2.833 1.771,-4.71 4.427,-4.71c2.337,-0 4.179,1.275 4.179,3.152l-0,6.304c-0,1.877 -1.842,3.152 -4.179,3.152Z" style="fill:#46101e;fill-rule:nonzero;"/>
    <path d="M33.828,444.686c1.594,0 2.267,-0.85 2.267,-2.018l0,-0.602c0,-1.169 -0.673,-2.019 -2.267,-2.019c-1.593,-0 -2.302,0.85 -2.302,2.019l0,0.602c0,1.168 0.709,2.018 2.302,2.018Zm-1.948,21.711l3.861,-0l-0,-18.417l-3.861,0l0,18.417Z" style="fill:#46101e;fill-rule:nonzero;"/>
    <path d="M45.126,466.397l0,-12.361c0,-2.125 1.877,-3.152 3.79,-3.152c2.267,0 3.364,1.417 3.364,4.286l0,11.227l3.861,-0l-0,-12.361c-0,-2.125 1.806,-3.152 3.754,-3.152c2.338,0 3.4,1.452 3.4,4.286l0,11.227l3.86,-0l0,-11.688c0,-4.533 -2.16,-7.154 -5.808,-7.154c-2.975,0 -4.887,1.7 -5.56,3.754l-0.107,0c-0.885,-2.55 -2.975,-3.754 -5.454,-3.754c-2.798,0 -4.179,1.558 -4.923,3.471l-0.177,-0l0,-3.046l-3.86,0l-0,18.417l3.86,-0Z" style="fill:#46101e;fill-rule:nonzero;"/>
    <path d="M72.503,473.48l3.861,0l-0,-10.129l0.177,-0c0.779,2.16 2.727,3.471 5.171,3.471c4.639,-0 7.331,-3.577 7.331,-9.634c-0,-6.056 -2.692,-9.633 -7.331,-9.633c-2.444,0 -4.392,1.275 -5.171,3.471l-0.177,-0l-0,-3.046l-3.861,0l0,25.5Zm8.04,-9.987c-2.338,-0 -4.179,-1.275 -4.179,-3.152l-0,-6.305c-0,-1.877 1.841,-3.152 4.179,-3.152c2.656,0 4.427,1.877 4.427,4.711l0,3.187c0,2.834 -1.771,4.711 -4.427,4.711Z" style="fill:#46101e;fill-rule:nonzero;"/>
    <path d="M97.33,466.397l0,-11.759c0,-1.912 1.7,-2.939 4.746,-2.939l1.523,-0l0,-3.719l-1.027,0c-2.939,0 -4.533,1.665 -5.064,3.542l-0.178,-0l0,-3.542l-3.86,0l0,18.417l3.86,-0Z" style="fill:#46101e;fill-rule:nonzero;"/>
    <path d="M114.083,466.822c5.135,-0 8.464,-3.754 8.464,-9.634c0,-5.879 -3.329,-9.633 -8.464,-9.633c-5.136,0 -8.465,3.754 -8.465,9.633c-0,5.88 3.329,9.634 8.465,9.634Zm-0,-3.188c-2.621,0 -4.392,-1.629 -4.392,-4.887l-0,-3.117c-0,-3.258 1.771,-4.887 4.392,-4.887c2.62,-0 4.391,1.629 4.391,4.887l0,3.117c0,3.258 -1.771,4.887 -4.391,4.887Z" style="fill:#46101e;fill-rule:nonzero;"/>
    <path d="M135.085,466.397l6.339,-18.417l-3.683,0l-2.869,8.394l-1.877,6.446l-0.212,-0l-1.878,-6.446l-2.797,-8.394l-3.825,0l6.268,18.417l4.534,-0Z" style="fill:#46101e;fill-rule:nonzero;"/>
    <path d="M151.624,466.822c3.436,-0 6.127,-1.488 7.509,-3.719l-2.267,-2.231c-1.063,1.7 -2.586,2.762 -4.852,2.762c-3.117,0 -4.852,-2.018 -4.852,-4.852l-0,-0.602l12.643,0l0,-1.452c0,-5.1 -2.762,-9.173 -8.181,-9.173c-5.241,0 -8.464,3.754 -8.464,9.633c-0,5.88 3.223,9.634 8.464,9.634Zm0,-16.256c2.55,-0 4.109,1.877 4.109,4.71l-0,0.354l-8.571,0l-0,-0.248c-0,-2.833 1.806,-4.816 4.462,-4.816Z" style="fill:#46101e;fill-rule:nonzero;"/>
    <path d="M367.669,466.397l0,-3.152l-1.948,-0l0,-9.244c0,-4.108 -2.656,-6.446 -7.402,-6.446c-3.577,0 -5.737,1.523 -6.941,3.577l2.302,2.09c0.921,-1.452 2.231,-2.515 4.391,-2.515c2.586,0 3.79,1.311 3.79,3.542l-0,1.558l-3.329,0c-5.136,0 -7.863,1.877 -7.863,5.525c0,3.329 2.161,5.49 5.95,5.49c2.692,-0 4.675,-1.204 5.384,-3.506l0.177,-0c0.248,1.806 1.31,3.081 3.329,3.081l2.16,-0Zm-9.952,-2.515c-1.912,0 -3.116,-0.85 -3.116,-2.479l-0,-0.637c-0,-1.594 1.31,-2.48 4.002,-2.48l3.258,0l-0,2.657c-0,1.806 -1.771,2.939 -4.144,2.939Z" style="fill:#46101e;fill-rule:nonzero;"/>
    <path d="M378.578,466.822c3.541,-0 6.056,-1.665 7.26,-4.675l-2.94,-1.559c-0.779,1.842 -2.089,3.046 -4.32,3.046c-2.834,0 -4.286,-1.948 -4.286,-4.781l0,-3.294c0,-2.833 1.452,-4.781 4.286,-4.781c2.089,0 3.4,1.098 3.931,2.798l3.187,-1.488c-1.098,-2.727 -3.435,-4.533 -7.118,-4.533c-5.313,0 -8.359,3.754 -8.359,9.633c0,5.88 3.046,9.634 8.359,9.634Z" style="fill:#46101e;fill-rule:nonzero;"/>
    <path d="M397.986,466.397l-0,-3.152l-3.577,-0l-0,-12.113l3.86,0l0,-3.152l-3.86,0l-0,-5.029l-3.471,-0l0,3.223c0,1.275 -0.425,1.806 -1.7,1.806l-1.558,0l-0,3.152l2.868,0l0,11.263c0,2.514 1.417,4.002 4.073,4.002l3.365,-0Z" style="fill:#46101e;fill-rule:nonzero;"/>
    <path d="M404.396,444.686c1.594,0 2.267,-0.85 2.267,-2.018l0,-0.602c0,-1.169 -0.673,-2.019 -2.267,-2.019c-1.593,-0 -2.302,0.85 -2.302,2.019l0,0.602c0,1.168 0.709,2.018 2.302,2.018Zm-1.948,21.711l3.861,-0l-0,-18.417l-3.861,0l0,18.417Z" style="fill:#46101e;fill-rule:nonzero;"/>
    <path d="M419.059,466.822c5.135,-0 8.464,-3.754 8.464,-9.634c0,-5.879 -3.329,-9.633 -8.464,-9.633c-5.136,0 -8.465,3.754 -8.465,9.633c0,5.88 3.329,9.634 8.465,9.634Zm-0,-3.188c-2.621,0 -4.392,-1.629 -4.392,-4.887l0,-3.117c0,-3.258 1.771,-4.887 4.392,-4.887c2.621,-0 4.392,1.629 4.392,4.887l-0,3.117c-0,3.258 -1.771,4.887 -4.392,4.887Z" style="fill:#46101e;fill-rule:nonzero;"/>
    <path d="M435.669,466.397l0,-12.325c0,-2.161 1.984,-3.188 4.002,-3.188c2.373,0 3.471,1.452 3.471,4.321l0,11.192l3.861,-0l-0,-11.688c-0,-4.533 -2.232,-7.154 -5.986,-7.154c-2.833,0 -4.391,1.488 -5.171,3.471l-0.177,-0l0,-3.046l-3.86,0l-0,18.417l3.86,-0Z" style="fill:#46101e;fill-rule:nonzero;"/>
    <path d="M458.194,466.822c4.427,-0 7.296,-2.373 7.296,-5.915c0,-2.975 -1.806,-4.746 -5.844,-5.348l-1.7,-0.212c-1.948,-0.319 -2.833,-0.956 -2.833,-2.373c0,-1.381 0.992,-2.302 3.117,-2.302c1.983,-0 3.541,0.956 4.498,2.089l2.373,-2.266c-1.665,-1.842 -3.542,-2.94 -6.871,-2.94c-4.038,0 -6.836,2.09 -6.836,5.667c0,3.4 2.302,5.029 6.057,5.489l1.7,0.213c1.912,0.248 2.62,1.133 2.62,2.302c0,1.558 -1.133,2.479 -3.364,2.479c-2.196,0 -3.861,-0.992 -5.206,-2.621l-2.48,2.267c1.736,2.16 4.002,3.471 7.473,3.471Z" style="fill:#46101e;fill-rule:nonzero;"/>
    <path d="M248.101,5.208l-0,490.786" style="fill:none;stroke:#652562;stroke-width:10.42px;"/>
    <path d="M490.994,250.601l-485.786,0" style="fill:none;stroke:#652562;stroke-width:10.42px;"/>
</svg>
