<?xml version="1.0" encoding="UTF-8" standalone="no"?>
<!DOCTYPE svg PUBLIC "-//W3C//DTD SVG 1.1//EN" "http://www.w3.org/Graphics/SVG/1.1/DTD/svg11.dtd">
<svg width="100%" height="100%" viewBox="0 0 425 528" version="1.1" xmlns="http://www.w3.org/2000/svg" xmlns:xlink="http://www.w3.org/1999/xlink" xml:space="preserve" xmlns:serif="http://www.serif.com/" style="fill-rule:evenodd;clip-rule:evenodd;stroke-linejoin:round;stroke-miterlimit:1.5;">
    <rect x="-0" y="0" width="128.423" height="128.423" style="fill:#7d9bbf;"/>
    <rect x="296.482" y="0" width="128.423" height="128.423" style="fill:#fff;"/>
    <rect x="-0" y="176.22" width="128.423" height="128.423" style="fill:#7d9bbf;"/>
    <rect x="296.482" y="176.22" width="128.423" height="128.423" style="fill:#fff;"/>
    <rect x="-0" y="353.194" width="128.423" height="128.423" style="fill:#7d9bbf;"/>
    <rect x="296.482" y="353.194" width="128.423" height="128.423" style="fill:#fff;"/>
    <path d="M329.421,523.25c3.541,0 6.056,-1.664 7.26,-4.675l-2.94,-1.558c-0.779,1.842 -2.089,3.046 -4.32,3.046c-2.834,-0 -4.286,-1.948 -4.286,-4.781l0,-3.294c0,-2.834 1.452,-4.781 4.286,-4.781c2.089,-0 3.4,1.097 3.931,2.797l3.187,-1.487c-1.098,-2.727 -3.435,-4.533 -7.118,-4.533c-5.313,-0 -8.359,3.754 -8.359,9.633c0,5.879 3.046,9.633 8.359,9.633Z" style="fill:#28424c;fill-rule:nonzero;"/>
    <path d="M346.775,522.825l-0,-3.152l-2.55,0l-0,-23.056l-3.861,-0l0,22.383c0,2.373 1.311,3.825 3.932,3.825l2.479,0Z" style="fill:#28424c;fill-rule:nonzero;"/>
    <path d="M366.112,522.825l0,-3.152l-1.948,0l0,-9.244c0,-4.108 -2.656,-6.445 -7.402,-6.445c-3.577,-0 -5.737,1.523 -6.941,3.577l2.302,2.089c0.92,-1.452 2.231,-2.514 4.391,-2.514c2.586,-0 3.79,1.31 3.79,3.541l-0,1.559l-3.329,-0c-5.136,-0 -7.863,1.877 -7.863,5.525c0,3.329 2.161,5.489 5.95,5.489c2.692,0 4.675,-1.204 5.384,-3.506l0.177,0c0.248,1.806 1.31,3.081 3.329,3.081l2.16,0Zm-9.952,-2.514c-1.912,-0 -3.117,-0.85 -3.117,-2.479l0,-0.638c0,-1.594 1.311,-2.479 4.003,-2.479l3.258,-0l-0,2.656c-0,1.806 -1.771,2.94 -4.144,2.94Z" style="fill:#28424c;fill-rule:nonzero;"/>
    <path d="M375.746,523.25c4.427,0 7.295,-2.373 7.295,-5.914c0,-2.975 -1.806,-4.746 -5.843,-5.348l-1.7,-0.213c-1.948,-0.318 -2.834,-0.956 -2.834,-2.373c0,-1.381 0.992,-2.302 3.117,-2.302c1.983,0 3.542,0.957 4.498,2.09l2.373,-2.267c-1.665,-1.841 -3.542,-2.939 -6.871,-2.939c-4.038,-0 -6.835,2.089 -6.835,5.666c-0,3.4 2.302,5.029 6.056,5.49l1.7,0.212c1.912,0.248 2.621,1.134 2.621,2.302c-0,1.559 -1.134,2.48 -3.365,2.48c-2.196,-0 -3.86,-0.992 -5.206,-2.621l-2.479,2.266c1.735,2.161 4.002,3.471 7.473,3.471Z" style="fill:#28424c;fill-rule:nonzero;"/>
    <path d="M393.029,523.25c4.427,0 7.296,-2.373 7.296,-5.914c-0,-2.975 -1.807,-4.746 -5.844,-5.348l-1.7,-0.213c-1.948,-0.318 -2.833,-0.956 -2.833,-2.373c-0,-1.381 0.991,-2.302 3.116,-2.302c1.984,0 3.542,0.957 4.498,2.09l2.373,-2.267c-1.664,-1.841 -3.542,-2.939 -6.871,-2.939c-4.037,-0 -6.835,2.089 -6.835,5.666c-0,3.4 2.302,5.029 6.056,5.49l1.7,0.212c1.913,0.248 2.621,1.134 2.621,2.302c-0,1.559 -1.133,2.48 -3.365,2.48c-2.195,-0 -3.86,-0.992 -5.206,-2.621l-2.479,2.266c1.735,2.161 4.002,3.471 7.473,3.471Z" style="fill:#28424c;fill-rule:nonzero;"/>
    <path d="M28.334,520.063l0,-3.152l-1.948,-0l0,-9.244c0,-4.108 -2.656,-6.446 -7.402,-6.446c-3.577,0 -5.737,1.523 -6.941,3.577l2.302,2.09c0.92,-1.452 2.231,-2.515 4.391,-2.515c2.586,0 3.79,1.311 3.79,3.542l-0,1.558l-3.329,0c-5.136,0 -7.863,1.877 -7.863,5.525c0,3.329 2.161,5.49 5.95,5.49c2.692,-0 4.675,-1.204 5.384,-3.506l0.177,-0c0.248,1.806 1.31,3.081 3.329,3.081l2.16,-0Zm-9.952,-2.515c-1.912,0 -3.117,-0.85 -3.117,-2.479l0,-0.637c0,-1.594 1.311,-2.48 4.003,-2.48l3.258,0l-0,2.657c-0,1.806 -1.771,2.939 -4.144,2.939Z" style="fill:#28424c;fill-rule:nonzero;"/>
    <path d="M37.968,520.488c4.427,-0 7.295,-2.373 7.295,-5.915c0,-2.975 -1.806,-4.746 -5.843,-5.348l-1.7,-0.212c-1.948,-0.319 -2.834,-0.956 -2.834,-2.373c0,-1.381 0.992,-2.302 3.117,-2.302c1.983,-0 3.542,0.956 4.498,2.089l2.373,-2.266c-1.665,-1.842 -3.542,-2.94 -6.871,-2.94c-4.038,0 -6.835,2.09 -6.835,5.667c-0,3.4 2.302,5.029 6.056,5.489l1.7,0.213c1.912,0.248 2.621,1.133 2.621,2.302c-0,1.558 -1.134,2.479 -3.365,2.479c-2.196,0 -3.86,-0.992 -5.206,-2.621l-2.479,2.267c1.735,2.16 4.002,3.471 7.473,3.471Z" style="fill:#28424c;fill-rule:nonzero;"/>
    <path d="M49.62,527.146l3.86,0l0,-10.129l0.177,-0c0.779,2.16 2.727,3.471 5.171,3.471c4.64,-0 7.331,-3.577 7.331,-9.634c0,-6.056 -2.691,-9.633 -7.331,-9.633c-2.444,0 -4.392,1.275 -5.171,3.471l-0.177,-0l0,-3.046l-3.86,0l-0,25.5Zm8.039,-9.987c-2.337,-0 -4.179,-1.275 -4.179,-3.152l0,-6.305c0,-1.877 1.842,-3.152 4.179,-3.152c2.656,0 4.427,1.877 4.427,4.711l0,3.187c0,2.834 -1.771,4.711 -4.427,4.711Z" style="fill:#28424c;fill-rule:nonzero;"/>
    <path d="M77.811,520.488c3.436,-0 6.127,-1.488 7.509,-3.719l-2.267,-2.231c-1.063,1.7 -2.585,2.762 -4.852,2.762c-3.117,0 -4.852,-2.018 -4.852,-4.852l-0,-0.602l12.644,0l-0,-1.452c-0,-5.1 -2.763,-9.173 -8.182,-9.173c-5.241,0 -8.464,3.754 -8.464,9.633c-0,5.88 3.223,9.634 8.464,9.634Zm0,-16.256c2.55,-0 4.109,1.877 4.109,4.71l-0,0.354l-8.571,0l-0,-0.248c-0,-2.833 1.806,-4.816 4.462,-4.816Z" style="fill:#28424c;fill-rule:nonzero;"/>
    <path d="M97.397,520.488c3.541,-0 6.056,-1.665 7.26,-4.675l-2.939,-1.559c-0.78,1.842 -2.09,3.046 -4.321,3.046c-2.834,0 -4.286,-1.948 -4.286,-4.781l0,-3.294c0,-2.833 1.452,-4.781 4.286,-4.781c2.089,0 3.4,1.098 3.931,2.798l3.187,-1.488c-1.097,-2.727 -3.435,-4.533 -7.118,-4.533c-5.313,0 -8.359,3.754 -8.359,9.633c0,5.88 3.046,9.634 8.359,9.634Z" style="fill:#28424c;fill-rule:nonzero;"/>
    <path d="M116.805,520.063l0,-3.152l-3.577,-0l-0,-12.113l3.86,0l0,-3.152l-3.86,0l-0,-5.029l-3.471,-0l0,3.223c0,1.275 -0.425,1.806 -1.7,1.806l-1.558,0l-0,3.152l2.869,0l-0,11.263c-0,2.514 1.416,4.002 4.072,4.002l3.365,-0Z" style="fill:#28424c;fill-rule:nonzero;"/>
    <path d="M273.045,52.493l23.437,11.718l-23.437,11.719l-0,-23.437Z" style="fill:#2d4765;"/>
    <path d="M128.423,64.211l149.309,0" style="fill:none;stroke:#2d4765;stroke-width:6.25px;stroke-dasharray:18.75,12.5,0,0;"/>
    <path d="M273.045,228.712l23.437,11.719l-23.437,11.719l-0,-23.438Z" style="fill:#2d4765;"/>
    <path d="M128.423,240.431l149.309,-0" style="fill:none;stroke:#2d4765;stroke-width:6.25px;stroke-dasharray:18.75,12.5,0,0;"/>
    <path d="M273.045,405.687l23.437,11.719l-23.437,11.718l-0,-23.437Z" style="fill:#2d4765;"/>
    <path d="M128.423,417.406l149.309,-0" style="fill:none;stroke:#2d4765;stroke-width:6.25px;stroke-dasharray:18.75,12.5,0,0;"/>
</svg>
