<?xml version="1.0" encoding="UTF-8" standalone="no"?>
<!DOCTYPE svg PUBLIC "-//W3C//DTD SVG 1.1//EN" "http://www.w3.org/Graphics/SVG/1.1/DTD/svg11.dtd">
<svg width="100%" height="100%" viewBox="0 0 357 262" version="1.1" xmlns="http://www.w3.org/2000/svg" xmlns:xlink="http://www.w3.org/1999/xlink" xml:space="preserve" xmlns:serif="http://www.serif.com/" style="fill-rule:evenodd;clip-rule:evenodd;stroke-linejoin:round;stroke-miterlimit:1.5;">
    <g transform="matrix(1,0,0,1,-241.175,-388.972)">
        <g id="Singleton-front" transform="matrix(1.21154,0,0,1.18919,0,1.13687e-13)">
            <g clip-path="url(#_clip1)">
                <g transform="matrix(1.30842,0,0,1.33301,106.72,-62.2708)">
                    <rect x="70.578" y="292.091" width="164.917" height="164.917" style="fill:#fff;"/>
                </g>
                <g transform="matrix(1.15848,0,0,1.18025,-47.9069,-163.793)">
                    <g transform="matrix(25.2338,0,0,25.2338,242.333,548.598)">
                        <path d="M0.243,0.012c0.125,0 0.206,-0.067 0.206,-0.167c0,-0.084 -0.051,-0.134 -0.165,-0.151l-0.048,-0.006c-0.055,-0.009 -0.08,-0.027 -0.08,-0.067c-0,-0.039 0.028,-0.065 0.088,-0.065c0.056,0 0.1,0.027 0.127,0.059l0.067,-0.064c-0.047,-0.052 -0.1,-0.083 -0.194,-0.083c-0.114,0 -0.193,0.059 -0.193,0.16c0,0.096 0.065,0.142 0.171,0.155l0.048,0.006c0.054,0.007 0.074,0.032 0.074,0.065c0,0.044 -0.032,0.07 -0.095,0.07c-0.062,-0 -0.109,-0.028 -0.147,-0.074l-0.07,0.064c0.049,0.061 0.113,0.098 0.211,0.098Z" style="fill:#28424c;fill-rule:nonzero;"/>
                    </g>
                    <g transform="matrix(25.2338,0,0,25.2338,254.798,548.598)">
                        <path d="M0.133,-0.613c0.045,0 0.064,-0.024 0.064,-0.057l0,-0.017c0,-0.033 -0.019,-0.057 -0.064,-0.057c-0.045,0 -0.065,0.024 -0.065,0.057l0,0.017c0,0.033 0.02,0.057 0.065,0.057Zm-0.055,0.613l0.109,-0l0,-0.52l-0.109,0l0,0.52Z" style="fill:#28424c;fill-rule:nonzero;"/>
                    </g>
                    <g transform="matrix(25.2338,0,0,25.2338,261.485,548.598)">
                        <path d="M0.187,-0l0,-0.348c0,-0.061 0.056,-0.09 0.113,-0.09c0.067,0 0.098,0.041 0.098,0.122l0,0.316l0.109,0l0,-0.33c0,-0.128 -0.063,-0.202 -0.169,-0.202c-0.08,0 -0.124,0.042 -0.146,0.098l-0.005,0l0,-0.086l-0.109,0l0,0.52l0.109,-0Z" style="fill:#28424c;fill-rule:nonzero;"/>
                    </g>
                    <g transform="matrix(25.2338,0,0,25.2338,276.121,548.598)">
                        <path d="M0.534,0.049c0,-0.09 -0.054,-0.144 -0.182,-0.144l-0.128,0c-0.046,0 -0.073,-0.011 -0.073,-0.039c-0,-0.026 0.024,-0.043 0.05,-0.052c0.019,0.005 0.043,0.008 0.068,0.008c0.132,0 0.208,-0.071 0.208,-0.176c0,-0.06 -0.026,-0.11 -0.073,-0.141l0,-0.021l0.106,0l0,-0.088l-0.08,0c-0.046,0 -0.068,0.028 -0.068,0.074l0,0.014c-0.027,-0.011 -0.059,-0.016 -0.094,-0.016c-0.132,0 -0.207,0.072 -0.207,0.178c0,0.07 0.034,0.125 0.095,0.154l0,0.004c-0.05,0.012 -0.092,0.038 -0.092,0.092c0,0.039 0.021,0.068 0.059,0.08l0,0.011c-0.055,0.012 -0.089,0.043 -0.089,0.1c0,0.079 0.066,0.125 0.236,0.125c0.187,0 0.264,-0.055 0.264,-0.163Zm-0.102,0.012c-0,0.048 -0.042,0.072 -0.127,0.072l-0.068,0c-0.081,0 -0.112,-0.029 -0.112,-0.071c-0,-0.025 0.012,-0.046 0.036,-0.06l0.176,0c0.071,0 0.095,0.023 0.095,0.059Zm-0.163,-0.318c-0.064,0 -0.101,-0.029 -0.101,-0.088l0,-0.02c0,-0.059 0.037,-0.088 0.101,-0.088c0.064,0 0.101,0.029 0.101,0.088l0,0.02c0,0.059 -0.037,0.088 -0.101,0.088Z" style="fill:#28424c;fill-rule:nonzero;"/>
                    </g>
                    <g transform="matrix(25.2338,0,0,25.2338,289.671,548.598)">
                        <path d="M0.259,-0l0,-0.089l-0.072,0l0,-0.651l-0.109,0l0,0.632c0,0.067 0.037,0.108 0.111,0.108l0.07,-0Z" style="fill:#28424c;fill-rule:nonzero;"/>
                    </g>
                    <g transform="matrix(25.2338,0,0,25.2338,296.863,548.598)">
                        <path d="M0.282,0.012c0.097,0 0.173,-0.042 0.212,-0.105l-0.064,-0.063c-0.03,0.048 -0.073,0.078 -0.137,0.078c-0.088,0 -0.137,-0.057 -0.137,-0.137l0,-0.017l0.357,0l0,-0.041c0,-0.144 -0.078,-0.259 -0.231,-0.259c-0.148,0 -0.239,0.106 -0.239,0.272c0,0.166 0.091,0.272 0.239,0.272Zm0,-0.459c0.072,0 0.116,0.053 0.116,0.133l0,0.01l-0.242,0l0,-0.007c0,-0.08 0.051,-0.136 0.126,-0.136Z" style="fill:#28424c;fill-rule:nonzero;"/>
                    </g>
                    <g transform="matrix(25.2338,0,0,25.2338,310.893,548.598)">
                        <path d="M0.317,-0l0,-0.089l-0.101,0l0,-0.342l0.109,0l0,-0.089l-0.109,0l-0,-0.142l-0.098,0l-0,0.091c-0,0.036 -0.012,0.051 -0.048,0.051l-0.044,0l-0,0.089l0.081,0l-0,0.318c-0,0.071 0.04,0.113 0.115,0.113l0.095,0Z" style="fill:#28424c;fill-rule:nonzero;"/>
                    </g>
                    <g transform="matrix(25.2338,0,0,25.2338,320.002,548.598)">
                        <path d="M0.282,0.012c0.145,0 0.239,-0.106 0.239,-0.272c0,-0.166 -0.094,-0.272 -0.239,-0.272c-0.145,0 -0.239,0.106 -0.239,0.272c-0,0.166 0.094,0.272 0.239,0.272Zm0,-0.09c-0.074,-0 -0.124,-0.046 -0.124,-0.138l-0,-0.088c-0,-0.092 0.05,-0.138 0.124,-0.138c0.074,0 0.124,0.046 0.124,0.138l0,0.088c0,0.092 -0.05,0.138 -0.124,0.138Z" style="fill:#28424c;fill-rule:nonzero;"/>
                    </g>
                    <g transform="matrix(25.2338,0,0,25.2338,334.234,548.598)">
                        <path d="M0.187,-0l0,-0.348c0,-0.061 0.056,-0.09 0.113,-0.09c0.067,0 0.098,0.041 0.098,0.122l0,0.316l0.109,0l0,-0.33c0,-0.128 -0.063,-0.202 -0.169,-0.202c-0.08,0 -0.124,0.042 -0.146,0.098l-0.005,0l0,-0.086l-0.109,0l0,0.52l0.109,-0Z" style="fill:#28424c;fill-rule:nonzero;"/>
                    </g>
                </g>
                <g transform="matrix(0.685659,0,0,1.18025,147.751,-93.215)">
                    <path d="M321.962,482.829l164.486,0c7.93,0 14.359,-3.805 14.359,-8.498c-0,-8.141 -0,-20.371 -0,-28.59c-0,-2.316 -1.555,-4.537 -4.322,-6.175c-2.768,-1.638 -6.521,-2.558 -10.434,-2.558c-30.257,-0 -96.506,-0 -96.506,-0" style="fill:none;stroke:#6598AA;stroke-width:5.42px;"/>
                </g>
            </g>
        </g>
    </g>
</svg>
