<?xml version="1.0" encoding="UTF-8" standalone="no"?>
<!DOCTYPE svg PUBLIC "-//W3C//DTD SVG 1.1//EN" "http://www.w3.org/Graphics/SVG/1.1/DTD/svg11.dtd">
<!--Copyright 2021 Tom Rothe-->
<svg width="100%" height="100%" viewBox="0 0 425 541" version="1.1" xmlns="http://www.w3.org/2000/svg" xmlns:xlink="http://www.w3.org/1999/xlink" xml:space="preserve" xmlns:serif="http://www.serif.com/" style="fill-rule:evenodd;clip-rule:evenodd;stroke-linejoin:round;stroke-miterlimit:1.5;">
    <rect x="-0" y="24.837" width="424.023" height="424.023" style="fill:#7d9bbf;"/>
    <rect x="27.013" y="51.849" width="171.492" height="369.997" style="fill:#fff;"/>
    <rect x="225.518" y="51.849" width="171.492" height="369.997" style="fill:#fff;"/>
    <g transform="matrix(1.35064,0,0,1.35064,-186.641,-243.402)">
        <g transform="matrix(26.2221,0,0,26.2221,250.987,548.598)">
            <path d="M0.279,0.012c0.1,0 0.171,-0.047 0.205,-0.132l-0.083,-0.044c-0.022,0.052 -0.059,0.086 -0.122,0.086c-0.08,0 -0.121,-0.055 -0.121,-0.135l-0,-0.093c-0,-0.08 0.041,-0.135 0.121,-0.135c0.059,0 0.096,0.031 0.111,0.079l0.09,-0.042c-0.031,-0.077 -0.097,-0.128 -0.201,-0.128c-0.15,0 -0.236,0.106 -0.236,0.272c0,0.166 0.086,0.272 0.236,0.272Z" style="fill:#28424c;fill-rule:nonzero;"/>
        </g>
        <g transform="matrix(26.2221,0,0,26.2221,264.36,548.598)">
            <path d="M0.078,-0l0.109,-0l0,-0.349c0,-0.06 0.056,-0.089 0.113,-0.089c0.067,0 0.098,0.041 0.098,0.121l0,0.317l0.109,0l0,-0.33c0,-0.128 -0.063,-0.202 -0.169,-0.202c-0.08,0 -0.124,0.042 -0.146,0.098l-0.005,0l0,-0.306l-0.109,0l0,0.74Z" style="fill:#28424c;fill-rule:nonzero;"/>
        </g>
        <g transform="matrix(26.2221,0,0,26.2221,279.569,548.598)">
            <path d="M0.52,-0l0,-0.089l-0.055,0l0,-0.261c0,-0.116 -0.075,-0.182 -0.209,-0.182c-0.101,0 -0.162,0.043 -0.196,0.101l0.065,0.059c0.026,-0.041 0.063,-0.071 0.124,-0.071c0.073,0 0.107,0.037 0.107,0.1l0,0.044l-0.094,0c-0.145,0 -0.222,0.053 -0.222,0.156c-0,0.094 0.061,0.155 0.168,0.155c0.076,0 0.132,-0.034 0.152,-0.099l0.005,0c0.007,0.051 0.037,0.087 0.094,0.087l0.061,0Zm-0.281,-0.071c-0.054,0 -0.088,-0.024 -0.088,-0.07l0,-0.018c0,-0.045 0.037,-0.07 0.113,-0.07l0.092,0l0,0.075c0,0.051 -0.05,0.083 -0.117,0.083Z" style="fill:#28424c;fill-rule:nonzero;"/>
        </g>
        <g transform="matrix(26.2221,0,0,26.2221,293.965,548.598)">
            <path d="M0.187,-0l0,-0.348c0,-0.061 0.056,-0.09 0.113,-0.09c0.067,0 0.098,0.041 0.098,0.122l0,0.316l0.109,0l0,-0.33c0,-0.128 -0.063,-0.202 -0.169,-0.202c-0.08,0 -0.124,0.042 -0.146,0.098l-0.005,0l0,-0.086l-0.109,0l0,0.52l0.109,-0Z" style="fill:#28424c;fill-rule:nonzero;"/>
        </g>
        <g transform="matrix(26.2221,0,0,26.2221,309.174,548.598)">
            <path d="M0.534,0.049c0,-0.09 -0.054,-0.144 -0.182,-0.144l-0.128,0c-0.046,0 -0.073,-0.011 -0.073,-0.039c-0,-0.026 0.024,-0.043 0.05,-0.052c0.019,0.005 0.043,0.008 0.068,0.008c0.132,0 0.208,-0.071 0.208,-0.176c0,-0.06 -0.026,-0.11 -0.073,-0.141l0,-0.021l0.106,0l0,-0.088l-0.08,0c-0.046,0 -0.068,0.028 -0.068,0.074l0,0.014c-0.027,-0.011 -0.059,-0.016 -0.094,-0.016c-0.132,0 -0.207,0.072 -0.207,0.178c0,0.07 0.034,0.125 0.095,0.154l0,0.004c-0.05,0.012 -0.092,0.038 -0.092,0.092c0,0.039 0.021,0.068 0.059,0.08l0,0.011c-0.055,0.012 -0.089,0.043 -0.089,0.1c0,0.079 0.066,0.125 0.236,0.125c0.187,0 0.264,-0.055 0.264,-0.163Zm-0.102,0.012c-0,0.048 -0.042,0.072 -0.127,0.072l-0.068,0c-0.081,0 -0.112,-0.029 -0.112,-0.071c-0,-0.025 0.012,-0.046 0.036,-0.06l0.176,0c0.071,0 0.095,0.023 0.095,0.059Zm-0.163,-0.318c-0.064,0 -0.101,-0.029 -0.101,-0.088l0,-0.02c0,-0.059 0.037,-0.088 0.101,-0.088c0.064,0 0.101,0.029 0.101,0.088l0,0.02c0,0.059 -0.037,0.088 -0.101,0.088Z" style="fill:#28424c;fill-rule:nonzero;"/>
        </g>
        <g transform="matrix(26.2221,0,0,26.2221,323.098,548.598)">
            <path d="M0.282,0.012c0.097,0 0.173,-0.042 0.212,-0.105l-0.064,-0.063c-0.03,0.048 -0.073,0.078 -0.137,0.078c-0.088,0 -0.137,-0.057 -0.137,-0.137l0,-0.017l0.357,0l0,-0.041c0,-0.144 -0.078,-0.259 -0.231,-0.259c-0.148,0 -0.239,0.106 -0.239,0.272c0,0.166 0.091,0.272 0.239,0.272Zm0,-0.459c0.072,0 0.116,0.053 0.116,0.133l0,0.01l-0.242,0l0,-0.007c0,-0.08 0.051,-0.136 0.126,-0.136Z" style="fill:#28424c;fill-rule:nonzero;"/>
        </g>
        <g transform="matrix(26.2221,0,0,26.2221,237.129,574.82)">
            <path d="M0.078,-0l0.109,-0l0,-0.086l0.005,0c0.022,0.061 0.077,0.098 0.146,0.098c0.131,0 0.207,-0.101 0.207,-0.272c0,-0.171 -0.076,-0.272 -0.207,-0.272c-0.069,0 -0.124,0.036 -0.146,0.098l-0.005,0l0,-0.306l-0.109,0l0,0.74Zm0.227,-0.082c-0.066,0 -0.118,-0.036 -0.118,-0.089l0,-0.178c0,-0.053 0.052,-0.089 0.118,-0.089c0.075,-0 0.125,0.053 0.125,0.133l0,0.09c0,0.08 -0.05,0.133 -0.125,0.133Z" style="fill:#28424c;fill-rule:nonzero;"/>
        </g>
        <g transform="matrix(26.2221,0,0,26.2221,252.652,574.82)">
            <path d="M0.282,0.012c0.145,0 0.239,-0.106 0.239,-0.272c0,-0.166 -0.094,-0.272 -0.239,-0.272c-0.145,0 -0.239,0.106 -0.239,0.272c-0,0.166 0.094,0.272 0.239,0.272Zm0,-0.09c-0.074,-0 -0.124,-0.046 -0.124,-0.138l-0,-0.088c-0,-0.092 0.05,-0.138 0.124,-0.138c0.074,0 0.124,0.046 0.124,0.138l0,0.088c0,0.092 -0.05,0.138 -0.124,0.138Z" style="fill:#28424c;fill-rule:nonzero;"/>
        </g>
        <g transform="matrix(26.2221,0,0,26.2221,267.442,574.82)">
            <path d="M0.393,-0l0.109,-0l0,-0.52l-0.109,0l0,0.348c0,0.061 -0.055,0.09 -0.111,0.09c-0.067,-0 -0.1,-0.042 -0.1,-0.121l-0,-0.317l-0.109,0l-0,0.331c-0,0.128 0.063,0.201 0.17,0.201c0.086,-0 0.127,-0.047 0.146,-0.098l0.004,-0l0,0.086Z" style="fill:#28424c;fill-rule:nonzero;"/>
        </g>
        <g transform="matrix(26.2221,0,0,26.2221,282.65,574.82)">
            <path d="M0.187,-0l0,-0.348c0,-0.061 0.056,-0.09 0.113,-0.09c0.067,0 0.098,0.041 0.098,0.122l0,0.316l0.109,0l0,-0.33c0,-0.128 -0.063,-0.202 -0.169,-0.202c-0.08,0 -0.124,0.042 -0.146,0.098l-0.005,0l0,-0.086l-0.109,0l0,0.52l0.109,-0Z" style="fill:#28424c;fill-rule:nonzero;"/>
        </g>
        <g transform="matrix(26.2221,0,0,26.2221,297.859,574.82)">
            <path d="M0.405,-0l0.109,-0l0,-0.74l-0.109,0l0,0.306l-0.005,0c-0.022,-0.062 -0.077,-0.098 -0.146,-0.098c-0.131,0 -0.207,0.101 -0.207,0.272c0,0.171 0.076,0.272 0.207,0.272c0.069,-0 0.124,-0.037 0.146,-0.098l0.005,-0l0,0.086Zm-0.118,-0.082c-0.075,-0 -0.125,-0.053 -0.125,-0.133l-0,-0.09c-0,-0.08 0.05,-0.133 0.125,-0.133c0.066,0 0.118,0.036 0.118,0.089l0,0.178c0,0.053 -0.052,0.089 -0.118,0.089Z" style="fill:#28424c;fill-rule:nonzero;"/>
        </g>
        <g transform="matrix(26.2221,0,0,26.2221,313.383,574.82)">
            <path d="M0.52,-0l0,-0.089l-0.055,0l0,-0.261c0,-0.116 -0.075,-0.182 -0.209,-0.182c-0.101,0 -0.162,0.043 -0.196,0.101l0.065,0.059c0.026,-0.041 0.063,-0.071 0.124,-0.071c0.073,0 0.107,0.037 0.107,0.1l0,0.044l-0.094,0c-0.145,0 -0.222,0.053 -0.222,0.156c-0,0.094 0.061,0.155 0.168,0.155c0.076,0 0.132,-0.034 0.152,-0.099l0.005,0c0.007,0.051 0.037,0.087 0.094,0.087l0.061,0Zm-0.281,-0.071c-0.054,0 -0.088,-0.024 -0.088,-0.07l0,-0.018c0,-0.045 0.037,-0.07 0.113,-0.07l0.092,0l0,0.075c0,0.051 -0.05,0.083 -0.117,0.083Z" style="fill:#28424c;fill-rule:nonzero;"/>
        </g>
        <g transform="matrix(26.2221,0,0,26.2221,327.779,574.82)">
            <path d="M0.187,-0l0,-0.332c0,-0.054 0.048,-0.083 0.134,-0.083l0.043,0l0,-0.105l-0.029,0c-0.083,0 -0.128,0.047 -0.143,0.1l-0.005,0l0,-0.1l-0.109,0l0,0.52l0.109,-0Z" style="fill:#28424c;fill-rule:nonzero;"/>
        </g>
        <g transform="matrix(26.2221,0,0,26.2221,338.058,574.82)">
            <path d="M0.293,-0.214l-0.033,0.113l-0.005,-0l-0.03,-0.113l-0.104,-0.306l-0.109,0l0.189,0.543l-0.03,0.088l-0.088,-0l-0,0.089l0.063,0c0.081,0 0.112,-0.027 0.137,-0.097l0.219,-0.623l-0.105,0l-0.104,0.306Z" style="fill:#28424c;fill-rule:nonzero;"/>
        </g>
    </g>
    <path d="M212.011,3.125l0,467.446" style="fill:none;stroke:#2d4765;stroke-width:6.25px;stroke-dasharray:18.75,12.5,0,0;"/>
</svg>
