<?xml version="1.0" encoding="UTF-8" standalone="no"?>
<!DOCTYPE svg PUBLIC "-//W3C//DTD SVG 1.1//EN" "http://www.w3.org/Graphics/SVG/1.1/DTD/svg11.dtd">
<!--Copyright 2021 Tom Rothe-->
<svg width="100%" height="100%" viewBox="0 0 533 471" version="1.1" xmlns="http://www.w3.org/2000/svg" xmlns:xlink="http://www.w3.org/1999/xlink" xml:space="preserve" xmlns:serif="http://www.serif.com/" style="fill-rule:evenodd;clip-rule:evenodd;stroke-linejoin:round;stroke-miterlimit:2;">
    <rect x="0" y="-0" width="364.55" height="470.4" style="fill:#ad4ca9;"/>
    <rect x="413.507" y="0" width="118.944" height="470.4" style="fill:#fff;"/>
    <path d="M438.696,446.94c4.427,-0 7.295,-2.373 7.295,-5.915c0,-2.975 -1.806,-4.746 -5.843,-5.348l-1.7,-0.212c-1.948,-0.319 -2.834,-0.957 -2.834,-2.373c0,-1.381 0.992,-2.302 3.117,-2.302c1.983,-0 3.542,0.956 4.498,2.089l2.373,-2.266c-1.665,-1.842 -3.542,-2.94 -6.871,-2.94c-4.037,0 -6.835,2.09 -6.835,5.667c-0,3.4 2.302,5.029 6.056,5.489l1.7,0.213c1.912,0.248 2.621,1.133 2.621,2.302c-0,1.558 -1.134,2.479 -3.365,2.479c-2.196,0 -3.86,-0.992 -5.206,-2.621l-2.479,2.267c1.735,2.16 4.002,3.471 7.473,3.471Z" style="fill:#46101e;fill-rule:nonzero;"/>
    <path d="M450.348,453.598l3.86,0l0,-10.129l0.177,-0c0.779,2.16 2.727,3.471 5.171,3.471c4.64,-0 7.331,-3.577 7.331,-9.634c0,-6.056 -2.691,-9.633 -7.331,-9.633c-2.444,0 -4.392,1.275 -5.171,3.471l-0.177,-0l0,-3.046l-3.86,0l-0,25.5Zm8.039,-9.987c-2.337,-0 -4.179,-1.275 -4.179,-3.153l0,-6.304c0,-1.877 1.842,-3.152 4.179,-3.152c2.657,0 4.427,1.877 4.427,4.711l0,3.187c0,2.833 -1.77,4.711 -4.427,4.711Z" style="fill:#46101e;fill-rule:nonzero;"/>
    <path d="M473.262,424.804c1.594,0 2.267,-0.85 2.267,-2.018l-0,-0.603c-0,-1.168 -0.673,-2.018 -2.267,-2.018c-1.593,-0 -2.302,0.85 -2.302,2.018l0,0.603c0,1.168 0.709,2.018 2.302,2.018Zm-1.948,21.711l3.861,-0l-0,-18.417l-3.861,0l0,18.417Z" style="fill:#46101e;fill-rule:nonzero;"/>
    <path d="M480.7,446.515l3.86,-0l0,-6.021l2.55,-2.763l5.277,8.784l4.604,-0l-7.225,-11.298l6.446,-7.119l-4.498,0l-4.427,4.994l-2.55,3.294l-0.177,-0l0,-16.08l-3.86,0l-0,26.209Z" style="fill:#46101e;fill-rule:nonzero;"/>
    <path d="M506.554,446.94c3.435,-0 6.127,-1.488 7.508,-3.719l-2.266,-2.231c-1.063,1.7 -2.586,2.762 -4.852,2.762c-3.117,0 -4.853,-2.019 -4.853,-4.852l0,-0.602l12.644,0l0,-1.452c0,-5.1 -2.762,-9.173 -8.181,-9.173c-5.242,0 -8.465,3.754 -8.465,9.633c0,5.88 3.223,9.634 8.465,9.634Zm-0,-16.257c2.55,0 4.108,1.878 4.108,4.711l0,0.354l-8.571,0l0,-0.248c0,-2.833 1.807,-4.817 4.463,-4.817Z" style="fill:#46101e;fill-rule:nonzero;"/>
    <path d="M238.587,446.515l3.86,-0l0,-6.021l2.55,-2.763l5.277,8.784l4.605,-0l-7.225,-11.298l6.445,-7.119l-4.498,0l-4.427,4.994l-2.55,3.294l-0.177,-0l0,-16.08l-3.86,0l-0,26.209Z" style="fill:#46101e;fill-rule:nonzero;"/>
    <path d="M261.82,446.515l0,-12.325c0,-2.161 1.984,-3.188 4.002,-3.188c2.373,0 3.471,1.452 3.471,4.321l0,11.192l3.861,-0l-0,-11.688c-0,-4.533 -2.232,-7.154 -5.986,-7.154c-2.833,0 -4.392,1.488 -5.171,3.471l-0.177,-0l0,-3.046l-3.86,0l-0,18.417l3.86,-0Z" style="fill:#46101e;fill-rule:nonzero;"/>
    <path d="M285.726,446.94c5.136,-0 8.465,-3.754 8.465,-9.634c0,-5.879 -3.329,-9.633 -8.465,-9.633c-5.135,0 -8.464,3.754 -8.464,9.633c-0,5.88 3.329,9.634 8.464,9.634Zm0,-3.188c-2.62,0 -4.391,-1.629 -4.391,-4.887l-0,-3.117c-0,-3.258 1.771,-4.887 4.391,-4.887c2.621,-0 4.392,1.629 4.392,4.887l0,3.117c0,3.258 -1.771,4.887 -4.392,4.887Z" style="fill:#46101e;fill-rule:nonzero;"/>
    <path d="M301.416,446.515l4.25,-0l2.444,-8.394l1.452,-5.171l0.071,0l1.487,5.171l2.409,8.394l4.356,-0l4.958,-18.417l-3.577,0l-1.912,7.721l-1.63,6.977l-0.106,-0l-1.948,-6.977l-2.266,-7.721l-3.471,0l-2.232,7.721l-1.912,6.977l-0.106,-0l-1.665,-6.977l-1.877,-7.721l-3.754,0l5.029,18.417Z" style="fill:#46101e;fill-rule:nonzero;"/>
    <path d="M330.387,446.515l-0,-12.325c-0,-2.161 1.983,-3.188 4.002,-3.188c2.373,0 3.471,1.452 3.471,4.321l-0,11.192l3.86,-0l0,-11.688c0,-4.533 -2.231,-7.154 -5.985,-7.154c-2.834,0 -4.392,1.488 -5.171,3.471l-0.177,-0l-0,-3.046l-3.861,0l0,18.417l3.861,-0Z" style="fill:#46101e;fill-rule:nonzero;"/>
</svg>
