<?xml version="1.0" encoding="UTF-8" standalone="no"?>
<!DOCTYPE svg PUBLIC "-//W3C//DTD SVG 1.1//EN" "http://www.w3.org/Graphics/SVG/1.1/DTD/svg11.dtd">
<!--Copyright 2021 Tom Rothe-->
<svg width="100%" height="100%" viewBox="0 0 592 402" version="1.1" xmlns="http://www.w3.org/2000/svg" xmlns:xlink="http://www.w3.org/1999/xlink" xml:space="preserve" xmlns:serif="http://www.serif.com/" style="fill-rule:evenodd;clip-rule:evenodd;stroke-linecap:square;stroke-linejoin:round;stroke-miterlimit:1.5;">
    <g transform="matrix(1,0,0,1,-76.2635,-6027.26)">
        <g transform="matrix(1.21154,0,0,1.18919,0,5708.32)">
            <g transform="matrix(1.44012,0,0,1.46719,-38.6931,-112.527)">
                <rect x="70.578" y="292.091" width="164.917" height="164.917" style="fill:#6598aa;"/>
            </g>
        </g>
        <g transform="matrix(1.21154,0,0,1.18919,0,5708.32)">
            <g transform="matrix(0.43107,0,0,1.76458,-691.321,160.891)">
                <g transform="matrix(1.91477,-0,-0,0.476548,1749.76,60.8104)">
                    <path d="M443.517,326.673l11.177,23.7l-25.667,-5.279l14.49,-18.421Z" style="fill:#192a30;"/>
                    <path d="M264.465,200.749c0,0 130.826,102.901 175.491,138.032" style="fill:none;stroke:#192a30;stroke-width:6.25px;"/>
                </g>
            </g>
        </g>
        <g transform="matrix(1.21154,0,0,1.18919,0,5708.32)">
            <g transform="matrix(0.43107,0,0,1.76458,-691.251,114.894)">
                <path d="M2255.99,182.544l364.243,0" style="fill:none;stroke:#192a30;stroke-width:4.09px;stroke-dasharray:12.26,8.17,0,0;"/>
            </g>
        </g>
        <g transform="matrix(1.21154,0,0,1.18919,0,5708.32)">
            <g transform="matrix(0.43107,0,0,1.76458,-690.248,85.6664)">
                <path d="M2253.66,199.107l364.243,-71.303" style="fill:none;stroke:#192a30;stroke-width:4.09px;stroke-dasharray:12.26,8.17,0,0;"/>
            </g>
        </g>
        <g transform="matrix(1.21154,0,0,1.18919,0,5708.32)">
            <g transform="matrix(1.20714,0,0,0.266518,-3.0381,337.184)">
                <rect x="70.578" y="292.091" width="164.917" height="164.917" style="fill:#fff;"/>
            </g>
        </g>
        <g transform="matrix(1.21154,0,0,1.18919,0,5708.32)">
            <g transform="matrix(1.07736,0,0,1.09761,-95.3967,-153.611)">
                <g transform="matrix(27.1336,0,0,27.1336,277.98,548.598)">
                    <path d="M0.243,0.012c0.125,0 0.206,-0.067 0.206,-0.167c0,-0.084 -0.051,-0.134 -0.165,-0.151l-0.048,-0.006c-0.055,-0.009 -0.08,-0.027 -0.08,-0.067c-0,-0.039 0.028,-0.065 0.088,-0.065c0.056,0 0.1,0.027 0.127,0.059l0.067,-0.064c-0.047,-0.052 -0.1,-0.083 -0.194,-0.083c-0.114,0 -0.193,0.059 -0.193,0.16c0,0.096 0.065,0.142 0.171,0.155l0.048,0.006c0.054,0.007 0.074,0.032 0.074,0.065c0,0.044 -0.032,0.07 -0.095,0.07c-0.062,-0 -0.109,-0.028 -0.147,-0.074l-0.07,0.064c0.049,0.061 0.113,0.098 0.211,0.098Z" style="fill:#192a30;fill-rule:nonzero;"/>
                </g>
                <g transform="matrix(27.1336,0,0,27.1336,291.194,548.598)">
                    <path d="M0.317,-0l0,-0.089l-0.101,0l0,-0.342l0.109,0l0,-0.089l-0.109,0l-0,-0.142l-0.098,0l-0,0.091c-0,0.036 -0.012,0.051 -0.048,0.051l-0.044,0l-0,0.089l0.081,0l-0,0.318c-0,0.071 0.04,0.113 0.115,0.113l0.095,0Z" style="fill:#192a30;fill-rule:nonzero;"/>
                </g>
                <g transform="matrix(27.1336,0,0,27.1336,301.098,548.598)">
                    <path d="M0.52,-0l0,-0.089l-0.055,0l0,-0.261c0,-0.116 -0.075,-0.182 -0.209,-0.182c-0.101,0 -0.162,0.043 -0.196,0.101l0.065,0.059c0.026,-0.041 0.063,-0.071 0.124,-0.071c0.073,0 0.107,0.037 0.107,0.1l0,0.044l-0.094,0c-0.145,0 -0.222,0.053 -0.222,0.156c-0,0.094 0.061,0.155 0.168,0.155c0.076,0 0.132,-0.034 0.152,-0.099l0.005,0c0.007,0.051 0.037,0.087 0.094,0.087l0.061,0Zm-0.281,-0.071c-0.054,0 -0.088,-0.024 -0.088,-0.07l0,-0.018c0,-0.045 0.037,-0.07 0.113,-0.07l0.092,0l0,0.075c0,0.051 -0.05,0.083 -0.117,0.083Z" style="fill:#192a30;fill-rule:nonzero;"/>
                </g>
                <g transform="matrix(27.1336,0,0,27.1336,315.913,548.598)">
                    <path d="M0.317,-0l0,-0.089l-0.101,0l0,-0.342l0.109,0l0,-0.089l-0.109,0l-0,-0.142l-0.098,0l-0,0.091c-0,0.036 -0.012,0.051 -0.048,0.051l-0.044,0l-0,0.089l0.081,0l-0,0.318c-0,0.071 0.04,0.113 0.115,0.113l0.095,0Z" style="fill:#192a30;fill-rule:nonzero;"/>
                </g>
                <g transform="matrix(27.1336,0,0,27.1336,325.708,548.598)">
                    <path d="M0.282,0.012c0.097,0 0.173,-0.042 0.212,-0.105l-0.064,-0.063c-0.03,0.048 -0.073,0.078 -0.137,0.078c-0.088,0 -0.137,-0.057 -0.137,-0.137l0,-0.017l0.357,0l0,-0.041c0,-0.144 -0.078,-0.259 -0.231,-0.259c-0.148,0 -0.239,0.106 -0.239,0.272c0,0.166 0.091,0.272 0.239,0.272Zm0,-0.459c0.072,0 0.116,0.053 0.116,0.133l0,0.01l-0.242,0l0,-0.007c0,-0.08 0.051,-0.136 0.126,-0.136Z" style="fill:#192a30;fill-rule:nonzero;"/>
                </g>
            </g>
        </g>
        <g transform="matrix(1.21154,0,0,1.18919,0,5708.32)">
            <g transform="matrix(1.07736,0,0,1.09761,-65.6347,-11.572)">
                <g transform="matrix(27.1336,0,0,27.1336,247.292,548.598)">
                    <path d="M0.279,0.012c0.1,0 0.171,-0.047 0.205,-0.132l-0.083,-0.044c-0.022,0.052 -0.059,0.086 -0.122,0.086c-0.08,0 -0.121,-0.055 -0.121,-0.135l-0,-0.093c-0,-0.08 0.041,-0.135 0.121,-0.135c0.059,0 0.096,0.031 0.111,0.079l0.09,-0.042c-0.031,-0.077 -0.097,-0.128 -0.201,-0.128c-0.15,0 -0.236,0.106 -0.236,0.272c0,0.166 0.086,0.272 0.236,0.272Z" style="fill:#192a30;fill-rule:nonzero;"/>
                </g>
                <g transform="matrix(27.1336,0,0,27.1336,260.968,548.598)">
                    <path d="M0.282,0.012c0.145,0 0.239,-0.106 0.239,-0.272c0,-0.166 -0.094,-0.272 -0.239,-0.272c-0.145,0 -0.239,0.106 -0.239,0.272c-0,0.166 0.094,0.272 0.239,0.272Zm0,-0.09c-0.074,-0 -0.124,-0.046 -0.124,-0.138l-0,-0.088c-0,-0.092 0.05,-0.138 0.124,-0.138c0.074,0 0.124,0.046 0.124,0.138l0,0.088c0,0.092 -0.05,0.138 -0.124,0.138Z" style="fill:#192a30;fill-rule:nonzero;"/>
                </g>
                <g transform="matrix(27.1336,0,0,27.1336,276.271,548.598)">
                    <path d="M0.187,-0l0,-0.348c0,-0.061 0.056,-0.09 0.113,-0.09c0.067,0 0.098,0.041 0.098,0.122l0,0.316l0.109,0l0,-0.33c0,-0.128 -0.063,-0.202 -0.169,-0.202c-0.08,0 -0.124,0.042 -0.146,0.098l-0.005,0l0,-0.086l-0.109,0l0,0.52l0.109,-0Z" style="fill:#192a30;fill-rule:nonzero;"/>
                </g>
                <g transform="matrix(27.1336,0,0,27.1336,292.008,548.598)">
                    <path d="M0.317,-0l0,-0.089l-0.101,0l0,-0.342l0.109,0l0,-0.089l-0.109,0l-0,-0.142l-0.098,0l-0,0.091c-0,0.036 -0.012,0.051 -0.048,0.051l-0.044,0l-0,0.089l0.081,0l-0,0.318c-0,0.071 0.04,0.113 0.115,0.113l0.095,0Z" style="fill:#192a30;fill-rule:nonzero;"/>
                </g>
                <g transform="matrix(27.1336,0,0,27.1336,301.804,548.598)">
                    <path d="M0.282,0.012c0.097,0 0.173,-0.042 0.212,-0.105l-0.064,-0.063c-0.03,0.048 -0.073,0.078 -0.137,0.078c-0.088,0 -0.137,-0.057 -0.137,-0.137l0,-0.017l0.357,0l0,-0.041c0,-0.144 -0.078,-0.259 -0.231,-0.259c-0.148,0 -0.239,0.106 -0.239,0.272c0,0.166 0.091,0.272 0.239,0.272Zm0,-0.459c0.072,0 0.116,0.053 0.116,0.133l0,0.01l-0.242,0l0,-0.007c0,-0.08 0.051,-0.136 0.126,-0.136Z" style="fill:#192a30;fill-rule:nonzero;"/>
                </g>
                <g transform="matrix(27.1336,0,0,27.1336,316.51,548.598)">
                    <path d="M0.02,-0l0.116,-0l0.125,-0.189l0.003,0l0.12,0.189l0.126,-0l-0.181,-0.264l0.178,-0.256l-0.116,0l-0.12,0.181l-0.003,0l-0.117,-0.181l-0.126,0l0.178,0.257l-0.183,0.263Z" style="fill:#192a30;fill-rule:nonzero;"/>
                </g>
                <g transform="matrix(27.1336,0,0,27.1336,330.891,548.598)">
                    <path d="M0.317,-0l0,-0.089l-0.101,0l0,-0.342l0.109,0l0,-0.089l-0.109,0l-0,-0.142l-0.098,0l-0,0.091c-0,0.036 -0.012,0.051 -0.048,0.051l-0.044,0l-0,0.089l0.081,0l-0,0.318c-0,0.071 0.04,0.113 0.115,0.113l0.095,0Z" style="fill:#192a30;fill-rule:nonzero;"/>
                </g>
            </g>
        </g>
        <g transform="matrix(1.21154,0,0,1.18919,0,5708.32)">
            <g transform="matrix(1.07736,0,0,1.09761,-6.0215,-5327.06)">
                <path d="M488.942,5097.66l28.16,39.169l-27.16,39.169l-77.572,-0l-0,-78.338l76.572,0Z" style="fill:#6598aa;"/>
            </g>
        </g>
        <g transform="matrix(1.21154,0,0,1.18919,0,5708.32)">
            <g transform="matrix(1.07736,0,0,1.09761,-6.0215,-5327.06)">
                <path d="M490.196,5212.3c21.568,0.136 27.036,17.634 27.036,39.168c0,21.617 -5.605,39.168 -27.29,39.168l-77.572,0l-0,-78.337l77.826,0.001Z" style="fill:#6598aa;"/>
            </g>
        </g>
        <g transform="matrix(1.21154,0,0,1.18919,0,5708.32)">
            <g transform="matrix(1.07736,0,0,1.09761,-6.0215,-5327.06)">
                <path d="M489.942,5326.93l23.227,19.584l0,39.169l-23.227,19.584l-77.572,0l-0,-78.337l77.572,-0Z" style="fill:#6598aa;"/>
            </g>
        </g>
    </g>
</svg>
