<?xml version="1.0" encoding="UTF-8" standalone="no"?>
<!DOCTYPE svg PUBLIC "-//W3C//DTD SVG 1.1//EN" "http://www.w3.org/Graphics/SVG/1.1/DTD/svg11.dtd">
<!--Copyright 2021 Tom Rothe-->
<svg width="100%" height="100%" viewBox="0 0 622 422" version="1.1" xmlns="http://www.w3.org/2000/svg" xmlns:xlink="http://www.w3.org/1999/xlink" xml:space="preserve" xmlns:serif="http://www.serif.com/" style="fill-rule:evenodd;clip-rule:evenodd;stroke-linecap:square;stroke-linejoin:round;stroke-miterlimit:1.5;">
    <g transform="matrix(1,0,0,1,-64.0166,-8378.16)">
        <g transform="matrix(1.21154,0,0,1.18919,0,8110.49)">
            <g transform="matrix(1.51183,0,0,1.54024,-53.8626,-182.296)">
                <rect x="70.578" y="292.091" width="164.917" height="164.917" style="fill:#6598aa;"/>
            </g>
        </g>
        <g transform="matrix(1.21154,0,0,1.18919,0,8110.49)">
            <g transform="matrix(0.452533,0,0,1.85245,-738.986,104.735)">
                <g transform="matrix(1.82395,-0,-0,0.453945,1749.76,64.9696)">
                    <path d="M466.818,343.818l10.516,24.001l-25.511,-5.988l14.995,-18.013Z" style="fill:#192a30;"/>
                    <path d="M277.633,201.583c0,-0 139.451,116.082 185.29,154.24" style="fill:none;stroke:#192a30;stroke-width:6.25px;"/>
                </g>
            </g>
        </g>
        <g transform="matrix(1.21154,0,0,1.18919,0,8110.49)">
            <g transform="matrix(1.26724,0,0,0.279789,-16.4322,289.806)">
                <rect x="70.578" y="292.091" width="164.917" height="164.917" style="fill:#fff;"/>
            </g>
        </g>
        <g transform="matrix(1.21154,0,0,1.18919,0,8110.49)">
            <g transform="matrix(1.13101,0,0,1.15226,-123.843,-228.167)">
                <g transform="matrix(25.8467,0,0,25.8467,243.973,548.598)">
                    <path d="M0.243,0.012c0.125,0 0.206,-0.067 0.206,-0.167c0,-0.084 -0.051,-0.134 -0.165,-0.151l-0.048,-0.006c-0.055,-0.009 -0.08,-0.027 -0.08,-0.067c-0,-0.039 0.028,-0.065 0.088,-0.065c0.056,0 0.1,0.027 0.127,0.059l0.067,-0.064c-0.047,-0.052 -0.1,-0.083 -0.194,-0.083c-0.114,0 -0.193,0.059 -0.193,0.16c0,0.096 0.065,0.142 0.171,0.155l0.048,0.006c0.054,0.007 0.074,0.032 0.074,0.065c0,0.044 -0.032,0.07 -0.095,0.07c-0.062,-0 -0.109,-0.028 -0.147,-0.074l-0.07,0.064c0.049,0.061 0.113,0.098 0.211,0.098Z" style="fill:#192a30;fill-rule:nonzero;"/>
                </g>
                <g transform="matrix(25.8467,0,0,25.8467,256.56,548.598)">
                    <path d="M0.317,-0l0,-0.089l-0.101,0l0,-0.342l0.109,0l0,-0.089l-0.109,0l-0,-0.142l-0.098,0l-0,0.091c-0,0.036 -0.012,0.051 -0.048,0.051l-0.044,0l-0,0.089l0.081,0l-0,0.318c-0,0.071 0.04,0.113 0.115,0.113l0.095,0Z" style="fill:#192a30;fill-rule:nonzero;"/>
                </g>
                <g transform="matrix(25.8467,0,0,25.8467,265.994,548.598)">
                    <path d="M0.187,-0l0,-0.332c0,-0.054 0.048,-0.083 0.134,-0.083l0.043,0l0,-0.105l-0.029,0c-0.083,0 -0.128,0.047 -0.143,0.1l-0.005,0l0,-0.1l-0.109,0l0,0.52l0.109,-0Z" style="fill:#192a30;fill-rule:nonzero;"/>
                </g>
                <g transform="matrix(25.8467,0,0,25.8467,275.687,548.598)">
                    <path d="M0.52,-0l0,-0.089l-0.055,0l0,-0.261c0,-0.116 -0.075,-0.182 -0.209,-0.182c-0.101,0 -0.162,0.043 -0.196,0.101l0.065,0.059c0.026,-0.041 0.063,-0.071 0.124,-0.071c0.073,0 0.107,0.037 0.107,0.1l0,0.044l-0.094,0c-0.145,0 -0.222,0.053 -0.222,0.156c-0,0.094 0.061,0.155 0.168,0.155c0.076,0 0.132,-0.034 0.152,-0.099l0.005,0c0.007,0.051 0.037,0.087 0.094,0.087l0.061,0Zm-0.281,-0.071c-0.054,0 -0.088,-0.024 -0.088,-0.07l0,-0.018c0,-0.045 0.037,-0.07 0.113,-0.07l0.092,0l0,0.075c0,0.051 -0.05,0.083 -0.117,0.083Z" style="fill:#192a30;fill-rule:nonzero;"/>
                </g>
                <g transform="matrix(25.8467,0,0,25.8467,289.799,548.598)">
                    <path d="M0.317,-0l0,-0.089l-0.101,0l0,-0.342l0.109,0l0,-0.089l-0.109,0l-0,-0.142l-0.098,0l-0,0.091c-0,0.036 -0.012,0.051 -0.048,0.051l-0.044,0l-0,0.089l0.081,0l-0,0.318c-0,0.071 0.04,0.113 0.115,0.113l0.095,0Z" style="fill:#192a30;fill-rule:nonzero;"/>
                </g>
                <g transform="matrix(25.8467,0,0,25.8467,299.13,548.598)">
                    <path d="M0.282,0.012c0.097,0 0.173,-0.042 0.212,-0.105l-0.064,-0.063c-0.03,0.048 -0.073,0.078 -0.137,0.078c-0.088,0 -0.137,-0.057 -0.137,-0.137l0,-0.017l0.357,0l0,-0.041c0,-0.144 -0.078,-0.259 -0.231,-0.259c-0.148,0 -0.239,0.106 -0.239,0.272c0,0.166 0.091,0.272 0.239,0.272Zm0,-0.459c0.072,0 0.116,0.053 0.116,0.133l0,0.01l-0.242,0l0,-0.007c0,-0.08 0.051,-0.136 0.126,-0.136Z" style="fill:#192a30;fill-rule:nonzero;"/>
                </g>
                <g transform="matrix(25.8467,0,0,25.8467,313.501,548.598)">
                    <path d="M0.534,0.049c0,-0.09 -0.054,-0.144 -0.182,-0.144l-0.128,0c-0.046,0 -0.073,-0.011 -0.073,-0.039c-0,-0.026 0.024,-0.043 0.05,-0.052c0.019,0.005 0.043,0.008 0.068,0.008c0.132,0 0.208,-0.071 0.208,-0.176c0,-0.06 -0.026,-0.11 -0.073,-0.141l0,-0.021l0.106,0l0,-0.088l-0.08,0c-0.046,0 -0.068,0.028 -0.068,0.074l0,0.014c-0.027,-0.011 -0.059,-0.016 -0.094,-0.016c-0.132,0 -0.207,0.072 -0.207,0.178c0,0.07 0.034,0.125 0.095,0.154l0,0.004c-0.05,0.012 -0.092,0.038 -0.092,0.092c0,0.039 0.021,0.068 0.059,0.08l0,0.011c-0.055,0.012 -0.089,0.043 -0.089,0.1c0,0.079 0.066,0.125 0.236,0.125c0.187,0 0.264,-0.055 0.264,-0.163Zm-0.102,0.012c-0,0.048 -0.042,0.072 -0.127,0.072l-0.068,0c-0.081,0 -0.112,-0.029 -0.112,-0.071c-0,-0.025 0.012,-0.046 0.036,-0.06l0.176,0c0.071,0 0.095,0.023 0.095,0.059Zm-0.163,-0.318c-0.064,0 -0.101,-0.029 -0.101,-0.088l0,-0.02c0,-0.059 0.037,-0.088 0.101,-0.088c0.064,0 0.101,0.029 0.101,0.088l0,0.02c0,0.059 -0.037,0.088 -0.101,0.088Z" style="fill:#192a30;fill-rule:nonzero;"/>
                </g>
                <g transform="matrix(25.8467,0,0,25.8467,327.51,548.598)">
                    <path d="M0.293,-0.214l-0.033,0.113l-0.005,-0l-0.03,-0.113l-0.104,-0.306l-0.109,0l0.189,0.543l-0.03,0.088l-0.088,-0l-0,0.089l0.063,0c0.081,0 0.112,-0.027 0.137,-0.097l0.219,-0.623l-0.105,0l-0.104,0.306Z" style="fill:#192a30;fill-rule:nonzero;"/>
                </g>
            </g>
        </g>
        <g transform="matrix(1.21154,0,0,1.18919,0,8110.49)">
            <g transform="matrix(1.13101,0,0,1.15226,-82.1456,-79.1306)">
                <g transform="matrix(25.8467,0,0,25.8467,251.727,548.598)">
                    <path d="M0.279,0.012c0.1,0 0.171,-0.047 0.205,-0.132l-0.083,-0.044c-0.022,0.052 -0.059,0.086 -0.122,0.086c-0.08,0 -0.121,-0.055 -0.121,-0.135l-0,-0.093c-0,-0.08 0.041,-0.135 0.121,-0.135c0.059,0 0.096,0.031 0.111,0.079l0.09,-0.042c-0.031,-0.077 -0.097,-0.128 -0.201,-0.128c-0.15,0 -0.236,0.106 -0.236,0.272c0,0.166 0.086,0.272 0.236,0.272Z" style="fill:#192a30;fill-rule:nonzero;"/>
                </g>
                <g transform="matrix(25.8467,0,0,25.8467,264.754,548.598)">
                    <path d="M0.282,0.012c0.145,0 0.239,-0.106 0.239,-0.272c0,-0.166 -0.094,-0.272 -0.239,-0.272c-0.145,0 -0.239,0.106 -0.239,0.272c-0,0.166 0.094,0.272 0.239,0.272Zm0,-0.09c-0.074,-0 -0.124,-0.046 -0.124,-0.138l-0,-0.088c-0,-0.092 0.05,-0.138 0.124,-0.138c0.074,0 0.124,0.046 0.124,0.138l0,0.088c0,0.092 -0.05,0.138 -0.124,0.138Z" style="fill:#192a30;fill-rule:nonzero;"/>
                </g>
                <g transform="matrix(25.8467,0,0,25.8467,279.331,548.598)">
                    <path d="M0.187,-0l0,-0.348c0,-0.061 0.056,-0.09 0.113,-0.09c0.067,0 0.098,0.041 0.098,0.122l0,0.316l0.109,0l0,-0.33c0,-0.128 -0.063,-0.202 -0.169,-0.202c-0.08,0 -0.124,0.042 -0.146,0.098l-0.005,0l0,-0.086l-0.109,0l0,0.52l0.109,-0Z" style="fill:#192a30;fill-rule:nonzero;"/>
                </g>
                <g transform="matrix(25.8467,0,0,25.8467,294.322,548.598)">
                    <path d="M0.317,-0l0,-0.089l-0.101,0l0,-0.342l0.109,0l0,-0.089l-0.109,0l-0,-0.142l-0.098,0l-0,0.091c-0,0.036 -0.012,0.051 -0.048,0.051l-0.044,0l-0,0.089l0.081,0l-0,0.318c-0,0.071 0.04,0.113 0.115,0.113l0.095,0Z" style="fill:#192a30;fill-rule:nonzero;"/>
                </g>
                <g transform="matrix(25.8467,0,0,25.8467,303.653,548.598)">
                    <path d="M0.282,0.012c0.097,0 0.173,-0.042 0.212,-0.105l-0.064,-0.063c-0.03,0.048 -0.073,0.078 -0.137,0.078c-0.088,0 -0.137,-0.057 -0.137,-0.137l0,-0.017l0.357,0l0,-0.041c0,-0.144 -0.078,-0.259 -0.231,-0.259c-0.148,0 -0.239,0.106 -0.239,0.272c0,0.166 0.091,0.272 0.239,0.272Zm0,-0.459c0.072,0 0.116,0.053 0.116,0.133l0,0.01l-0.242,0l0,-0.007c0,-0.08 0.051,-0.136 0.126,-0.136Z" style="fill:#192a30;fill-rule:nonzero;"/>
                </g>
                <g transform="matrix(25.8467,0,0,25.8467,317.662,548.598)">
                    <path d="M0.02,-0l0.116,-0l0.125,-0.189l0.003,0l0.12,0.189l0.126,-0l-0.181,-0.264l0.178,-0.256l-0.116,0l-0.12,0.181l-0.003,0l-0.117,-0.181l-0.126,0l0.178,0.257l-0.183,0.263Z" style="fill:#192a30;fill-rule:nonzero;"/>
                </g>
                <g transform="matrix(25.8467,0,0,25.8467,331.361,548.598)">
                    <path d="M0.317,-0l0,-0.089l-0.101,0l0,-0.342l0.109,0l0,-0.089l-0.109,0l-0,-0.142l-0.098,0l-0,0.091c-0,0.036 -0.012,0.051 -0.048,0.051l-0.044,0l-0,0.089l0.081,0l-0,0.318c-0,0.071 0.04,0.113 0.115,0.113l0.095,0Z" style="fill:#192a30;fill-rule:nonzero;"/>
                </g>
            </g>
        </g>
        <g transform="matrix(1.21154,0,0,1.18919,0,8110.49)">
            <g transform="matrix(1.13101,0,0,1.15226,-19.5642,-5648.77)">
                <path d="M488.942,5097.66l28.16,39.169l-27.16,39.169l-77.572,-0l-0,-78.338l76.572,0Z" style="fill:#6598aa;"/>
            </g>
        </g>
        <g transform="matrix(1.21154,0,0,1.18919,0,8110.49)">
            <g transform="matrix(1.13101,0,0,1.15226,-19.5642,-5648.77)">
                <path d="M490.196,5212.3c21.568,0.136 27.036,17.634 27.036,39.168c0,21.617 -5.605,39.168 -27.29,39.168l-77.572,0l-0,-78.337l77.826,0.001Z" style="fill:#6598aa;"/>
            </g>
        </g>
        <g transform="matrix(1.21154,0,0,1.18919,0,8110.49)">
            <g transform="matrix(1.13101,0,0,1.15226,-19.5642,-5648.77)">
                <path d="M489.942,5326.93l23.227,19.584l0,39.169l-23.227,19.584l-77.572,0l-0,-78.337l77.572,-0Z" style="fill:#6598aa;"/>
            </g>
        </g>
    </g>
</svg>
