<?xml version="1.0" encoding="UTF-8" standalone="no"?>
<!DOCTYPE svg PUBLIC "-//W3C//DTD SVG 1.1//EN" "http://www.w3.org/Graphics/SVG/1.1/DTD/svg11.dtd">
<!--Copyright 2021 Tom Rothe-->
<svg width="100%" height="100%" viewBox="0 0 633 280" version="1.1" xmlns="http://www.w3.org/2000/svg" xmlns:xlink="http://www.w3.org/1999/xlink" xml:space="preserve" xmlns:serif="http://www.serif.com/" style="fill-rule:evenodd;clip-rule:evenodd;stroke-miterlimit:10;">
    <g transform="matrix(1,0,0,1,-54.596,-7322.31)">
        <g transform="matrix(1.21154,0,0,1.18919,0,6942.45)">
            <g transform="matrix(1.39962,0,0,1.42593,-53.7191,-97.0725)">
                <rect x="70.578" y="292.091" width="164.917" height="164.917" style="fill:#6598aa;"/>
            </g>
        </g>
        <g transform="matrix(1.21154,0,0,1.18919,0,6942.45)">
            <g transform="matrix(-0.165973,0,0,0.0213457,710.798,433.524)">
                <g transform="matrix(-4.97309,0,0,39.3948,4011.11,-5345.13)">
                    <path d="M302.861,153.287l-17.579,-11.718l17.579,-11.719l-0,23.437Z" style="fill:none;stroke:#192a30;stroke-width:6.25px;"/>
                    <path d="M352.892,141.569l-50.031,-0" style="fill:none;stroke:#192a30;stroke-width:6.25px;stroke-linecap:square;stroke-linejoin:round;stroke-miterlimit:1.5;"/>
                </g>
            </g>
        </g>
        <g transform="matrix(1.21154,0,0,1.18919,0,6942.45)">
            <g transform="matrix(0.0631879,0,0,1.25705,-65.4161,203.558)">
                <g transform="matrix(13.0626,-0,-0,0.668956,1748.43,92.1763)">
                    <path d="M48.003,199.552l18.75,9.375l-18.75,9.375l-0,-18.75Z" style="fill:#192a30;"/>
                    <path d="M38.868,96.121l0,106.511c0,3.477 2.819,6.295 6.295,6.295c1.984,0 4.267,0 6.59,0" style="fill:none;stroke:#192a30;stroke-width:5px;stroke-linecap:square;stroke-linejoin:round;stroke-miterlimit:1.5;"/>
                </g>
            </g>
        </g>
        <g transform="matrix(1.21154,0,0,1.18919,0,6942.45)">
            <g transform="matrix(0.0631879,0,0,1.25705,-65.4161,145.449)">
                <g transform="matrix(13.0626,-0,-0,0.668956,1748.43,138.403)">
                    <path d="M48.003,130.449l18.75,9.375l-18.75,9.375l-0,-18.75Z" style="fill:#192a30;"/>
                    <path d="M38.868,96.121l0,37.408c0,1.67 0.664,3.271 1.844,4.452c1.181,1.18 2.782,1.843 4.451,1.843c1.984,0 4.267,0 6.59,0" style="fill:none;stroke:#192a30;stroke-width:5px;stroke-linecap:square;stroke-linejoin:round;stroke-miterlimit:1.5;"/>
                </g>
            </g>
        </g>
        <g transform="matrix(1.21154,0,0,1.18919,0,6942.45)">
            <g transform="matrix(1.17319,0,0,0.259023,-19.0668,281.882)">
                <rect x="70.578" y="292.091" width="164.917" height="164.917" style="fill:#fff;"/>
            </g>
        </g>
        <g transform="matrix(1.21154,0,0,1.18919,0,6942.45)">
            <g transform="matrix(0.952313,0,0,0.259023,32.9487,339.847)">
                <path d="M84.093,457.008l-0,-10.822c-3.508,0 -6.441,0 -8.668,0l0,10.822l8.668,-0Zm14.445,-0l0,-10.822c-3.086,0 -5.987,0 -8.667,0l-0,10.822l8.667,-0Zm14.446,-0l-0,-10.822l-8.668,0l0,10.822l8.668,-0Zm5.778,-0l8.667,-0l0,-10.822c-2.943,0 -5.838,0 -8.667,0l-0,10.822Zm14.445,-0l8.668,-0l-0,-10.822c-2.913,0 -5.807,0 -8.668,0l0,10.822Zm23.113,-0l-0,-10.822c-2.888,0 -5.782,0 -8.667,0l-0,10.822l8.667,-0Zm14.445,-0l0,-10.822l-8.667,0l0,10.822l8.667,-0Zm14.446,-0l-0,-10.822l-8.667,0l-0,10.822l8.667,-0Zm14.445,-0l0,-10.822c-2.79,0 -5.686,0 -8.667,0l0,10.822l8.667,-0Zm14.446,-0l-0,-10.822c-2.702,0 -5.602,0 -8.667,0l-0,10.822l8.667,-0Zm5.778,-0l8.667,-0l0,-10.822c-2.374,0 -5.295,0 -8.667,0l0,10.822Zm15.615,-0l-0,-28.086l-2.89,-0l0,28.086l2.89,-0Zm-164.917,-35.951l-0,32.464l2.889,0l-0,-32.464l-2.889,-0Zm164.917,-46.243l-2.89,0l0,32.465l2.89,-0l-0,-32.465Zm-164.917,-7.865l-0,32.465l2.889,-0l-0,-32.465l-2.889,-0Zm164.917,-46.243l-2.89,0l0,32.465l2.89,0l-0,-32.465Zm-164.917,-7.865l-0,32.465l2.889,-0l-0,-32.465l-2.889,0Zm37.796,-20.75l-8.667,0l0,10.822c2.758,-0 5.656,-0 8.667,-0l0,-10.822Zm127.121,10.822l-0,-10.822l-5.779,0l0,10.822l5.779,-0Zm-156.011,-10.822l-8.668,0l0,10.822l8.668,-0l-0,-10.822Zm14.445,0l-8.667,0l-0,10.822l8.667,-0l0,-10.822Zm28.891,0l-8.667,0l-0,10.822l8.667,-0l-0,-10.822Zm14.445,0l-8.667,0l0,10.822l8.667,-0l0,-10.822Zm14.446,0l-8.667,0l-0,10.822l8.667,-0l0,-10.822Zm14.445,0l-8.667,0l0,10.822l8.667,-0l0,-10.822Zm14.446,0l-8.667,0l-0,10.822l8.667,-0l-0,-10.822Zm14.446,0l-8.668,0l0,10.822c2.965,-0 5.861,-0 8.668,-0l-0,-10.822Zm28.89,0l-8.667,0l0,10.822c3.21,-0 6.12,-0 8.667,-0l0,-10.822Zm-14.445,0l-8.667,0l-0,10.822c3.03,-0 5.928,-0 8.667,-0l-0,-10.822Z" style="fill:#192a30;"/>
            </g>
        </g>
        <g transform="matrix(1.21154,0,0,1.18919,0,6942.45)">
            <g transform="matrix(0.952313,0,0,0.259023,32.9487,398.1)">
                <path d="M84.093,457.008l-0,-10.822l-8.668,0l0,10.822l8.668,-0Zm14.445,-0l0,-10.822c-3.086,0 -5.987,0 -8.667,0l-0,10.822l8.667,-0Zm14.446,-0l-0,-10.822l-8.668,0l0,10.822l8.668,-0Zm5.778,-0l8.667,-0l0,-10.822c-2.943,0 -5.838,0 -8.667,0l-0,10.822Zm23.113,-0l-0,-10.822l-8.668,0l0,10.822l8.668,-0Zm14.445,-0l-0,-10.822l-8.667,0l-0,10.822l8.667,-0Zm14.445,-0l0,-10.822l-8.667,0l0,10.822l8.667,-0Zm14.446,-0l-0,-10.822c-2.835,0 -5.729,0 -8.667,0l-0,10.822l8.667,-0Zm14.445,-0l0,-10.822c-2.79,0 -5.686,0 -8.667,0l0,10.822l8.667,-0Zm14.446,-0l-0,-10.822c-2.702,0 -5.602,0 -8.667,0l-0,10.822l8.667,-0Zm5.778,-0l8.667,-0l0,-10.822c-2.374,0 -5.295,0 -8.667,0l0,10.822Zm15.615,-0l-0,-28.086l-2.89,-0l0,28.086l2.89,-0Zm-164.917,-35.951l-0,32.464l2.889,0l-0,-32.464l-2.889,-0Zm164.917,-46.243l-2.89,0l0,32.465l2.89,-0l-0,-32.465Zm-164.917,-7.865l-0,32.465l2.889,-0l-0,-32.465l-2.889,-0Zm164.917,-46.243l-2.89,0l0,32.465l2.89,0l-0,-32.465Zm-164.917,-7.865l-0,32.465l2.889,-0l-0,-32.465l-2.889,0Zm37.796,-20.75l-8.667,0l0,10.822c2.758,-0 5.656,-0 8.667,-0l0,-10.822Zm14.446,0l-8.667,0l-0,10.822c2.816,-0 5.712,-0 8.667,-0l-0,-10.822Zm57.782,0l-8.667,0l-0,10.822c2.928,-0 5.822,-0 8.667,-0l-0,-10.822Zm-14.446,0l-8.667,0l0,10.822c2.902,-0 5.795,-0 8.667,-0l0,-10.822Zm-14.445,0l-8.667,0l-0,10.822c2.877,-0 5.771,-0 8.667,-0l0,-10.822Zm-14.446,0l-8.667,0l0,10.822c2.852,-0 5.746,-0 8.667,-0l0,-10.822Zm98.23,10.822l-0,-10.822l-5.779,0l0,10.822c3.697,-0 5.779,-0 5.779,-0Zm-156.011,-10.822l-8.668,0l0,10.822l8.668,-0l-0,-10.822Zm14.445,0l-8.667,0l-0,10.822c2.614,-0 5.52,-0 8.667,-0l0,-10.822Zm101.119,0l-8.668,0l0,10.822l8.668,-0l-0,-10.822Zm14.445,0l-8.667,0l-0,10.822c3.03,-0 5.928,-0 8.667,-0l-0,-10.822Zm14.445,0l-8.667,0l0,10.822c3.21,-0 6.12,-0 8.667,-0l0,-10.822Z" style="fill:#192a30;"/>
            </g>
        </g>
        <g transform="matrix(1.21154,0,0,1.18919,0,6942.45)">
            <g transform="matrix(1.39962,0,0,1.42593,237.556,-97.0725)">
                <rect x="70.578" y="292.091" width="164.917" height="164.917" style="fill:#6598aa;"/>
            </g>
        </g>
        <g transform="matrix(1.21154,0,0,1.18919,0,6942.45)">
            <g transform="matrix(0.952313,0,0,0.259023,324.224,339.847)">
                <rect x="70.578" y="292.091" width="164.917" height="164.917" style="fill:#fff;"/>
            </g>
        </g>
        <g transform="matrix(1.21154,0,0,1.18919,0,6942.45)">
            <g transform="matrix(0.952313,0,0,0.259023,324.224,398.1)">
                <rect x="70.578" y="292.091" width="164.917" height="164.917" style="fill:#fff;"/>
            </g>
        </g>
        <g transform="matrix(1.21154,0,0,1.18919,0,6942.45)">
            <g transform="matrix(1.17319,0,0,0.259023,272.209,281.882)">
                <path d="M70.578,440.107l-0,16.901l3.373,-0l-0,-10.822l-1.028,0c0,0 0,-6.079 0,-6.079l-2.345,-0Zm15.098,16.901l0,-10.822c-2.651,0 -5.012,0 -7.035,0l-0,10.822l7.035,-0Zm11.726,-0l0,-10.822l-7.035,0l-0,10.822l7.035,-0Zm11.726,-0l0,-10.822l-7.035,0l-0,10.822l7.035,-0Zm11.726,-0l-0,-10.822l-7.036,0l0,10.822l7.036,-0Zm4.69,-0l7.036,-0l-0,-10.822c-2.372,0 -4.72,0 -7.036,0l0,10.822Zm18.762,-0l-0,-10.822c-2.358,0 -4.706,0 -7.036,0l0,10.822l7.036,-0Zm11.725,-0l0,-10.822l-7.035,0l-0,10.822l7.035,-0Zm11.726,-0l0,-10.822c-2.331,0 -4.679,0 -7.035,0l-0,10.822l7.035,-0Zm11.726,-0l-0,-10.822l-7.036,0l0,10.822l7.036,-0Zm11.726,-0l-0,-10.822c-2.298,0 -4.646,0 -7.036,0l0,10.822l7.036,-0Zm4.69,-0l7.036,-0l-0,-10.822c-2.269,0 -4.618,0 -7.036,0l0,10.822Zm11.726,-0l7.035,-0l0,-10.822c-2.213,0 -4.565,0 -7.035,0l-0,10.822Zm18.761,-0l0,-10.822c-2.054,0 -4.413,0 -7.035,0l-0,10.822l7.035,-0Zm9.109,-0l-0,-12.078l-2.346,-0l0,1.256c0,0 -2.072,0 -2.072,0l-0,10.822l4.418,-0Zm-0,-66.186l-2.346,-0l0,32.465l2.346,-0l-0,-32.465Zm-164.917,-4.823l-0,32.465l2.345,-0l0,-32.465l-2.345,0Zm164.917,-49.285l-2.346,0l0,32.465l2.346,-0l-0,-32.465Zm-164.917,-4.823l-0,32.465l2.345,0l0,-32.465l-2.345,0Zm164.917,-39.8c-0,0 -4.691,0 -4.691,0l0,10.822l2.345,-0l0,12.158l2.346,0l-0,-22.98Zm-161.816,0l-3.101,0l-0,18.157l2.345,0l0,-7.335c0,-0 0.756,-0 0.756,-0l-0,-10.822Zm70.354,0l-7.035,0l-0,10.822c2.33,-0 4.678,-0 7.035,-0l0,-10.822Zm58.629,0l-7.035,0l-0,10.822l7.035,-0l0,-10.822Zm-70.354,0l-7.036,0l0,10.822l7.036,-0l-0,-10.822Zm23.451,0l-7.035,0l-0,10.822l7.035,-0l0,-10.822Zm11.726,0l-7.036,0l0,10.822l7.036,-0l-0,-10.822Zm11.726,0l-7.036,0l0,10.822l7.036,-0l-0,-10.822Zm11.726,0l-7.036,0l0,10.822l7.036,-0l-0,-10.822Zm23.451,0l-7.035,0l-0,10.822l7.035,-0l0,-10.822Zm11.726,0l-7.036,0l0,10.822l7.036,-0l-0,-10.822Zm-140.71,0l-7.035,0l-0,10.822c2.014,-0 4.376,-0 7.035,-0l0,-10.822Zm35.178,0l-7.036,0l0,10.822c2.295,-0 4.644,-0 7.036,-0l-0,-10.822Zm-11.726,0l-7.036,0l0,10.822l7.036,-0l-0,-10.822Zm-11.726,0l-7.035,0l-0,10.822l7.035,-0l0,-10.822Z" style="fill:#192a30;"/>
            </g>
        </g>
        <g transform="matrix(1.21154,0,0,1.18919,0,6942.45)">
            <g transform="matrix(1.04707,0,0,1.06674,-113.553,-196.807)">
                <g transform="matrix(27.9188,0,0,27.9188,225.239,548.598)">
                    <path d="M0.317,-0l0,-0.089l-0.101,0l0,-0.342l0.109,0l0,-0.089l-0.109,0l-0,-0.142l-0.098,0l-0,0.091c-0,0.036 -0.012,0.051 -0.048,0.051l-0.044,0l-0,0.089l0.081,0l-0,0.318c-0,0.071 0.04,0.113 0.115,0.113l0.095,0Z" style="fill:#192a30;fill-rule:nonzero;"/>
                </g>
                <g transform="matrix(27.9188,0,0,27.9188,235.318,548.598)">
                    <path d="M0.282,0.012c0.097,0 0.173,-0.042 0.212,-0.105l-0.064,-0.063c-0.03,0.048 -0.073,0.078 -0.137,0.078c-0.088,0 -0.137,-0.057 -0.137,-0.137l0,-0.017l0.357,0l0,-0.041c0,-0.144 -0.078,-0.259 -0.231,-0.259c-0.148,0 -0.239,0.106 -0.239,0.272c0,0.166 0.091,0.272 0.239,0.272Zm0,-0.459c0.072,0 0.116,0.053 0.116,0.133l0,0.01l-0.242,0l0,-0.007c0,-0.08 0.051,-0.136 0.126,-0.136Z" style="fill:#192a30;fill-rule:nonzero;"/>
                </g>
                <g transform="matrix(27.9188,0,0,27.9188,250.84,548.598)">
                    <path d="M0.187,-0l0,-0.349c0,-0.06 0.053,-0.089 0.107,-0.089c0.064,0 0.095,0.04 0.095,0.121l0,0.317l0.109,0l0,-0.349c0,-0.06 0.051,-0.089 0.106,-0.089c0.066,0 0.096,0.041 0.096,0.121l0,0.317l0.109,0l0,-0.33c0,-0.128 -0.061,-0.202 -0.164,-0.202c-0.084,0 -0.138,0.048 -0.157,0.106l-0.003,0c-0.025,-0.072 -0.084,-0.106 -0.154,-0.106c-0.079,0 -0.118,0.044 -0.139,0.098l-0.005,0l0,-0.086l-0.109,0l0,0.52l0.109,-0Z" style="fill:#192a30;fill-rule:nonzero;"/>
                </g>
                <g transform="matrix(27.9188,0,0,27.9188,275.465,548.598)">
                    <path d="M0.078,0.2l0.109,0l0,-0.286l0.005,0c0.022,0.061 0.077,0.098 0.146,0.098c0.131,0 0.207,-0.101 0.207,-0.272c0,-0.171 -0.076,-0.272 -0.207,-0.272c-0.069,0 -0.124,0.036 -0.146,0.098l-0.005,0l0,-0.086l-0.109,0l0,0.72Zm0.227,-0.282c-0.066,0 -0.118,-0.036 -0.118,-0.089l0,-0.178c0,-0.053 0.052,-0.089 0.118,-0.089c0.075,0 0.125,0.053 0.125,0.133l0,0.09c0,0.08 -0.05,0.133 -0.125,0.133Z" style="fill:#192a30;fill-rule:nonzero;"/>
                </g>
                <g transform="matrix(27.9188,0,0,27.9188,291.993,548.598)">
                    <path d="M0.259,-0l0,-0.089l-0.072,0l0,-0.651l-0.109,0l0,0.632c0,0.067 0.037,0.108 0.111,0.108l0.07,-0Z" style="fill:#192a30;fill-rule:nonzero;"/>
                </g>
                <g transform="matrix(27.9188,0,0,27.9188,299.95,548.598)">
                    <path d="M0.52,-0l0,-0.089l-0.055,0l0,-0.261c0,-0.116 -0.075,-0.182 -0.209,-0.182c-0.101,0 -0.162,0.043 -0.196,0.101l0.065,0.059c0.026,-0.041 0.063,-0.071 0.124,-0.071c0.073,0 0.107,0.037 0.107,0.1l0,0.044l-0.094,0c-0.145,0 -0.222,0.053 -0.222,0.156c-0,0.094 0.061,0.155 0.168,0.155c0.076,0 0.132,-0.034 0.152,-0.099l0.005,0c0.007,0.051 0.037,0.087 0.094,0.087l0.061,0Zm-0.281,-0.071c-0.054,0 -0.088,-0.024 -0.088,-0.07l0,-0.018c0,-0.045 0.037,-0.07 0.113,-0.07l0.092,0l0,0.075c0,0.051 -0.05,0.083 -0.117,0.083Z" style="fill:#192a30;fill-rule:nonzero;"/>
                </g>
                <g transform="matrix(27.9188,0,0,27.9188,315.193,548.598)">
                    <path d="M0.317,-0l0,-0.089l-0.101,0l0,-0.342l0.109,0l0,-0.089l-0.109,0l-0,-0.142l-0.098,0l-0,0.091c-0,0.036 -0.012,0.051 -0.048,0.051l-0.044,0l-0,0.089l0.081,0l-0,0.318c-0,0.071 0.04,0.113 0.115,0.113l0.095,0Z" style="fill:#192a30;fill-rule:nonzero;"/>
                </g>
                <g transform="matrix(27.9188,0,0,27.9188,325.272,548.598)">
                    <path d="M0.282,0.012c0.097,0 0.173,-0.042 0.212,-0.105l-0.064,-0.063c-0.03,0.048 -0.073,0.078 -0.137,0.078c-0.088,0 -0.137,-0.057 -0.137,-0.137l0,-0.017l0.357,0l0,-0.041c0,-0.144 -0.078,-0.259 -0.231,-0.259c-0.148,0 -0.239,0.106 -0.239,0.272c0,0.166 0.091,0.272 0.239,0.272Zm0,-0.459c0.072,0 0.116,0.053 0.116,0.133l0,0.01l-0.242,0l0,-0.007c0,-0.08 0.051,-0.136 0.126,-0.136Z" style="fill:#192a30;fill-rule:nonzero;"/>
                </g>
            </g>
        </g>
    </g>
</svg>
