<?xml version="1.0" encoding="UTF-8" standalone="no"?>
<!DOCTYPE svg PUBLIC "-//W3C//DTD SVG 1.1//EN" "http://www.w3.org/Graphics/SVG/1.1/DTD/svg11.dtd">
<svg width="100%" height="100%" viewBox="0 0 545 345" version="1.1" xmlns="http://www.w3.org/2000/svg" xmlns:xlink="http://www.w3.org/1999/xlink" xml:space="preserve" xmlns:serif="http://www.serif.com/" style="fill-rule:evenodd;clip-rule:evenodd;stroke-linejoin:round;stroke-miterlimit:1.5;">
    <rect x="0" y="30.286" width="272.061" height="272.404" style="fill:#7d9bbf;"/>
    <path d="M188.133,337.757c4.427,0 7.296,-2.373 7.296,-5.914c0,-2.975 -1.806,-4.746 -5.844,-5.348l-1.7,-0.213c-1.948,-0.318 -2.833,-0.956 -2.833,-2.373c0,-1.381 0.992,-2.302 3.117,-2.302c1.983,0 3.541,0.957 4.498,2.09l2.373,-2.267c-1.665,-1.841 -3.542,-2.939 -6.871,-2.939c-4.038,-0 -6.836,2.089 -6.836,5.666c0,3.4 2.302,5.029 6.057,5.49l1.7,0.212c1.912,0.248 2.62,1.134 2.62,2.302c0,1.559 -1.133,2.48 -3.364,2.48c-2.196,-0 -3.861,-0.992 -5.206,-2.621l-2.48,2.266c1.736,2.161 4.002,3.471 7.473,3.471Z" style="fill:#28424c;fill-rule:nonzero;"/>
    <path d="M206.904,337.757c3.542,0 6.056,-1.664 7.261,-4.675l-2.94,-1.558c-0.779,1.842 -2.09,3.046 -4.321,3.046c-2.833,-0 -4.285,-1.948 -4.285,-4.781l-0,-3.294c-0,-2.834 1.452,-4.781 4.285,-4.781c2.09,-0 3.4,1.097 3.931,2.797l3.188,-1.487c-1.098,-2.727 -3.436,-4.533 -7.119,-4.533c-5.312,-0 -8.358,3.754 -8.358,9.633c-0,5.879 3.046,9.633 8.358,9.633Z" style="fill:#28424c;fill-rule:nonzero;"/>
    <path d="M224.86,337.757c5.136,0 8.465,-3.754 8.465,-9.633c-0,-5.879 -3.329,-9.633 -8.465,-9.633c-5.135,-0 -8.464,3.754 -8.464,9.633c-0,5.879 3.329,9.633 8.464,9.633Zm0,-3.187c-2.62,-0 -4.391,-1.629 -4.391,-4.888l-0,-3.116c-0,-3.259 1.771,-4.888 4.391,-4.888c2.621,0 4.392,1.629 4.392,4.888l0,3.116c0,3.259 -1.771,4.888 -4.392,4.888Z" style="fill:#28424c;fill-rule:nonzero;"/>
    <path d="M237.61,344.416l3.861,-0l-0,-10.13l0.177,0c0.779,2.161 2.727,3.471 5.171,3.471c4.639,0 7.331,-3.577 7.331,-9.633c-0,-6.056 -2.692,-9.633 -7.331,-9.633c-2.444,-0 -4.392,1.275 -5.171,3.47l-0.177,0l-0,-3.045l-3.861,-0l0,25.5Zm8.04,-9.988c-2.338,0 -4.179,-1.275 -4.179,-3.152l-0,-6.304c-0,-1.877 1.841,-3.152 4.179,-3.152c2.656,-0 4.427,1.877 4.427,4.71l0,3.188c0,2.833 -1.771,4.71 -4.427,4.71Z" style="fill:#28424c;fill-rule:nonzero;"/>
    <path d="M265.802,337.757c3.435,0 6.127,-1.487 7.508,-3.718l-2.266,-2.232c-1.063,1.7 -2.586,2.763 -4.852,2.763c-3.117,-0 -4.852,-2.019 -4.852,-4.852l-0,-0.602l12.643,-0l0,-1.452c0,-5.1 -2.762,-9.173 -8.181,-9.173c-5.242,-0 -8.465,3.754 -8.465,9.633c0,5.879 3.223,9.633 8.465,9.633Zm0,-16.256c2.55,0 4.108,1.877 4.108,4.71l0,0.355l-8.57,-0l-0,-0.248c-0,-2.834 1.806,-4.817 4.462,-4.817Z" style="fill:#28424c;fill-rule:nonzero;"/>
    <rect x="27.161" y="57.447" width="217.739" height="218.082" style="fill:#fff;"/>
    <rect x="326.383" y="57.447" width="217.739" height="218.082" style="fill:#7d9bbf;"/>
    <path d="M369.883,262.241l3.86,0l0,-10.129l0.177,0c0.779,2.161 2.727,3.471 5.171,3.471c4.64,0 7.331,-3.577 7.331,-9.633c0,-6.057 -2.691,-9.634 -7.331,-9.634c-2.444,0 -4.392,1.275 -5.171,3.471l-0.177,0l0,-3.046l-3.86,0l-0,25.5Zm8.039,-9.987c-2.337,-0 -4.179,-1.275 -4.179,-3.152l0,-6.304c0,-1.877 1.842,-3.152 4.179,-3.152c2.657,-0 4.427,1.877 4.427,4.71l0,3.187c0,2.834 -1.77,4.711 -4.427,4.711Z" style="fill:#28424c;fill-rule:nonzero;"/>
    <path d="M394.71,255.158l-0,-11.758c-0,-1.913 1.7,-2.94 4.746,-2.94l1.523,0l-0,-3.719l-1.027,0c-2.94,0 -4.534,1.665 -5.065,3.542l-0.177,0l-0,-3.542l-3.861,0l0,18.417l3.861,0Z" style="fill:#28424c;fill-rule:nonzero;"/>
    <path d="M411.462,255.583c5.135,0 8.465,-3.754 8.465,-9.633c-0,-5.879 -3.33,-9.634 -8.465,-9.634c-5.135,0 -8.465,3.755 -8.465,9.634c0,5.879 3.33,9.633 8.465,9.633Zm-0,-3.187c-2.621,-0 -4.392,-1.63 -4.392,-4.888l0,-3.117c0,-3.258 1.771,-4.887 4.392,-4.887c2.621,-0 4.392,1.629 4.392,4.887l-0,3.117c-0,3.258 -1.771,4.888 -4.392,4.888Z" style="fill:#28424c;fill-rule:nonzero;"/>
    <path d="M424.212,259.089l-2.869,0l0,3.152l2.231,0c3.117,0 4.498,-1.77 4.498,-4.604l0,-20.896l-3.86,0l-0,22.348Zm1.948,-25.641c1.594,-0 2.267,-0.85 2.267,-2.019l-0,-0.602c-0,-1.169 -0.673,-2.019 -2.267,-2.019c-1.594,0 -2.302,0.85 -2.302,2.019l-0,0.602c-0,1.169 0.708,2.019 2.302,2.019Z" style="fill:#28424c;fill-rule:nonzero;"/>
    <path d="M440.822,255.583c3.436,0 6.127,-1.487 7.509,-3.719l-2.267,-2.231c-1.062,1.7 -2.585,2.763 -4.852,2.763c-3.117,-0 -4.852,-2.019 -4.852,-4.853l-0,-0.602l12.644,0l-0,-1.452c-0,-5.1 -2.763,-9.173 -8.182,-9.173c-5.241,0 -8.464,3.755 -8.464,9.634c-0,5.879 3.223,9.633 8.464,9.633Zm0,-16.256c2.55,-0 4.109,1.877 4.109,4.71l-0,0.354l-8.571,0l-0,-0.248c-0,-2.833 1.806,-4.816 4.462,-4.816Z" style="fill:#28424c;fill-rule:nonzero;"/>
    <path d="M460.408,255.583c3.541,0 6.056,-1.665 7.26,-4.675l-2.939,-1.558c-0.78,1.841 -2.09,3.046 -4.321,3.046c-2.834,-0 -4.286,-1.948 -4.286,-4.782l0,-3.293c0,-2.834 1.452,-4.782 4.286,-4.782c2.089,0 3.4,1.098 3.931,2.798l3.188,-1.487c-1.098,-2.727 -3.436,-4.534 -7.119,-4.534c-5.313,0 -8.359,3.755 -8.359,9.634c0,5.879 3.046,9.633 8.359,9.633Z" style="fill:#28424c;fill-rule:nonzero;"/>
    <path d="M479.816,255.158l0,-3.152l-3.577,-0l0,-12.113l3.86,0l0,-3.152l-3.86,0l0,-5.029l-3.471,0l0,3.223c0,1.275 -0.425,1.806 -1.7,1.806l-1.558,0l-0,3.152l2.869,0l-0,11.263c-0,2.515 1.416,4.002 4.073,4.002l3.364,0Z" style="fill:#28424c;fill-rule:nonzero;"/>
    <path d="M486.227,233.448c1.593,-0 2.266,-0.85 2.266,-2.019l0,-0.602c0,-1.169 -0.673,-2.019 -2.266,-2.019c-1.594,0 -2.303,0.85 -2.303,2.019l0,0.602c0,1.169 0.709,2.019 2.303,2.019Zm-1.948,21.71l3.86,0l0,-18.417l-3.86,0l-0,18.417Z" style="fill:#28424c;fill-rule:nonzero;"/>
    <path d="M500.889,255.583c5.135,0 8.465,-3.754 8.465,-9.633c-0,-5.879 -3.33,-9.634 -8.465,-9.634c-5.135,0 -8.465,3.755 -8.465,9.634c0,5.879 3.33,9.633 8.465,9.633Zm0,-3.187c-2.621,-0 -4.392,-1.63 -4.392,-4.888l0,-3.117c0,-3.258 1.771,-4.887 4.392,-4.887c2.621,-0 4.392,1.629 4.392,4.887l-0,3.117c-0,3.258 -1.771,4.888 -4.392,4.888Z" style="fill:#28424c;fill-rule:nonzero;"/>
    <path d="M517.499,255.158l0,-12.325c0,-2.16 1.984,-3.187 4.003,-3.187c2.372,-0 3.47,1.452 3.47,4.32l0,11.192l3.861,0l-0,-11.687c-0,-4.534 -2.231,-7.155 -5.986,-7.155c-2.833,0 -4.391,1.488 -5.17,3.471l-0.178,0l0,-3.046l-3.86,0l0,18.417l3.86,0Z" style="fill:#28424c;fill-rule:nonzero;"/>
    <path d="M101.427,255.158l-0,-11.758c-0,-1.913 1.7,-2.94 4.746,-2.94l1.523,0l-0,-3.719l-1.027,0c-2.94,0 -4.534,1.665 -5.065,3.542l-0.177,0l-0,-3.542l-3.861,0l0,18.417l3.861,0Z" style="fill:#28424c;fill-rule:nonzero;"/>
    <path d="M118.179,255.583c3.435,0 6.127,-1.487 7.508,-3.719l-2.266,-2.231c-1.063,1.7 -2.586,2.763 -4.852,2.763c-3.117,-0 -4.853,-2.019 -4.853,-4.853l0,-0.602l12.644,0l0,-1.452c0,-5.1 -2.762,-9.173 -8.181,-9.173c-5.242,0 -8.465,3.755 -8.465,9.634c0,5.879 3.223,9.633 8.465,9.633Zm-0,-16.256c2.55,-0 4.108,1.877 4.108,4.71l0,0.354l-8.571,0l0,-0.248c0,-2.833 1.807,-4.816 4.463,-4.816Z" style="fill:#28424c;fill-rule:nonzero;"/>
    <path d="M142.227,262.241l3.86,0l0,-25.5l-3.86,0l-0,3.046l-0.177,0c-0.779,-2.196 -2.727,-3.471 -5.171,-3.471c-4.64,0 -7.331,3.577 -7.331,9.634c-0,6.056 2.691,9.633 7.331,9.633c2.444,0 4.392,-1.31 5.171,-3.471l0.177,0l-0,10.129Zm-4.179,-9.987c-2.657,-0 -4.427,-1.877 -4.427,-4.711l-0,-3.187c-0,-2.833 1.77,-4.71 4.427,-4.71c2.337,-0 4.179,1.275 4.179,3.152l-0,6.304c-0,1.877 -1.842,3.152 -4.179,3.152Z" style="fill:#28424c;fill-rule:nonzero;"/>
    <path d="M162.769,255.158l3.86,0l-0,-18.417l-3.86,0l-0,12.325c-0,2.161 -1.948,3.188 -3.932,3.188c-2.373,-0 -3.541,-1.488 -3.541,-4.286l-0,-11.227l-3.861,0l0,11.723c0,4.534 2.231,7.119 6.021,7.119c3.046,0 4.498,-1.665 5.171,-3.471l0.142,0l-0,3.046Z" style="fill:#28424c;fill-rule:nonzero;"/>
    <path d="M174.102,233.448c1.594,-0 2.267,-0.85 2.267,-2.019l-0,-0.602c-0,-1.169 -0.673,-2.019 -2.267,-2.019c-1.594,0 -2.302,0.85 -2.302,2.019l-0,0.602c-0,1.169 0.708,2.019 2.302,2.019Zm-1.948,21.71l3.86,0l0,-18.417l-3.86,0l-0,18.417Z" style="fill:#28424c;fill-rule:nonzero;"/>
    <path d="M185.4,255.158l-0,-11.758c-0,-1.913 1.7,-2.94 4.746,-2.94l1.523,0l-0,-3.719l-1.028,0c-2.939,0 -4.533,1.665 -5.064,3.542l-0.177,0l-0,-3.542l-3.861,0l0,18.417l3.861,0Z" style="fill:#28424c;fill-rule:nonzero;"/>
    <path d="M202.152,255.583c3.435,0 6.127,-1.487 7.508,-3.719l-2.266,-2.231c-1.063,1.7 -2.586,2.763 -4.853,2.763c-3.116,-0 -4.852,-2.019 -4.852,-4.853l0,-0.602l12.644,0l0,-1.452c0,-5.1 -2.762,-9.173 -8.181,-9.173c-5.242,0 -8.465,3.755 -8.465,9.634c0,5.879 3.223,9.633 8.465,9.633Zm-0,-16.256c2.55,-0 4.108,1.877 4.108,4.71l0,0.354l-8.571,0l0,-0.248c0,-2.833 1.807,-4.816 4.463,-4.816Z" style="fill:#28424c;fill-rule:nonzero;"/>
    <path d="M226.2,255.158l3.86,0l0,-26.208l-3.86,-0l-0,10.837l-0.177,0c-0.779,-2.196 -2.727,-3.471 -5.171,-3.471c-4.64,0 -7.331,3.577 -7.331,9.634c-0,6.056 2.691,9.633 7.331,9.633c2.444,0 4.392,-1.31 5.171,-3.471l0.177,0l-0,3.046Zm-4.179,-2.904c-2.657,-0 -4.427,-1.877 -4.427,-4.711l-0,-3.187c-0,-2.833 1.77,-4.71 4.427,-4.71c2.337,-0 4.179,1.275 4.179,3.152l-0,6.304c-0,1.877 -1.842,3.152 -4.179,3.152Z" style="fill:#28424c;fill-rule:nonzero;"/>
    <path d="M299.222,3.125l-0,326.726" style="fill:none;stroke:#2d4765;stroke-width:6.25px;stroke-dasharray:18.75,12.5,0,0;"/>
</svg>
