<?xml version="1.0" encoding="UTF-8" standalone="no"?>
<!DOCTYPE svg PUBLIC "-//W3C//DTD SVG 1.1//EN" "http://www.w3.org/Graphics/SVG/1.1/DTD/svg11.dtd">
<svg width="100%" height="100%" viewBox="0 0 357 262" version="1.1" xmlns="http://www.w3.org/2000/svg" xmlns:xlink="http://www.w3.org/1999/xlink" xml:space="preserve" xmlns:serif="http://www.serif.com/" style="fill-rule:evenodd;clip-rule:evenodd;stroke-linejoin:round;stroke-miterlimit:1.5;">
    <g transform="matrix(1,0,0,1,-241.175,-388.972)">
        <g id="Singleton-front" transform="matrix(1.21154,0,0,1.18919,0,1.13687e-13)">
            <g transform="matrix(1.30842,0,0,1.33301,106.72,-62.2708)">
                <rect x="70.578" y="292.091" width="164.917" height="164.917" style="fill:white;"/>
            </g>
            <g transform="matrix(1.15848,0,0,1.18025,-47.9069,-163.793)">
                <text x="242.333px" y="548.598px" style="font-family:'IBMPlexSans-Medium', 'IBM Plex Sans', sans-serif;font-weight:500;font-size:25.234px;fill:rgb(40,66,76);">singlet<tspan x="320.002px " y="548.598px ">o</tspan>n</text>
            </g>
            <g transform="matrix(0.685659,0,0,1.18025,147.751,-93.215)">
                <path d="M321.962,482.829L486.448,482.829C494.378,482.829 500.807,479.024 500.807,474.331C500.807,466.19 500.807,453.96 500.807,445.741C500.807,443.425 499.252,441.204 496.485,439.566C493.717,437.928 489.964,437.008 486.051,437.008C455.794,437.008 389.545,437.008 389.545,437.008" style="fill:none;stroke:rgb(40,66,76);stroke-width:5.42px;"/>
            </g>
        </g>
    </g>
</svg>
